<svg width="157" height="18" viewBox="0 0 157 18" fill="none" xmlns="http://www.w3.org/2000/svg">
<g opacity="0.5">
<path d="M29.19 14V4.06H36.862V14H35.602V5.18H30.45V14H29.19ZM42.9768 14.14C42.3795 14.14 41.8475 13.9907 41.3808 13.692C40.9142 13.3933 40.5455 13.0153 40.2748 12.558V16.982H39.0428V6.692H40.1348V8.064C40.4242 7.616 40.8022 7.25667 41.2688 6.986C41.7355 6.706 42.2442 6.566 42.7948 6.566C43.2988 6.566 43.7608 6.66867 44.1808 6.874C44.6008 7.07933 44.9648 7.35933 45.2728 7.714C45.5808 8.06867 45.8188 8.47467 45.9868 8.932C46.1642 9.38 46.2528 9.85133 46.2528 10.346C46.2528 11.0367 46.1128 11.6713 45.8328 12.25C45.5622 12.8287 45.1795 13.2907 44.6848 13.636C44.1902 13.972 43.6208 14.14 42.9768 14.14ZM42.5988 13.076C43.0842 13.076 43.5042 12.9453 43.8588 12.684C44.2135 12.4227 44.4888 12.082 44.6848 11.662C44.8902 11.242 44.9928 10.8033 44.9928 10.346C44.9928 9.85133 44.8808 9.39867 44.6568 8.988C44.4422 8.57733 44.1435 8.25067 43.7608 8.008C43.3875 7.756 42.9628 7.63 42.4868 7.63C42.1975 7.63 41.8895 7.70467 41.5628 7.854C41.2455 8.00333 40.9655 8.204 40.7228 8.456C40.4895 8.69867 40.3402 8.96933 40.2748 9.268V11.354C40.4802 11.8393 40.7928 12.25 41.2128 12.586C41.6422 12.9127 42.1042 13.076 42.5988 13.076ZM47.7515 14V6.706H48.9835V12.348L53.0715 6.692H54.1915V14H52.9595V8.47L48.9275 14H47.7515ZM56.146 14V6.692H57.378V9.702H58.19L60.486 6.692H61.886L59.156 10.234L62.208 14H60.78L58.19 10.836H57.378V14H56.146ZM67.3538 14.14C66.7564 14.14 66.2244 13.9907 65.7578 13.692C65.2911 13.3933 64.9224 13.0153 64.6518 12.558V16.982H63.4198V6.692H64.5118V8.064C64.8011 7.616 65.1791 7.25667 65.6458 6.986C66.1124 6.706 66.6211 6.566 67.1718 6.566C67.6758 6.566 68.1378 6.66867 68.5578 6.874C68.9778 7.07933 69.3418 7.35933 69.6498 7.714C69.9578 8.06867 70.1958 8.47467 70.3638 8.932C70.5411 9.38 70.6298 9.85133 70.6298 10.346C70.6298 11.0367 70.4898 11.6713 70.2098 12.25C69.9391 12.8287 69.5564 13.2907 69.0618 13.636C68.5671 13.972 67.9978 14.14 67.3538 14.14ZM66.9758 13.076C67.4611 13.076 67.8811 12.9453 68.2358 12.684C68.5904 12.4227 68.8658 12.082 69.0618 11.662C69.2671 11.242 69.3698 10.8033 69.3698 10.346C69.3698 9.85133 69.2578 9.39867 69.0338 8.988C68.8191 8.57733 68.5204 8.25067 68.1378 8.008C67.7644 7.756 67.3398 7.63 66.8638 7.63C66.5744 7.63 66.2664 7.70467 65.9398 7.854C65.6224 8.00333 65.3424 8.204 65.0998 8.456C64.8664 8.69867 64.7171 8.96933 64.6518 9.268V11.354C64.8571 11.8393 65.1698 12.25 65.5898 12.586C66.0191 12.9127 66.4811 13.076 66.9758 13.076ZM72.1424 5.32V3.78H73.3744V5.32H72.1424ZM72.1424 14V6.692H73.3744V14H72.1424ZM75.355 14V6.692H81.417V14H80.185V7.784H76.587V14H75.355ZM83.3941 14V6.706H84.6261V12.348L88.7141 6.692H89.8341V14H88.6021V8.47L84.5701 14H83.3941ZM93.5806 14V7.784H91.0606V6.692H97.3326V7.784H94.8126V14H93.5806ZM98.5562 14V6.706H99.7882V12.348L103.876 6.692H104.996V14H103.764V8.47L99.7322 14H98.5562ZM110.492 14V6.692H116.554V14H115.322V7.784H111.724V14H110.492ZM122.479 14.14C121.881 14.14 121.349 13.9907 120.883 13.692C120.416 13.3933 120.047 13.0153 119.777 12.558V16.982H118.545V6.692H119.637V8.064C119.926 7.616 120.304 7.25667 120.771 6.986C121.237 6.706 121.746 6.566 122.297 6.566C122.801 6.566 123.263 6.66867 123.683 6.874C124.103 7.07933 124.467 7.35933 124.775 7.714C125.083 8.06867 125.321 8.47467 125.489 8.932C125.666 9.38 125.755 9.85133 125.755 10.346C125.755 11.0367 125.615 11.6713 125.335 12.25C125.064 12.8287 124.681 13.2907 124.187 13.636C123.692 13.972 123.123 14.14 122.479 14.14ZM122.101 13.076C122.586 13.076 123.006 12.9453 123.361 12.684C123.715 12.4227 123.991 12.082 124.187 11.662C124.392 11.242 124.495 10.8033 124.495 10.346C124.495 9.85133 124.383 9.39867 124.159 8.988C123.944 8.57733 123.645 8.25067 123.263 8.008C122.889 7.756 122.465 7.63 121.989 7.63C121.699 7.63 121.391 7.70467 121.065 7.854C120.747 8.00333 120.467 8.204 120.225 8.456C119.991 8.69867 119.842 8.96933 119.777 9.268V11.354C119.982 11.8393 120.295 12.25 120.715 12.586C121.144 12.9127 121.606 13.076 122.101 13.076ZM130.459 14.14C129.731 14.14 129.087 13.9673 128.527 13.622C127.977 13.2673 127.547 12.8053 127.239 12.236C126.931 11.6573 126.777 11.032 126.777 10.36C126.777 9.67867 126.931 9.05333 127.239 8.484C127.557 7.90533 127.991 7.44333 128.541 7.098C129.101 6.74333 129.741 6.566 130.459 6.566C131.187 6.566 131.827 6.74333 132.377 7.098C132.937 7.44333 133.371 7.90533 133.679 8.484C133.997 9.05333 134.155 9.67867 134.155 10.36C134.155 11.032 133.997 11.6573 133.679 12.236C133.371 12.8053 132.942 13.2673 132.391 13.622C131.841 13.9673 131.197 14.14 130.459 14.14ZM128.037 10.374C128.037 10.878 128.145 11.3353 128.359 11.746C128.583 12.1567 128.877 12.4833 129.241 12.726C129.605 12.9593 130.011 13.076 130.459 13.076C130.907 13.076 131.313 12.9547 131.677 12.712C132.051 12.4693 132.345 12.1427 132.559 11.732C132.783 11.312 132.895 10.85 132.895 10.346C132.895 9.842 132.783 9.38467 132.559 8.974C132.345 8.56333 132.051 8.23667 131.677 7.994C131.313 7.75133 130.907 7.63 130.459 7.63C130.011 7.63 129.605 7.756 129.241 8.008C128.877 8.25067 128.583 8.57733 128.359 8.988C128.145 9.39867 128.037 9.86067 128.037 10.374ZM138.882 14.14C138.154 14.14 137.51 13.9673 136.95 13.622C136.39 13.2767 135.952 12.8147 135.634 12.236C135.317 11.6573 135.158 11.0273 135.158 10.346C135.158 9.65533 135.317 9.02533 135.634 8.456C135.952 7.88667 136.39 7.42933 136.95 7.084C137.52 6.73867 138.168 6.566 138.896 6.566C139.634 6.566 140.273 6.74333 140.814 7.098C141.365 7.44333 141.79 7.90067 142.088 8.47C142.396 9.03 142.55 9.63667 142.55 10.29C142.55 10.4953 142.541 10.654 142.522 10.766H136.46C136.498 11.242 136.628 11.6667 136.852 12.04C137.086 12.404 137.384 12.6933 137.748 12.908C138.112 13.1133 138.504 13.216 138.924 13.216C139.372 13.216 139.792 13.104 140.184 12.88C140.586 12.656 140.861 12.362 141.01 11.998L142.074 12.292C141.841 12.8333 141.435 13.2767 140.856 13.622C140.278 13.9673 139.62 14.14 138.882 14.14ZM136.418 9.912H141.402C141.365 9.436 141.23 9.016 140.996 8.652C140.763 8.288 140.464 8.00333 140.1 7.798C139.736 7.59267 139.335 7.49 138.896 7.49C138.467 7.49 138.07 7.59267 137.706 7.798C137.342 8.00333 137.044 8.288 136.81 8.652C136.586 9.016 136.456 9.436 136.418 9.912ZM143.906 14V6.692H145.138V9.702H145.95L148.246 6.692H149.646L146.916 10.234L149.968 14H148.54L145.95 10.836H145.138V14H143.906ZM152.958 14V7.784H150.438V6.692H156.71V7.784H154.19V14H152.958Z" fill="white"/>
<path d="M16.0313 4.78125C16.125 4.875 16.2188 4.99554 16.3125 5.14286H11.5714V0.401786C11.7188 0.495536 11.8393 0.589286 11.933 0.683036L16.0313 4.78125ZM11.25 6.42857H16.7143V17.0357C16.7143 17.3036 16.6205 17.5312 16.433 17.7188C16.2455 17.9062 16.0179 18 15.75 18H2.25001C1.98215 18 1.75447 17.9062 1.56697 17.7188C1.37947 17.5312 1.28572 17.3036 1.28572 17.0357V0.964286C1.28572 0.696429 1.37947 0.46875 1.56697 0.28125C1.75447 0.09375 1.98215 0 2.25001 0H10.2857V5.46429C10.2857 5.73214 10.3795 5.95982 10.567 6.14732C10.7545 6.33482 10.9821 6.42857 11.25 6.42857ZM12.8571 13.8214V13.1786C12.8571 13.0848 12.827 13.0078 12.7667 12.9475C12.7065 12.8873 12.6295 12.8571 12.5357 12.8571H5.46429C5.37054 12.8571 5.29353 12.8873 5.23327 12.9475C5.173 13.0078 5.14286 13.0848 5.14286 13.1786V13.8214C5.14286 13.9152 5.173 13.9922 5.23327 14.0525C5.29353 14.1127 5.37054 14.1429 5.46429 14.1429H12.5357C12.6295 14.1429 12.7065 14.1127 12.7667 14.0525C12.827 13.9922 12.8571 13.9152 12.8571 13.8214ZM12.8571 11.25V10.6071C12.8571 10.5134 12.827 10.4364 12.7667 10.3761C12.7065 10.3158 12.6295 10.2857 12.5357 10.2857H5.46429C5.37054 10.2857 5.29353 10.3158 5.23327 10.3761C5.173 10.4364 5.14286 10.5134 5.14286 10.6071V11.25C5.14286 11.3438 5.173 11.4208 5.23327 11.481C5.29353 11.5413 5.37054 11.5714 5.46429 11.5714H12.5357C12.6295 11.5714 12.7065 11.5413 12.7667 11.481C12.827 11.4208 12.8571 11.3438 12.8571 11.25ZM12.8571 8.67857V8.03571C12.8571 7.94196 12.827 7.86496 12.7667 7.80469C12.7065 7.74442 12.6295 7.71429 12.5357 7.71429H5.46429C5.37054 7.71429 5.29353 7.74442 5.23327 7.80469C5.173 7.86496 5.14286 7.94196 5.14286 8.03571V8.67857C5.14286 8.77232 5.173 8.84933 5.23327 8.9096C5.29353 8.96987 5.37054 9 5.46429 9H12.5357C12.6295 9 12.7065 8.96987 12.7667 8.9096C12.827 8.84933 12.8571 8.77232 12.8571 8.67857Z" fill="white"/>
</g>
</svg>
