<svg width="148" height="135" viewBox="0 0 148 135" fill="none" xmlns="http://www.w3.org/2000/svg">
<path opacity="0.5" d="M8.952 128.12C7.752 128.12 6.664 127.88 5.688 127.4C4.712 126.92 3.864 126.272 3.144 125.456C2.44 124.624 1.896 123.696 1.512 122.672C1.128 121.632 0.936 120.568 0.936 119.48C0.936 118.344 1.136 117.264 1.536 116.24C1.952 115.2 2.52 114.28 3.24 113.48C3.976 112.664 4.832 112.024 5.808 111.56C6.784 111.08 7.848 110.84 9 110.84C10.2 110.84 11.288 111.088 12.264 111.584C13.24 112.08 14.08 112.744 14.784 113.576C15.488 114.408 16.032 115.336 16.416 116.36C16.8 117.384 16.992 118.432 16.992 119.504C16.992 120.64 16.792 121.728 16.392 122.768C15.992 123.792 15.424 124.712 14.688 125.528C13.968 126.328 13.12 126.96 12.144 127.424C11.168 127.888 10.104 128.12 8.952 128.12ZM3.12 119.48C3.12 120.344 3.256 121.184 3.528 122C3.816 122.8 4.216 123.512 4.728 124.136C5.24 124.76 5.856 125.256 6.576 125.624C7.296 125.992 8.096 126.176 8.976 126.176C9.888 126.176 10.704 125.984 11.424 125.6C12.144 125.216 12.752 124.704 13.248 124.064C13.76 123.424 14.144 122.704 14.4 121.904C14.672 121.104 14.808 120.296 14.808 119.48C14.808 118.616 14.664 117.784 14.376 116.984C14.104 116.184 13.704 115.472 13.176 114.848C12.664 114.208 12.048 113.712 11.328 113.36C10.624 112.992 9.84 112.808 8.976 112.808C8.064 112.808 7.248 113 6.528 113.384C5.808 113.752 5.192 114.256 4.68 114.896C4.184 115.536 3.8 116.256 3.528 117.056C3.256 117.84 3.12 118.648 3.12 119.48ZM25.2011 128.24C23.9531 128.24 22.8491 127.944 21.8891 127.352C20.9291 126.744 20.1771 125.944 19.6331 124.952C19.0891 123.96 18.8171 122.88 18.8171 121.712C18.8171 120.528 19.0811 119.448 19.6091 118.472C20.1371 117.496 20.8811 116.72 21.8411 116.144C22.8011 115.552 23.9131 115.256 25.1771 115.256C26.4091 115.256 27.4811 115.536 28.3931 116.096C29.3211 116.64 30.0091 117.376 30.4571 118.304L28.3931 118.952C28.0731 118.36 27.6251 117.904 27.0491 117.584C26.4731 117.248 25.8331 117.08 25.1291 117.08C24.3611 117.08 23.6571 117.28 23.0171 117.68C22.3931 118.08 21.8971 118.632 21.5291 119.336C21.1611 120.024 20.9771 120.816 20.9771 121.712C20.9771 122.592 21.1611 123.392 21.5291 124.112C21.9131 124.816 22.4171 125.376 23.0411 125.792C23.6811 126.208 24.3851 126.416 25.1531 126.416C25.6491 126.416 26.1211 126.328 26.5691 126.152C27.0331 125.976 27.4331 125.744 27.7691 125.456C28.1211 125.152 28.3611 124.824 28.4891 124.472L30.5531 125.096C30.1851 126.008 29.5131 126.76 28.5371 127.352C27.5771 127.944 26.4651 128.24 25.2011 128.24ZM32.9222 128V115.472H39.4022C40.1542 115.472 40.7782 115.624 41.2742 115.928C41.7702 116.216 42.1382 116.592 42.3782 117.056C42.6342 117.52 42.7622 118.016 42.7622 118.544C42.7622 119.216 42.6022 119.824 42.2822 120.368C41.9622 120.896 41.4982 121.296 40.8902 121.568C41.6102 121.776 42.1942 122.152 42.6422 122.696C43.0902 123.224 43.3142 123.88 43.3142 124.664C43.3142 125.72 42.9382 126.544 42.1862 127.136C41.4502 127.712 40.4822 128 39.2822 128H32.9222ZM34.9382 120.992H38.8502C39.4102 120.992 39.8662 120.784 40.2182 120.368C40.5862 119.936 40.7702 119.448 40.7702 118.904C40.7702 118.376 40.5942 117.92 40.2422 117.536C39.9062 117.152 39.4662 116.96 38.9222 116.96H34.9382V120.992ZM34.9382 126.512H39.2342C39.8102 126.512 40.2902 126.304 40.6742 125.888C41.0742 125.472 41.2742 124.992 41.2742 124.448C41.2742 123.888 41.0822 123.408 40.6982 123.008C40.3302 122.592 39.8662 122.384 39.3062 122.384H34.9382V126.512ZM46.0009 113.12V110.48H48.1129V113.12H46.0009ZM46.0009 128V115.472H48.1129V128H46.0009ZM54.5801 128V117.344H50.2601V115.472H61.0121V117.344H56.6921V128H54.5801ZM62.0297 128.096V126.2C62.5737 126.184 63.0537 125.984 63.4697 125.6C63.8857 125.216 64.2137 124.512 64.4537 123.488C64.7097 122.464 64.8697 121 64.9337 119.096L65.0777 115.472H73.5977V128H71.4857V117.344H66.9497L66.9017 119.288C66.8217 121.56 66.5897 123.336 66.2057 124.616C65.8377 125.896 65.3017 126.792 64.5977 127.304C63.9097 127.816 63.0537 128.08 62.0297 128.096ZM82.5527 128.24C81.3047 128.24 80.2007 127.944 79.2407 127.352C78.2807 126.76 77.5287 125.968 76.9847 124.976C76.4407 123.984 76.1687 122.904 76.1687 121.736C76.1687 120.552 76.4407 119.472 76.9847 118.496C77.5287 117.52 78.2807 116.736 79.2407 116.144C80.2167 115.552 81.3287 115.256 82.5767 115.256C83.8407 115.256 84.9367 115.56 85.8647 116.168C86.8087 116.76 87.5367 117.544 88.0487 118.52C88.5767 119.48 88.8407 120.52 88.8407 121.64C88.8407 121.992 88.8247 122.264 88.7927 122.456H78.4007C78.4647 123.272 78.6887 124 79.0727 124.64C79.4727 125.264 79.9847 125.76 80.6087 126.128C81.2327 126.48 81.9047 126.656 82.6247 126.656C83.3927 126.656 84.1127 126.464 84.7847 126.08C85.4727 125.696 85.9447 125.192 86.2007 124.568L88.0247 125.072C87.6247 126 86.9287 126.76 85.9367 127.352C84.9447 127.944 83.8167 128.24 82.5527 128.24ZM78.3287 120.992H86.8727C86.8087 120.176 86.5767 119.456 86.1767 118.832C85.7767 118.208 85.2647 117.72 84.6407 117.368C84.0167 117.016 83.3287 116.84 82.5767 116.84C81.8407 116.84 81.1607 117.016 80.5367 117.368C79.9127 117.72 79.4007 118.208 79.0007 118.832C78.6167 119.456 78.3927 120.176 78.3287 120.992ZM91.1644 128V115.472H93.2764V120.656H99.8044V115.472H101.916V128H99.8044V122.528H93.2764V128H91.1644ZM105.297 128V115.472H107.409V120.656H113.937V115.472H116.049V128H113.937V122.528H107.409V128H105.297ZM118.518 128L122.07 122.96C121.254 122.8 120.598 122.416 120.102 121.808C119.606 121.184 119.358 120.352 119.358 119.312C119.358 118.56 119.534 117.896 119.886 117.32C120.238 116.744 120.726 116.288 121.35 115.952C121.99 115.616 122.734 115.448 123.582 115.448H128.718V128H126.606V123.296H124.158L120.846 128H118.518ZM123.726 121.736H126.606V117.104H123.966C123.214 117.104 122.614 117.32 122.166 117.752C121.718 118.168 121.494 118.704 121.494 119.36C121.494 120.016 121.678 120.576 122.046 121.04C122.43 121.504 122.99 121.736 123.726 121.736ZM132.11 128V115.472H134.294L138.95 123.68L143.63 115.472H145.766V128H143.75V118.52L139.622 125.768H138.278L134.126 118.52V128H132.11Z" fill="white"/>
<g clip-path="url(#clip0_221_50)" filter="url(#filter0_d_221_50)">
<path d="M95.4651 52.0372C95.7401 52.0372 96.0039 51.9267 96.1984 51.73C96.3929 51.5333 96.5022 51.2665 96.5022 50.9883C96.5022 37.3673 88.0185 28.4452 74.7917 28.0047V6.04884C74.7917 5.77067 74.6824 5.5039 74.4879 5.3072C74.2934 5.1105 74.0296 5 73.7545 5C73.4795 5 73.2157 5.1105 73.0212 5.3072C72.8267 5.5039 72.7174 5.77067 72.7174 6.04884V28.0047C59.4837 28.4452 51 37.3673 51 50.9883C51 51.2665 51.1093 51.5333 51.3038 51.73C51.4983 51.9267 51.7621 52.0372 52.0371 52.0372H65.5543C65.855 54.0351 66.8402 55.8627 68.3377 57.2008C69.8353 58.5389 71.75 59.3025 73.7476 59.3581C75.7464 59.3041 77.6628 58.5412 79.1618 57.203C80.6608 55.8648 81.6469 54.0363 81.9478 52.0372H95.4651ZM73.7476 30.0814C83.5104 30.0814 93.9301 35.3256 94.4072 49.9395H53.0743C53.5652 35.3256 63.9848 30.0814 73.7476 30.0814ZM73.7476 57.2604C72.3009 57.2043 70.9145 56.6593 69.8102 55.7124C68.706 54.7654 67.9475 53.4714 67.6562 52.0372H79.8459C79.5544 53.4725 78.7949 54.7674 77.6892 55.7145C76.5835 56.6615 75.1956 57.2059 73.7476 57.2604ZM96.5921 64.7981L90.155 59.8336C89.9358 59.6648 89.6594 59.591 89.3864 59.6284C89.1135 59.6658 88.8664 59.8113 88.6995 60.0329C88.5327 60.2545 88.4597 60.5341 88.4966 60.8101C88.5336 61.0861 88.6775 61.336 88.8966 61.5048L95.3337 66.4693C95.5528 66.6381 95.8293 66.7119 96.1022 66.6745C96.2374 66.656 96.3676 66.6107 96.4854 66.5413C96.6033 66.4719 96.7065 66.3797 96.7891 66.27C96.8717 66.1603 96.9322 66.0352 96.967 65.9018C97.0018 65.7685 97.0103 65.6295 96.992 65.4928C96.9737 65.3561 96.929 65.2244 96.8604 65.1052C96.7917 64.986 96.7006 64.8817 96.5921 64.7981ZM59.0274 59.7497L52.77 64.938C52.6429 65.0165 52.534 65.1218 52.4507 65.2468C52.3674 65.3717 52.3117 65.5133 52.2874 65.662C52.2631 65.8106 52.2707 65.9628 52.3098 66.1082C52.3489 66.2536 52.4185 66.3888 52.5139 66.5045C52.6093 66.6203 52.7282 66.7139 52.8625 66.779C52.9969 66.8441 53.1436 66.8791 53.2925 66.8818C53.4415 66.8844 53.5893 66.8545 53.7258 66.7942C53.8623 66.7339 53.9844 66.6445 54.0837 66.5322L60.348 61.3509C60.4578 61.2652 60.5495 61.1581 60.6177 61.0359C60.6859 60.9137 60.7291 60.7789 60.7449 60.6395C60.7606 60.5001 60.7485 60.359 60.7094 60.2244C60.6702 60.0898 60.6047 59.9645 60.5168 59.856C60.4289 59.7474 60.3204 59.6578 60.1976 59.5924C60.0749 59.5271 59.9404 59.4873 59.8021 59.4754C59.6639 59.4636 59.5247 59.4799 59.3928 59.5234C59.2609 59.5669 59.139 59.6367 59.0343 59.7287L59.0274 59.7497ZM74.0519 64.5814C73.7768 64.5814 73.513 64.6919 73.3185 64.8886C73.124 65.0853 73.0147 65.352 73.0147 65.6302V72.9512C73.0147 73.2293 73.124 73.4961 73.3185 73.6928C73.513 73.8895 73.7768 74 74.0519 74C74.3269 74 74.5907 73.8895 74.7852 73.6928C74.9797 73.4961 75.089 73.2293 75.089 72.9512V65.6302C75.089 65.352 74.9797 65.0853 74.7852 64.8886C74.5907 64.6919 74.3269 64.5814 74.0519 64.5814Z" fill="white"/>
</g>
<defs>
<filter id="filter0_d_221_50" x="36" y="0" width="76" height="99" filterUnits="userSpaceOnUse" color-interpolation-filters="sRGB">
<feFlood flood-opacity="0" result="BackgroundImageFix"/>
<feColorMatrix in="SourceAlpha" type="matrix" values="0 0 0 0 0 0 0 0 0 0 0 0 0 0 0 0 0 0 127 0" result="hardAlpha"/>
<feOffset dy="10"/>
<feGaussianBlur stdDeviation="7.5"/>
<feComposite in2="hardAlpha" operator="out"/>
<feColorMatrix type="matrix" values="0 0 0 0 0 0 0 0 0 0 0 0 0 0 0 0 0 0 0.25 0"/>
<feBlend mode="normal" in2="BackgroundImageFix" result="effect1_dropShadow_221_50"/>
<feBlend mode="normal" in="SourceGraphic" in2="effect1_dropShadow_221_50" result="shape"/>
</filter>
<clipPath id="clip0_221_50">
<rect width="46" height="69" fill="white" transform="translate(51 5)"/>
</clipPath>
</defs>
</svg>
