<svg width="240" height="220" viewBox="0 0 240 220" fill="none" xmlns="http://www.w3.org/2000/svg">
<circle opacity="0.3" cx="30" cy="30" r="29.5" stroke="#282B22"/>
<path d="M30.512 30.968C30.512 32.376 30.24 33.632 29.696 34.736C29.168 35.824 28.44 36.68 27.512 37.304C26.584 37.928 25.536 38.24 24.368 38.24C23.184 38.24 22.128 37.928 21.2 37.304C20.288 36.68 19.56 35.824 19.016 34.736C18.488 33.632 18.224 32.376 18.224 30.968C18.224 29.56 18.488 28.312 19.016 27.224C19.56 26.12 20.288 25.256 21.2 24.632C22.128 23.992 23.184 23.672 24.368 23.672C25.536 23.672 26.584 23.992 27.512 24.632C28.44 25.256 29.168 26.12 29.696 27.224C30.24 28.312 30.512 29.56 30.512 30.968ZM27.824 30.968C27.824 30.008 27.672 29.168 27.368 28.448C27.08 27.712 26.672 27.144 26.144 26.744C25.632 26.328 25.04 26.12 24.368 26.12C23.68 26.12 23.072 26.328 22.544 26.744C22.016 27.144 21.6 27.712 21.296 28.448C21.008 29.168 20.864 30.008 20.864 30.968C20.864 32.408 21.184 33.576 21.824 34.472C22.48 35.352 23.328 35.792 24.368 35.792C25.04 35.792 25.632 35.592 26.144 35.192C26.672 34.792 27.08 34.232 27.368 33.512C27.672 32.776 27.824 31.928 27.824 30.968ZM32.7022 38C32.7022 37.104 32.8062 36.296 33.0142 35.576C33.2382 34.84 33.6222 34.168 34.1662 33.56C34.7262 32.936 35.5262 32.336 36.5662 31.76C37.3022 31.344 37.9822 30.976 38.6062 30.656C39.2462 30.32 39.7502 29.976 40.1182 29.624C40.5022 29.272 40.6942 28.856 40.6942 28.376C40.6942 27.864 40.4702 27.408 40.0222 27.008C39.5902 26.592 38.9662 26.384 38.1502 26.384C37.2862 26.384 36.5582 26.592 35.9662 27.008C35.3742 27.408 34.9022 27.816 34.5502 28.232L32.8942 26.336C33.1182 26.096 33.4942 25.8 34.0222 25.448C34.5502 25.08 35.1982 24.76 35.9662 24.488C36.7502 24.2 37.6302 24.056 38.6062 24.056C40.1422 24.056 41.3502 24.432 42.2302 25.184C43.1102 25.936 43.5502 26.88 43.5502 28.016C43.5502 28.8 43.3502 29.472 42.9502 30.032C42.5502 30.576 42.0702 31.032 41.5102 31.4C40.9662 31.768 40.4622 32.072 39.9982 32.312C39.1662 32.728 38.4782 33.096 37.9342 33.416C37.4062 33.736 36.9822 34.064 36.6622 34.4C36.3422 34.736 36.0862 35.144 35.8942 35.624H43.8142V38H32.7022Z" fill="#3D4A39"/>
<path d="M11.484 106.706C11.484 107.39 11.304 107.978 10.944 108.47C10.584 108.962 10.104 109.34 9.504 109.604C8.916 109.868 8.262 110 7.542 110H1.44V97.22H8.028C8.628 97.22 9.144 97.382 9.576 97.706C10.008 98.018 10.344 98.426 10.584 98.93C10.824 99.434 10.944 99.95 10.944 100.478C10.944 101.102 10.782 101.69 10.458 102.242C10.146 102.782 9.696 103.184 9.108 103.448C9.828 103.664 10.404 104.06 10.836 104.636C11.268 105.2 11.484 105.89 11.484 106.706ZM3.456 98.966V102.728H7.164C7.668 102.728 8.088 102.554 8.424 102.206C8.76 101.846 8.928 101.396 8.928 100.856C8.928 100.304 8.772 99.854 8.46 99.506C8.148 99.146 7.752 98.966 7.272 98.966H3.456ZM9.414 106.328C9.414 105.8 9.246 105.338 8.91 104.942C8.586 104.546 8.172 104.348 7.668 104.348H3.456V108.254H7.542C8.07 108.254 8.514 108.068 8.874 107.696C9.234 107.312 9.414 106.856 9.414 106.328ZM13.3345 110V100.604H15.3145V107.354L20.0845 100.586H21.8845V110H19.9045V103.394L15.1885 110H13.3345ZM24.2505 110V100.586H30.2625V102.332H26.2305V110H24.2505ZM35.9864 110.18C35.0024 110.18 34.1444 109.958 33.4124 109.514C32.6924 109.058 32.1344 108.464 31.7384 107.732C31.3424 106.988 31.1444 106.178 31.1444 105.302C31.1444 104.426 31.3424 103.622 31.7384 102.89C32.1464 102.146 32.7104 101.552 33.4304 101.108C34.1624 100.652 35.0144 100.424 35.9864 100.424C36.9584 100.424 37.8044 100.652 38.5244 101.108C39.2564 101.552 39.8204 102.146 40.2164 102.89C40.6244 103.622 40.8284 104.426 40.8284 105.302C40.8284 106.178 40.6304 106.988 40.2344 107.732C39.8384 108.464 39.2744 109.058 38.5424 109.514C37.8224 109.958 36.9704 110.18 35.9864 110.18ZM33.1784 105.32C33.1784 105.92 33.3044 106.46 33.5564 106.94C33.8084 107.42 34.1444 107.798 34.5644 108.074C34.9844 108.35 35.4584 108.488 35.9864 108.488C36.5024 108.488 36.9704 108.35 37.3904 108.074C37.8224 107.786 38.1644 107.402 38.4164 106.922C38.6684 106.442 38.7944 105.902 38.7944 105.302C38.7944 104.702 38.6684 104.162 38.4164 103.682C38.1644 103.202 37.8224 102.824 37.3904 102.548C36.9704 102.26 36.5024 102.116 35.9864 102.116C35.4704 102.116 34.9964 102.26 34.5644 102.548C34.1444 102.824 33.8084 103.208 33.5564 103.7C33.3044 104.18 33.1784 104.72 33.1784 105.32ZM44.8165 110V102.332H41.7025V100.586H49.9285V102.332H46.7965V110H44.8165ZM55.6387 110.18C54.6547 110.18 53.7967 109.958 53.0647 109.514C52.3447 109.058 51.7867 108.464 51.3907 107.732C50.9947 106.988 50.7967 106.178 50.7967 105.302C50.7967 104.426 50.9947 103.622 51.3907 102.89C51.7987 102.146 52.3627 101.552 53.0827 101.108C53.8147 100.652 54.6667 100.424 55.6387 100.424C56.6107 100.424 57.4567 100.652 58.1767 101.108C58.9087 101.552 59.4727 102.146 59.8687 102.89C60.2767 103.622 60.4807 104.426 60.4807 105.302C60.4807 106.178 60.2827 106.988 59.8867 107.732C59.4907 108.464 58.9267 109.058 58.1947 109.514C57.4747 109.958 56.6227 110.18 55.6387 110.18ZM52.8307 105.32C52.8307 105.92 52.9567 106.46 53.2087 106.94C53.4607 107.42 53.7967 107.798 54.2167 108.074C54.6367 108.35 55.1107 108.488 55.6387 108.488C56.1547 108.488 56.6227 108.35 57.0427 108.074C57.4747 107.786 57.8167 107.402 58.0687 106.922C58.3207 106.442 58.4467 105.902 58.4467 105.302C58.4467 104.702 58.3207 104.162 58.0687 103.682C57.8167 103.202 57.4747 102.824 57.0427 102.548C56.6227 102.26 56.1547 102.116 55.6387 102.116C55.1227 102.116 54.6487 102.26 54.2167 102.548C53.7967 102.824 53.4607 103.208 53.2087 103.7C52.9567 104.18 52.8307 104.72 52.8307 105.32ZM62.2368 110V100.586H67.2768C67.8768 100.586 68.3688 100.7 68.7528 100.928C69.1488 101.144 69.4428 101.426 69.6348 101.774C69.8268 102.122 69.9228 102.494 69.9228 102.89C69.9228 103.406 69.7968 103.862 69.5448 104.258C69.3048 104.654 68.9568 104.954 68.5008 105.158C69.0408 105.314 69.4788 105.59 69.8148 105.986C70.1628 106.382 70.3368 106.88 70.3368 107.48C70.3368 108.308 70.0428 108.938 69.4548 109.37C68.8668 109.79 68.0868 110 67.1148 110H62.2368ZM64.1088 104.618H66.7728C67.1448 104.618 67.4508 104.48 67.6908 104.204C67.9308 103.928 68.0508 103.604 68.0508 103.232C68.0508 102.884 67.9368 102.584 67.7088 102.332C67.4808 102.08 67.1808 101.954 66.8088 101.954H64.1088V104.618ZM64.1088 108.632H67.0608C67.4448 108.632 67.7688 108.5 68.0328 108.236C68.2968 107.96 68.4288 107.636 68.4288 107.264C68.4288 106.88 68.3028 106.556 68.0508 106.292C67.7988 106.028 67.4808 105.896 67.0968 105.896H64.1088V108.632ZM71.4652 110.09V108.326C71.8612 108.314 72.2032 108.176 72.4912 107.912C72.7912 107.648 73.0312 107.168 73.2112 106.472C73.3912 105.764 73.5052 104.75 73.5532 103.43L73.6792 100.586H80.3932V110H78.4132V102.332H75.4252L75.3892 103.61C75.3292 105.29 75.1432 106.598 74.8312 107.534C74.5312 108.47 74.1052 109.13 73.5532 109.514C73.0012 109.898 72.3052 110.09 71.4652 110.09ZM87.0341 110.18C86.0621 110.18 85.2101 109.958 84.4781 109.514C83.7461 109.07 83.1761 108.482 82.7681 107.75C82.3601 107.006 82.1561 106.196 82.1561 105.32C82.1561 104.432 82.3601 103.616 82.7681 102.872C83.1761 102.128 83.7461 101.534 84.4781 101.09C85.2101 100.646 86.0681 100.424 87.0521 100.424C88.0361 100.424 88.8881 100.652 89.6081 101.108C90.3281 101.552 90.8801 102.14 91.2641 102.872C91.6601 103.604 91.8581 104.39 91.8581 105.23C91.8581 105.53 91.8401 105.77 91.8041 105.95H84.2621C84.2981 106.502 84.4481 106.988 84.7121 107.408C84.9881 107.816 85.3301 108.14 85.7381 108.38C86.1581 108.608 86.6141 108.722 87.1061 108.722C87.6341 108.722 88.1321 108.59 88.6001 108.326C89.0681 108.062 89.3921 107.714 89.5721 107.282L91.2641 107.768C90.9401 108.476 90.4001 109.058 89.6441 109.514C88.9001 109.958 88.0301 110.18 87.0341 110.18ZM84.2081 104.636H89.8961C89.8481 104.096 89.6921 103.622 89.4281 103.214C89.1641 102.794 88.8221 102.47 88.4021 102.242C87.9941 102.002 87.5381 101.882 87.0341 101.882C86.5421 101.882 86.0861 102.002 85.6661 102.242C85.2581 102.47 84.9221 102.794 84.6581 103.214C84.3941 103.622 84.2441 104.096 84.2081 104.636ZM93.4732 110V100.586H95.4532V104.33H99.8272V100.586H101.807V110H99.8272V106.04H95.4532V110H93.4732ZM104.196 110V100.586H106.176V104.33H110.55V100.586H112.53V110H110.55V106.04H106.176V110H104.196ZM114.324 110L116.844 106.274C116.256 106.13 115.788 105.83 115.44 105.374C115.092 104.918 114.918 104.306 114.918 103.538C114.918 102.662 115.218 101.948 115.818 101.396C116.418 100.844 117.204 100.568 118.176 100.568H122.316V110H120.336V106.598H118.788L116.484 110H114.324ZM118.374 105.158H120.336V102.098H118.5C117.996 102.098 117.594 102.236 117.294 102.512C117.006 102.788 116.862 103.148 116.862 103.592C116.862 104.036 116.988 104.408 117.24 104.708C117.492 105.008 117.87 105.158 118.374 105.158Z" fill="#282B22"/>
<path opacity="0.8" d="M1.36 145V133.64H10.128V145H8.688V134.92H2.8V145H1.36ZM12.6204 135.08V133.32H14.0284V135.08H12.6204ZM12.6204 145V136.648H14.0284V145H12.6204ZM20.0039 145.16C19.1719 145.16 18.4359 144.963 17.7959 144.568C17.1559 144.163 16.6545 143.629 16.2919 142.968C15.9292 142.307 15.7479 141.587 15.7479 140.808C15.7479 140.019 15.9239 139.299 16.2759 138.648C16.6279 137.997 17.1239 137.48 17.7639 137.096C18.4039 136.701 19.1452 136.504 19.9879 136.504C20.8092 136.504 21.5239 136.691 22.1319 137.064C22.7505 137.427 23.2092 137.917 23.5079 138.536L22.1319 138.968C21.9185 138.573 21.6199 138.269 21.2359 138.056C20.8519 137.832 20.4252 137.72 19.9559 137.72C19.4439 137.72 18.9745 137.853 18.5479 138.12C18.1319 138.387 17.8012 138.755 17.5559 139.224C17.3105 139.683 17.1879 140.211 17.1879 140.808C17.1879 141.395 17.3105 141.928 17.5559 142.408C17.8119 142.877 18.1479 143.251 18.5639 143.528C18.9905 143.805 19.4599 143.944 19.9719 143.944C20.3025 143.944 20.6172 143.885 20.9159 143.768C21.2252 143.651 21.4919 143.496 21.7159 143.304C21.9505 143.101 22.1105 142.883 22.1959 142.648L23.5719 143.064C23.3265 143.672 22.8785 144.173 22.2279 144.568C21.5879 144.963 20.8465 145.16 20.0039 145.16ZM24.4313 145.064V143.8C24.7939 143.789 25.1139 143.656 25.3913 143.4C25.6686 143.144 25.8873 142.675 26.0473 141.992C26.2179 141.309 26.3246 140.333 26.3673 139.064L26.4633 136.648H32.1433V145H30.7353V137.896H27.7113L27.6793 139.192C27.6259 140.707 27.4713 141.891 27.2153 142.744C26.9699 143.597 26.6126 144.195 26.1432 144.536C25.6846 144.877 25.1139 145.053 24.4313 145.064ZM33.7933 145L36.1613 141.64C35.6173 141.533 35.1799 141.277 34.8493 140.872C34.5186 140.456 34.3533 139.901 34.3533 139.208C34.3533 138.707 34.4706 138.264 34.7053 137.88C34.9399 137.496 35.2653 137.192 35.6813 136.968C36.1079 136.744 36.6039 136.632 37.1693 136.632H40.5933V145H39.1853V141.864H37.5533L35.3453 145H33.7933ZM37.2653 140.824H39.1853V137.736H37.4253C36.9239 137.736 36.5239 137.88 36.2253 138.168C35.9266 138.445 35.7773 138.803 35.7773 139.24C35.7773 139.677 35.8999 140.051 36.1453 140.36C36.4013 140.669 36.7746 140.824 37.2653 140.824ZM46.9013 145V136.648H53.8293V145H52.4213V137.896H48.3093V145H46.9013ZM56.1048 135.08V133.32H57.5128V135.08H56.1048ZM56.1048 145V136.648H57.5128V145H56.1048ZM58.8643 146.968V143.752H59.0403C59.3496 143.752 59.6269 143.624 59.8723 143.368C60.1283 143.101 60.3363 142.632 60.4963 141.96C60.6563 141.277 60.7523 140.312 60.7843 139.064L60.8643 136.648H66.5443V143.752H67.6803V146.968H66.4323V145H60.1123V146.968H58.8643ZM61.0082 143.752H65.1363V137.896H62.1123L62.0643 139.192C62.0216 140.557 61.9096 141.592 61.7283 142.296C61.5576 143 61.3176 143.485 61.0082 143.752ZM69.2294 145V136.648H76.1574V145H74.7494V137.896H70.6374V145H69.2294ZM78.4169 145V136.664H79.8249V143.112L84.4969 136.648H85.7769V145H84.3689V138.68L79.7609 145H78.4169ZM91.7226 145.16C90.8906 145.16 90.1546 144.963 89.5146 144.568C88.8746 144.163 88.3733 143.629 88.0106 142.968C87.648 142.307 87.4666 141.587 87.4666 140.808C87.4666 140.019 87.6426 139.299 87.9946 138.648C88.3466 137.997 88.8426 137.48 89.4826 137.096C90.1226 136.701 90.864 136.504 91.7066 136.504C92.528 136.504 93.2426 136.691 93.8506 137.064C94.4693 137.427 94.928 137.917 95.2266 138.536L93.8506 138.968C93.6373 138.573 93.3386 138.269 92.9546 138.056C92.5706 137.832 92.144 137.72 91.6746 137.72C91.1626 137.72 90.6933 137.853 90.2666 138.12C89.8506 138.387 89.52 138.755 89.2746 139.224C89.0293 139.683 88.9066 140.211 88.9066 140.808C88.9066 141.395 89.0293 141.928 89.2746 142.408C89.5306 142.877 89.8666 143.251 90.2826 143.528C90.7093 143.805 91.1786 143.944 91.6906 143.944C92.0213 143.944 92.336 143.885 92.6346 143.768C92.944 143.651 93.2106 143.496 93.4346 143.304C93.6693 143.101 93.8293 142.883 93.9146 142.648L95.2906 143.064C95.0453 143.672 94.5973 144.173 93.9466 144.568C93.3066 144.963 92.5653 145.16 91.7226 145.16ZM96.23 142.584C96.23 142.051 96.3793 141.592 96.678 141.208C96.9873 140.813 97.4087 140.509 97.942 140.296C98.4753 140.083 99.094 139.976 99.798 139.976C100.171 139.976 100.566 140.008 100.982 140.072C101.398 140.125 101.766 140.211 102.086 140.328V139.72C102.086 139.08 101.894 138.579 101.51 138.216C101.126 137.843 100.582 137.656 99.878 137.656C99.4193 137.656 98.9767 137.741 98.55 137.912C98.134 138.072 97.6913 138.307 97.222 138.616L96.71 137.624C97.254 137.251 97.798 136.973 98.342 136.792C98.886 136.6 99.4513 136.504 100.038 136.504C101.105 136.504 101.947 136.803 102.566 137.4C103.185 137.987 103.494 138.808 103.494 139.864V143.4C103.494 143.731 103.643 143.901 103.942 143.912V145C103.803 145.021 103.681 145.037 103.574 145.048C103.478 145.059 103.398 145.064 103.334 145.064C103.003 145.064 102.753 144.973 102.582 144.792C102.422 144.611 102.331 144.419 102.31 144.216L102.278 143.688C101.915 144.157 101.441 144.52 100.854 144.776C100.267 145.032 99.686 145.16 99.11 145.16C98.5553 145.16 98.0593 145.048 97.622 144.824C97.1847 144.589 96.8433 144.28 96.598 143.896C96.3527 143.501 96.23 143.064 96.23 142.584ZM101.67 143.176C101.798 143.027 101.899 142.877 101.974 142.728C102.049 142.568 102.086 142.435 102.086 142.328V141.288C101.403 141.021 100.699 140.888 99.974 140.888C99.2593 140.888 98.678 141.032 98.23 141.32C97.7927 141.597 97.574 141.981 97.574 142.472C97.574 142.739 97.6433 143 97.782 143.256C97.9313 143.501 98.1447 143.704 98.422 143.864C98.71 144.024 99.062 144.104 99.478 144.104C99.9153 144.104 100.331 144.019 100.726 143.848C101.121 143.667 101.435 143.443 101.67 143.176ZM105.729 145V136.648H107.137V140.104H111.489V136.648H112.897V145H111.489V141.352H107.137V145H105.729ZM115.151 145V136.648H116.559V140.104H120.911V136.648H122.319V145H120.911V141.352H116.559V145H115.151ZM123.965 145L126.333 141.64C125.789 141.533 125.352 141.277 125.021 140.872C124.69 140.456 124.525 139.901 124.525 139.208C124.525 138.707 124.642 138.264 124.877 137.88C125.112 137.496 125.437 137.192 125.853 136.968C126.28 136.744 126.776 136.632 127.341 136.632H130.765V145H129.357V141.864H127.725L125.517 145H123.965ZM127.437 140.824H129.357V137.736H127.597C127.096 137.736 126.696 137.88 126.397 138.168C126.098 138.445 125.949 138.803 125.949 139.24C125.949 139.677 126.072 140.051 126.317 140.36C126.573 140.669 126.946 140.824 127.437 140.824ZM136.161 146.968V143.752H136.337C136.646 143.752 136.924 143.624 137.169 143.368C137.425 143.101 137.633 142.632 137.793 141.96C137.953 141.277 138.049 140.312 138.081 139.064L138.161 136.648H143.841V143.752H144.977V146.968H143.729V145H137.409V146.968H136.161ZM138.305 143.752H142.433V137.896H139.409L139.361 139.192C139.318 140.557 139.206 141.592 139.025 142.296C138.854 143 138.614 143.485 138.305 143.752ZM150.19 145.16C149.358 145.16 148.622 144.963 147.982 144.568C147.353 144.163 146.862 143.635 146.51 142.984C146.158 142.323 145.982 141.608 145.982 140.84C145.982 140.061 146.158 139.347 146.51 138.696C146.873 138.035 147.369 137.507 147.998 137.112C148.638 136.707 149.369 136.504 150.19 136.504C151.022 136.504 151.753 136.707 152.382 137.112C153.022 137.507 153.518 138.035 153.87 138.696C154.233 139.347 154.414 140.061 154.414 140.84C154.414 141.608 154.233 142.323 153.87 142.984C153.518 143.635 153.028 144.163 152.398 144.568C151.769 144.963 151.033 145.16 150.19 145.16ZM147.422 140.856C147.422 141.432 147.545 141.955 147.79 142.424C148.046 142.893 148.382 143.267 148.798 143.544C149.214 143.811 149.678 143.944 150.19 143.944C150.702 143.944 151.166 143.805 151.582 143.528C152.009 143.251 152.345 142.877 152.59 142.408C152.846 141.928 152.974 141.4 152.974 140.824C152.974 140.248 152.846 139.725 152.59 139.256C152.345 138.787 152.009 138.413 151.582 138.136C151.166 137.859 150.702 137.72 150.19 137.72C149.678 137.72 149.214 137.864 148.798 138.152C148.382 138.429 148.046 138.803 147.79 139.272C147.545 139.741 147.422 140.269 147.422 140.856ZM156.104 145V136.648H161.256V137.896H157.512V145H156.104ZM166.347 145.16C165.515 145.16 164.779 144.963 164.139 144.568C163.509 144.163 163.019 143.635 162.667 142.984C162.315 142.323 162.139 141.608 162.139 140.84C162.139 140.061 162.315 139.347 162.667 138.696C163.029 138.035 163.525 137.507 164.155 137.112C164.795 136.707 165.525 136.504 166.347 136.504C167.179 136.504 167.909 136.707 168.539 137.112C169.179 137.507 169.675 138.035 170.027 138.696C170.389 139.347 170.571 140.061 170.571 140.84C170.571 141.608 170.389 142.323 170.027 142.984C169.675 143.635 169.184 144.163 168.555 144.568C167.925 144.963 167.189 145.16 166.347 145.16ZM163.579 140.856C163.579 141.432 163.701 141.955 163.947 142.424C164.203 142.893 164.539 143.267 164.955 143.544C165.371 143.811 165.835 143.944 166.347 143.944C166.859 143.944 167.323 143.805 167.739 143.528C168.165 143.251 168.501 142.877 168.747 142.408C169.003 141.928 169.131 141.4 169.131 140.824C169.131 140.248 169.003 139.725 168.747 139.256C168.501 138.787 168.165 138.413 167.739 138.136C167.323 137.859 166.859 137.72 166.347 137.72C165.835 137.72 165.371 137.864 164.955 138.152C164.539 138.429 164.203 138.803 163.947 139.272C163.701 139.741 163.579 140.269 163.579 140.856ZM172.261 145V136.648H176.581C177.082 136.648 177.498 136.749 177.829 136.952C178.159 137.144 178.405 137.395 178.565 137.704C178.735 138.013 178.821 138.344 178.821 138.696C178.821 139.144 178.714 139.549 178.501 139.912C178.287 140.264 177.978 140.531 177.573 140.712C178.053 140.851 178.442 141.101 178.741 141.464C179.039 141.816 179.189 142.253 179.189 142.776C179.189 143.48 178.938 144.029 178.437 144.424C177.946 144.808 177.301 145 176.501 145H172.261ZM173.605 140.328H176.213C176.586 140.328 176.89 140.189 177.125 139.912C177.37 139.624 177.493 139.299 177.493 138.936C177.493 138.584 177.375 138.28 177.141 138.024C176.917 137.768 176.623 137.64 176.261 137.64H173.605V140.328ZM173.605 144.008H176.469C176.853 144.008 177.173 143.869 177.429 143.592C177.695 143.315 177.829 142.995 177.829 142.632C177.829 142.259 177.701 141.939 177.445 141.672C177.199 141.395 176.89 141.256 176.517 141.256H173.605V144.008ZM184.628 145.16C183.796 145.16 183.06 144.963 182.42 144.568C181.79 144.163 181.3 143.635 180.948 142.984C180.596 142.323 180.42 141.608 180.42 140.84C180.42 140.061 180.596 139.347 180.948 138.696C181.31 138.035 181.806 137.507 182.436 137.112C183.076 136.707 183.806 136.504 184.628 136.504C185.46 136.504 186.19 136.707 186.82 137.112C187.46 137.507 187.956 138.035 188.308 138.696C188.67 139.347 188.852 140.061 188.852 140.84C188.852 141.608 188.67 142.323 188.308 142.984C187.956 143.635 187.465 144.163 186.836 144.568C186.206 144.963 185.47 145.16 184.628 145.16ZM181.86 140.856C181.86 141.432 181.982 141.955 182.228 142.424C182.484 142.893 182.82 143.267 183.236 143.544C183.652 143.811 184.116 143.944 184.628 143.944C185.14 143.944 185.604 143.805 186.02 143.528C186.446 143.251 186.782 142.877 187.028 142.408C187.284 141.928 187.412 141.4 187.412 140.824C187.412 140.248 187.284 139.725 187.028 139.256C186.782 138.787 186.446 138.413 186.02 138.136C185.604 137.859 185.14 137.72 184.628 137.72C184.116 137.72 183.652 137.864 183.236 138.152C182.82 138.429 182.484 138.803 182.228 139.272C181.982 139.741 181.86 140.269 181.86 140.856ZM195.054 145.16C194.371 145.16 193.763 144.989 193.23 144.648C192.697 144.307 192.275 143.875 191.966 143.352V148.408H190.558V136.648H191.806V138.216C192.137 137.704 192.569 137.293 193.102 136.984C193.635 136.664 194.217 136.504 194.846 136.504C195.422 136.504 195.95 136.621 196.43 136.856C196.91 137.091 197.326 137.411 197.678 137.816C198.03 138.221 198.302 138.685 198.494 139.208C198.697 139.72 198.798 140.259 198.798 140.824C198.798 141.613 198.638 142.339 198.318 143C198.009 143.661 197.571 144.189 197.006 144.584C196.441 144.968 195.79 145.16 195.054 145.16ZM194.622 143.944C195.177 143.944 195.657 143.795 196.062 143.496C196.467 143.197 196.782 142.808 197.006 142.328C197.241 141.848 197.358 141.347 197.358 140.824C197.358 140.259 197.23 139.741 196.974 139.272C196.729 138.803 196.387 138.429 195.95 138.152C195.523 137.864 195.038 137.72 194.494 137.72C194.163 137.72 193.811 137.805 193.438 137.976C193.075 138.147 192.755 138.376 192.478 138.664C192.211 138.941 192.041 139.251 191.966 139.592V141.976C192.201 142.531 192.558 143 193.038 143.384C193.529 143.757 194.057 143.944 194.622 143.944ZM201.285 148.504C200.933 148.504 200.56 148.397 200.165 148.184L200.645 147.224C200.827 147.331 201.008 147.384 201.189 147.384C201.712 147.384 202.171 146.899 202.565 145.928L202.965 144.92L199.301 136.648H200.789L203.605 143.576L206.149 136.648H207.541L203.637 146.36C203.349 147.075 203.003 147.608 202.597 147.96C202.192 148.323 201.755 148.504 201.285 148.504ZM214.606 145V137.896H211.726V136.648H218.894V137.896H216.014V145H214.606ZM219.652 142.584C219.652 142.051 219.801 141.592 220.1 141.208C220.409 140.813 220.831 140.509 221.364 140.296C221.897 140.083 222.516 139.976 223.22 139.976C223.593 139.976 223.988 140.008 224.404 140.072C224.82 140.125 225.188 140.211 225.508 140.328V139.72C225.508 139.08 225.316 138.579 224.932 138.216C224.548 137.843 224.004 137.656 223.3 137.656C222.841 137.656 222.399 137.741 221.972 137.912C221.556 138.072 221.113 138.307 220.644 138.616L220.132 137.624C220.676 137.251 221.22 136.973 221.764 136.792C222.308 136.6 222.873 136.504 223.46 136.504C224.527 136.504 225.369 136.803 225.988 137.4C226.607 137.987 226.916 138.808 226.916 139.864V143.4C226.916 143.731 227.065 143.901 227.364 143.912V145C227.225 145.021 227.103 145.037 226.996 145.048C226.9 145.059 226.82 145.064 226.756 145.064C226.425 145.064 226.175 144.973 226.004 144.792C225.844 144.611 225.753 144.419 225.732 144.216L225.7 143.688C225.337 144.157 224.863 144.52 224.276 144.776C223.689 145.032 223.108 145.16 222.532 145.16C221.977 145.16 221.481 145.048 221.044 144.824C220.607 144.589 220.265 144.28 220.02 143.896C219.775 143.501 219.652 143.064 219.652 142.584ZM225.092 143.176C225.22 143.027 225.321 142.877 225.396 142.728C225.471 142.568 225.508 142.435 225.508 142.328V141.288C224.825 141.021 224.121 140.888 223.396 140.888C222.681 140.888 222.1 141.032 221.652 141.32C221.215 141.597 220.996 141.981 220.996 142.472C220.996 142.739 221.065 143 221.204 143.256C221.353 143.501 221.567 143.704 221.844 143.864C222.132 144.024 222.484 144.104 222.9 144.104C223.337 144.104 223.753 144.019 224.148 143.848C224.543 143.667 224.857 143.443 225.092 143.176ZM1.12 168V159.648H5.44C5.94133 159.648 6.35733 159.749 6.688 159.952C7.01867 160.144 7.264 160.395 7.424 160.704C7.59467 161.013 7.68 161.344 7.68 161.696C7.68 162.144 7.57333 162.549 7.36 162.912C7.14667 163.264 6.83733 163.531 6.432 163.712C6.912 163.851 7.30133 164.101 7.6 164.464C7.89867 164.816 8.048 165.253 8.048 165.776C8.048 166.48 7.79733 167.029 7.296 167.424C6.80533 167.808 6.16 168 5.36 168H1.12ZM2.464 163.328H5.072C5.44533 163.328 5.74933 163.189 5.984 162.912C6.22933 162.624 6.352 162.299 6.352 161.936C6.352 161.584 6.23467 161.28 6 161.024C5.776 160.768 5.48267 160.64 5.12 160.64H2.464V163.328ZM2.464 167.008H5.328C5.712 167.008 6.032 166.869 6.288 166.592C6.55467 166.315 6.688 165.995 6.688 165.632C6.688 165.259 6.56 164.939 6.304 164.672C6.05867 164.395 5.74933 164.256 5.376 164.256H2.464V167.008ZM9.82313 168V159.664H11.2311V166.112L15.9031 159.648H17.1831V168H15.7751V161.68L11.1671 168H9.82313ZM22.0409 168.112C21.2302 168.112 20.5422 167.963 19.9769 167.664C19.4222 167.355 18.9955 166.928 18.6969 166.384L19.8489 165.872C20.0409 166.213 20.3129 166.48 20.6649 166.672C21.0275 166.864 21.4649 166.96 21.9769 166.96C22.5849 166.96 23.0649 166.827 23.4169 166.56C23.7689 166.293 23.9449 165.936 23.9449 165.488C23.9449 165.083 23.8009 164.757 23.5129 164.512C23.2355 164.256 22.8409 164.123 22.3289 164.112H21.4809V163.184H22.3769C22.7182 163.184 22.9955 163.067 23.2089 162.832C23.4329 162.587 23.5449 162.283 23.5449 161.92C23.5449 161.547 23.4115 161.248 23.1449 161.024C22.8782 160.789 22.4782 160.672 21.9449 160.672C21.1022 160.672 20.4995 161.013 20.1369 161.696L19.0649 161.12C19.3315 160.619 19.7155 160.229 20.2169 159.952C20.7289 159.664 21.3262 159.52 22.0089 159.52C22.8302 159.52 23.5022 159.717 24.0249 160.112C24.5475 160.496 24.8089 161.04 24.8089 161.744C24.8089 162.139 24.7129 162.507 24.5209 162.848C24.3395 163.179 24.0675 163.429 23.7049 163.6C24.2062 163.749 24.5902 164.011 24.8569 164.384C25.1235 164.747 25.2569 165.179 25.2569 165.68C25.2569 166.448 24.9529 167.045 24.3449 167.472C23.7475 167.899 22.9795 168.112 22.0409 168.112ZM26.9325 168V159.648H28.3405V163.104H32.6925V159.648H34.1005V168H32.6925V164.352H28.3405V168H26.9325ZM35.7144 165.584C35.7144 165.051 35.8637 164.592 36.1624 164.208C36.4717 163.813 36.893 163.509 37.4264 163.296C37.9597 163.083 38.5784 162.976 39.2824 162.976C39.6557 162.976 40.0504 163.008 40.4664 163.072C40.8824 163.125 41.2504 163.211 41.5704 163.328V162.72C41.5704 162.08 41.3784 161.579 40.9944 161.216C40.6104 160.843 40.0664 160.656 39.3624 160.656C38.9037 160.656 38.461 160.741 38.0344 160.912C37.6184 161.072 37.1757 161.307 36.7064 161.616L36.1944 160.624C36.7384 160.251 37.2824 159.973 37.8264 159.792C38.3704 159.6 38.9357 159.504 39.5224 159.504C40.589 159.504 41.4317 159.803 42.0504 160.4C42.669 160.987 42.9784 161.808 42.9784 162.864V166.4C42.9784 166.731 43.1277 166.901 43.4264 166.912V168C43.2877 168.021 43.165 168.037 43.0584 168.048C42.9624 168.059 42.8824 168.064 42.8184 168.064C42.4877 168.064 42.237 167.973 42.0664 167.792C41.9064 167.611 41.8157 167.419 41.7944 167.216L41.7624 166.688C41.3997 167.157 40.925 167.52 40.3384 167.776C39.7517 168.032 39.1704 168.16 38.5944 168.16C38.0397 168.16 37.5437 168.048 37.1064 167.824C36.669 167.589 36.3277 167.28 36.0824 166.896C35.837 166.501 35.7144 166.064 35.7144 165.584ZM41.1544 166.176C41.2824 166.027 41.3837 165.877 41.4584 165.728C41.533 165.568 41.5704 165.435 41.5704 165.328V164.288C40.8877 164.021 40.1837 163.888 39.4584 163.888C38.7437 163.888 38.1624 164.032 37.7144 164.32C37.277 164.597 37.0584 164.981 37.0584 165.472C37.0584 165.739 37.1277 166 37.2664 166.256C37.4157 166.501 37.629 166.704 37.9064 166.864C38.1944 167.024 38.5464 167.104 38.9624 167.104C39.3997 167.104 39.8157 167.019 40.2104 166.848C40.605 166.667 40.9197 166.443 41.1544 166.176ZM49.9658 168V164.656C49.3151 164.965 48.5791 165.12 47.7578 165.12C45.9018 165.12 44.9738 164.171 44.9738 162.272V159.648H46.3818V162.08C46.3818 162.752 46.5204 163.243 46.7978 163.552C47.0751 163.861 47.5178 164.016 48.1258 164.016C48.4671 164.016 48.8031 163.979 49.1338 163.904C49.4751 163.829 49.7524 163.728 49.9658 163.6V159.648H51.3898V168H49.9658ZM57.3633 168.16C56.5313 168.16 55.7953 167.963 55.1553 167.568C54.5153 167.173 54.0139 166.645 53.6513 165.984C53.2886 165.323 53.1073 164.603 53.1073 163.824C53.1073 163.035 53.2886 162.315 53.6513 161.664C54.0139 161.013 54.5153 160.491 55.1553 160.096C55.8059 159.701 56.5473 159.504 57.3793 159.504C58.2219 159.504 58.9526 159.707 59.5713 160.112C60.2006 160.507 60.6859 161.029 61.0273 161.68C61.3793 162.32 61.5553 163.013 61.5553 163.76C61.5553 163.995 61.5446 164.176 61.5233 164.304H54.5953C54.6379 164.848 54.7873 165.333 55.0433 165.76C55.3099 166.176 55.6513 166.507 56.0673 166.752C56.4833 166.987 56.9313 167.104 57.4113 167.104C57.9233 167.104 58.4033 166.976 58.8513 166.72C59.3099 166.464 59.6246 166.128 59.7953 165.712L61.0113 166.048C60.7446 166.667 60.2806 167.173 59.6193 167.568C58.9579 167.963 58.2059 168.16 57.3633 168.16ZM54.5473 163.328H60.2433C60.2006 162.784 60.0459 162.304 59.7793 161.888C59.5126 161.472 59.1713 161.147 58.7553 160.912C58.3393 160.677 57.8806 160.56 57.3793 160.56C56.8886 160.56 56.4353 160.677 56.0193 160.912C55.6033 161.147 55.2619 161.472 54.9953 161.888C54.7393 162.304 54.5899 162.784 54.5473 163.328ZM63.1044 168V159.648H64.5124V163.104H68.8644V159.648H70.2724V168H68.8644V164.352H64.5124V168H63.1044ZM72.5263 168V159.648H73.9343V163.104H78.2863V159.648H79.6943V168H78.2863V164.352H73.9343V168H72.5263ZM81.3401 168L83.7081 164.64C83.1641 164.533 82.7268 164.277 82.3961 163.872C82.0655 163.456 81.9001 162.901 81.9001 162.208C81.9001 161.707 82.0175 161.264 82.2521 160.88C82.4868 160.496 82.8121 160.192 83.2281 159.968C83.6548 159.744 84.1508 159.632 84.7161 159.632H88.1401V168H86.7321V164.864H85.1001L82.8921 168H81.3401ZM84.8121 163.824H86.7321V160.736H84.9721C84.4708 160.736 84.0708 160.88 83.7721 161.168C83.4735 161.445 83.3241 161.803 83.3241 162.24C83.3241 162.677 83.4468 163.051 83.6921 163.36C83.9481 163.669 84.3215 163.824 84.8121 163.824ZM96.4961 168V160.896H93.6161V159.648H100.784V160.896H97.9041V168H96.4961ZM105.895 168.16C105.063 168.16 104.327 167.963 103.687 167.568C103.047 167.173 102.545 166.645 102.183 165.984C101.82 165.323 101.639 164.603 101.639 163.824C101.639 163.035 101.82 162.315 102.183 161.664C102.545 161.013 103.047 160.491 103.687 160.096C104.337 159.701 105.079 159.504 105.911 159.504C106.753 159.504 107.484 159.707 108.103 160.112C108.732 160.507 109.217 161.029 109.559 161.68C109.911 162.32 110.087 163.013 110.087 163.76C110.087 163.995 110.076 164.176 110.055 164.304H103.127C103.169 164.848 103.319 165.333 103.575 165.76C103.841 166.176 104.183 166.507 104.599 166.752C105.015 166.987 105.463 167.104 105.943 167.104C106.455 167.104 106.935 166.976 107.383 166.72C107.841 166.464 108.156 166.128 108.327 165.712L109.543 166.048C109.276 166.667 108.812 167.173 108.151 167.568C107.489 167.963 106.737 168.16 105.895 168.16ZM103.079 163.328H108.775C108.732 162.784 108.577 162.304 108.311 161.888C108.044 161.472 107.703 161.147 107.287 160.912C106.871 160.677 106.412 160.56 105.911 160.56C105.42 160.56 104.967 160.677 104.551 160.912C104.135 161.147 103.793 161.472 103.527 161.888C103.271 162.304 103.121 162.784 103.079 163.328ZM116.148 168.16C115.465 168.16 114.857 167.989 114.324 167.648C113.79 167.307 113.369 166.875 113.06 166.352V171.408H111.652V159.648H112.9V161.216C113.23 160.704 113.662 160.293 114.196 159.984C114.729 159.664 115.31 159.504 115.94 159.504C116.516 159.504 117.044 159.621 117.524 159.856C118.004 160.091 118.42 160.411 118.772 160.816C119.124 161.221 119.396 161.685 119.588 162.208C119.79 162.72 119.892 163.259 119.892 163.824C119.892 164.613 119.732 165.339 119.412 166C119.102 166.661 118.665 167.189 118.1 167.584C117.534 167.968 116.884 168.16 116.148 168.16ZM115.716 166.944C116.27 166.944 116.75 166.795 117.156 166.496C117.561 166.197 117.876 165.808 118.1 165.328C118.334 164.848 118.452 164.347 118.452 163.824C118.452 163.259 118.324 162.741 118.068 162.272C117.822 161.803 117.481 161.429 117.044 161.152C116.617 160.864 116.132 160.72 115.588 160.72C115.257 160.72 114.905 160.805 114.532 160.976C114.169 161.147 113.849 161.376 113.572 161.664C113.305 161.941 113.134 162.251 113.06 162.592V164.976C113.294 165.531 113.652 166 114.132 166.384C114.622 166.757 115.15 166.944 115.716 166.944ZM121.604 168V159.648H123.06L126.164 165.12L129.284 159.648H130.708V168H129.364V161.68L126.612 166.512H125.716L122.948 161.68V168H121.604ZM132.98 158.08V156.32H134.388V158.08H132.98ZM132.98 168V159.648H134.388V168H132.98ZM136.651 168V159.648H138.059V163.104H142.411V159.648H143.819V168H142.411V164.352H138.059V168H136.651ZM146.089 158.08V156.32H147.497V158.08H146.089ZM146.089 168V159.648H147.497V168H146.089ZM149.761 168V159.648H154.081C154.582 159.648 154.998 159.749 155.329 159.952C155.659 160.144 155.905 160.395 156.065 160.704C156.235 161.013 156.321 161.344 156.321 161.696C156.321 162.144 156.214 162.549 156.001 162.912C155.787 163.264 155.478 163.531 155.073 163.712C155.553 163.851 155.942 164.101 156.241 164.464C156.539 164.816 156.689 165.253 156.689 165.776C156.689 166.48 156.438 167.029 155.937 167.424C155.446 167.808 154.801 168 154.001 168H149.761ZM151.105 163.328H153.713C154.086 163.328 154.39 163.189 154.625 162.912C154.87 162.624 154.993 162.299 154.993 161.936C154.993 161.584 154.875 161.28 154.641 161.024C154.417 160.768 154.123 160.64 153.761 160.64H151.105V163.328ZM151.105 167.008H153.969C154.353 167.008 154.673 166.869 154.929 166.592C155.195 166.315 155.329 165.995 155.329 165.632C155.329 165.259 155.201 164.939 154.945 164.672C154.699 164.395 154.39 164.256 154.017 164.256H151.105V167.008ZM158.528 169.296L158.848 167.872H158.368V166.208H159.696V167.872L159.216 169.296H158.528ZM165.886 168V159.648H167.294V163.088H168.222L170.846 159.648H172.446L169.326 163.696L172.814 168H171.182L168.222 164.384H167.294V168H165.886ZM177.409 168.16C176.577 168.16 175.841 167.963 175.201 167.568C174.572 167.163 174.081 166.635 173.729 165.984C173.377 165.323 173.201 164.608 173.201 163.84C173.201 163.061 173.377 162.347 173.729 161.696C174.092 161.035 174.588 160.507 175.217 160.112C175.857 159.707 176.588 159.504 177.409 159.504C178.241 159.504 178.972 159.707 179.601 160.112C180.241 160.507 180.737 161.035 181.089 161.696C181.452 162.347 181.633 163.061 181.633 163.84C181.633 164.608 181.452 165.323 181.089 165.984C180.737 166.635 180.246 167.163 179.617 167.568C178.988 167.963 178.252 168.16 177.409 168.16ZM174.641 163.856C174.641 164.432 174.764 164.955 175.009 165.424C175.265 165.893 175.601 166.267 176.017 166.544C176.433 166.811 176.897 166.944 177.409 166.944C177.921 166.944 178.385 166.805 178.801 166.528C179.228 166.251 179.564 165.877 179.809 165.408C180.065 164.928 180.193 164.4 180.193 163.824C180.193 163.248 180.065 162.725 179.809 162.256C179.564 161.787 179.228 161.413 178.801 161.136C178.385 160.859 177.921 160.72 177.409 160.72C176.897 160.72 176.433 160.864 176.017 161.152C175.601 161.429 175.265 161.803 175.009 162.272C174.764 162.741 174.641 163.269 174.641 163.856ZM183.323 168V159.648H184.779L187.883 165.12L191.003 159.648H192.427V168H191.083V161.68L188.331 166.512H187.435L184.667 161.68V168H183.323ZM194.043 165.584C194.043 165.051 194.192 164.592 194.491 164.208C194.8 163.813 195.221 163.509 195.755 163.296C196.288 163.083 196.907 162.976 197.611 162.976C197.984 162.976 198.379 163.008 198.795 163.072C199.211 163.125 199.579 163.211 199.899 163.328V162.72C199.899 162.08 199.707 161.579 199.323 161.216C198.939 160.843 198.395 160.656 197.691 160.656C197.232 160.656 196.789 160.741 196.363 160.912C195.947 161.072 195.504 161.307 195.035 161.616L194.523 160.624C195.067 160.251 195.611 159.973 196.155 159.792C196.699 159.6 197.264 159.504 197.851 159.504C198.917 159.504 199.76 159.803 200.379 160.4C200.997 160.987 201.307 161.808 201.307 162.864V166.4C201.307 166.731 201.456 166.901 201.755 166.912V168C201.616 168.021 201.493 168.037 201.387 168.048C201.291 168.059 201.211 168.064 201.147 168.064C200.816 168.064 200.565 167.973 200.395 167.792C200.235 167.611 200.144 167.419 200.123 167.216L200.091 166.688C199.728 167.157 199.253 167.52 198.667 167.776C198.08 168.032 197.499 168.16 196.923 168.16C196.368 168.16 195.872 168.048 195.435 167.824C194.997 167.589 194.656 167.28 194.411 166.896C194.165 166.501 194.043 166.064 194.043 165.584ZM199.483 166.176C199.611 166.027 199.712 165.877 199.787 165.728C199.861 165.568 199.899 165.435 199.899 165.328V164.288C199.216 164.021 198.512 163.888 197.786 163.888C197.072 163.888 196.491 164.032 196.043 164.32C195.605 164.597 195.387 164.981 195.387 165.472C195.387 165.739 195.456 166 195.595 166.256C195.744 166.501 195.957 166.704 196.235 166.864C196.523 167.024 196.875 167.104 197.291 167.104C197.728 167.104 198.144 167.019 198.539 166.848C198.933 166.667 199.248 166.443 199.483 166.176ZM203.542 168V159.648H204.95V163.104H209.302V159.648H210.71V168H209.302V164.352H204.95V168H203.542ZM212.052 169.968V166.752H212.228C212.537 166.752 212.814 166.624 213.06 166.368C213.316 166.101 213.524 165.632 213.684 164.96C213.844 164.277 213.94 163.312 213.972 162.064L214.052 159.648H219.732V166.752H220.868V169.968H219.62V168H213.3V169.968H212.052ZM214.196 166.752H218.324V160.896H215.3L215.252 162.192C215.209 163.557 215.097 164.592 214.916 165.296C214.745 166 214.505 166.485 214.196 166.752ZM221.777 165.584C221.777 165.051 221.926 164.592 222.225 164.208C222.534 163.813 222.956 163.509 223.489 163.296C224.022 163.083 224.641 162.976 225.345 162.976C225.718 162.976 226.113 163.008 226.529 163.072C226.945 163.125 227.313 163.211 227.633 163.328V162.72C227.633 162.08 227.441 161.579 227.057 161.216C226.673 160.843 226.129 160.656 225.425 160.656C224.966 160.656 224.524 160.741 224.097 160.912C223.681 161.072 223.238 161.307 222.769 161.616L222.257 160.624C222.801 160.251 223.345 159.973 223.889 159.792C224.433 159.6 224.998 159.504 225.585 159.504C226.652 159.504 227.494 159.803 228.113 160.4C228.732 160.987 229.041 161.808 229.041 162.864V166.4C229.041 166.731 229.19 166.901 229.489 166.912V168C229.35 168.021 229.228 168.037 229.121 168.048C229.025 168.059 228.945 168.064 228.881 168.064C228.55 168.064 228.3 167.973 228.129 167.792C227.969 167.611 227.878 167.419 227.857 167.216L227.825 166.688C227.462 167.157 226.988 167.52 226.401 167.776C225.814 168.032 225.233 168.16 224.657 168.16C224.102 168.16 223.606 168.048 223.169 167.824C222.732 167.589 222.39 167.28 222.145 166.896C221.9 166.501 221.777 166.064 221.777 165.584ZM227.217 166.176C227.345 166.027 227.446 165.877 227.521 165.728C227.596 165.568 227.633 165.435 227.633 165.328V164.288C226.95 164.021 226.246 163.888 225.521 163.888C224.806 163.888 224.225 164.032 223.777 164.32C223.34 164.597 223.121 164.981 223.121 165.472C223.121 165.739 223.19 166 223.329 166.256C223.478 166.501 223.692 166.704 223.969 166.864C224.257 167.024 224.609 167.104 225.025 167.104C225.462 167.104 225.878 167.019 226.273 166.848C226.668 166.667 226.982 166.443 227.217 166.176ZM1.36 191V179.64H6.096C6.59733 179.64 7.056 179.747 7.472 179.96C7.888 180.163 8.25067 180.44 8.56 180.792C8.86933 181.133 9.10933 181.523 9.28 181.96C9.45067 182.387 9.536 182.824 9.536 183.272C9.536 183.891 9.39733 184.483 9.12 185.048C8.84267 185.603 8.45333 186.056 7.952 186.408C7.45067 186.749 6.864 186.92 6.192 186.92H2.8V191H1.36ZM2.8 185.64H6.112C6.50667 185.64 6.848 185.533 7.136 185.32C7.43467 185.107 7.664 184.819 7.824 184.456C7.99467 184.093 8.08 183.699 8.08 183.272C8.08 182.824 7.984 182.424 7.792 182.072C7.6 181.709 7.34933 181.427 7.04 181.224C6.73067 181.021 6.38933 180.92 6.016 180.92H2.8V185.64ZM11.1048 181.08V179.32H12.5128V181.08H11.1048ZM11.1048 191V182.648H12.5128V191H11.1048ZM14.7763 191V182.648H16.1843V186.104H20.5363V182.648H21.9443V191H20.5363V187.352H16.1843V191H14.7763ZM24.1981 191V182.648H29.3501V183.896H25.6061V191H24.1981ZM34.4403 191.16C33.6083 191.16 32.8723 190.963 32.2323 190.568C31.6029 190.163 31.1123 189.635 30.7603 188.984C30.4083 188.323 30.2323 187.608 30.2323 186.84C30.2323 186.061 30.4083 185.347 30.7603 184.696C31.1229 184.035 31.6189 183.507 32.2483 183.112C32.8883 182.707 33.6189 182.504 34.4403 182.504C35.2723 182.504 36.0029 182.707 36.6323 183.112C37.2723 183.507 37.7683 184.035 38.1203 184.696C38.4829 185.347 38.6643 186.061 38.6643 186.84C38.6643 187.608 38.4829 188.323 38.1203 188.984C37.7683 189.635 37.2776 190.163 36.6483 190.568C36.0189 190.963 35.2829 191.16 34.4403 191.16ZM31.6723 186.856C31.6723 187.432 31.7949 187.955 32.0403 188.424C32.2963 188.893 32.6323 189.267 33.0483 189.544C33.4643 189.811 33.9283 189.944 34.4403 189.944C34.9523 189.944 35.4163 189.805 35.8323 189.528C36.2589 189.251 36.5949 188.877 36.8403 188.408C37.0963 187.928 37.2243 187.4 37.2243 186.824C37.2243 186.248 37.0963 185.725 36.8403 185.256C36.5949 184.787 36.2589 184.413 35.8323 184.136C35.4163 183.859 34.9523 183.72 34.4403 183.72C33.9283 183.72 33.4643 183.864 33.0483 184.152C32.6323 184.429 32.2963 184.803 32.0403 185.272C31.7949 185.741 31.6723 186.269 31.6723 186.856ZM44.4013 191V182.648H51.3293V191H49.9213V183.896H45.8093V191H44.4013ZM58.1008 191.16C57.4181 191.16 56.8101 190.989 56.2768 190.648C55.7434 190.307 55.3221 189.875 55.0128 189.352V194.408H53.6048V182.648H54.8528V184.216C55.1834 183.704 55.6154 183.293 56.1488 182.984C56.6821 182.664 57.2634 182.504 57.8928 182.504C58.4688 182.504 58.9968 182.621 59.4768 182.856C59.9568 183.091 60.3728 183.411 60.7248 183.816C61.0768 184.221 61.3488 184.685 61.5408 185.208C61.7434 185.72 61.8448 186.259 61.8448 186.824C61.8448 187.613 61.6848 188.339 61.3648 189C61.0554 189.661 60.6181 190.189 60.0528 190.584C59.4874 190.968 58.8368 191.16 58.1008 191.16ZM57.6688 189.944C58.2234 189.944 58.7034 189.795 59.1088 189.496C59.5141 189.197 59.8288 188.808 60.0528 188.328C60.2874 187.848 60.4048 187.347 60.4048 186.824C60.4048 186.259 60.2768 185.741 60.0208 185.272C59.7754 184.803 59.4341 184.429 58.9968 184.152C58.5701 183.864 58.0848 183.72 57.5408 183.72C57.2101 183.72 56.8581 183.805 56.4848 183.976C56.1221 184.147 55.8021 184.376 55.5248 184.664C55.2581 184.941 55.0874 185.251 55.0128 185.592V187.976C55.2474 188.531 55.6048 189 56.0848 189.384C56.5754 189.757 57.1034 189.944 57.6688 189.944ZM63.5575 191V182.664H64.9655V189.112L69.6375 182.648H70.9175V191H69.5095V184.68L64.9015 191H63.5575ZM76.8633 191.16C76.0313 191.16 75.2953 190.963 74.6553 190.568C74.0153 190.163 73.5139 189.629 73.1513 188.968C72.7886 188.307 72.6073 187.587 72.6073 186.808C72.6073 186.019 72.7833 185.299 73.1353 184.648C73.4873 183.997 73.9833 183.48 74.6233 183.096C75.2633 182.701 76.0046 182.504 76.8473 182.504C77.6686 182.504 78.3833 182.691 78.9913 183.064C79.6099 183.427 80.0686 183.917 80.3673 184.536L78.9913 184.968C78.7779 184.573 78.4793 184.269 78.0953 184.056C77.7113 183.832 77.2846 183.72 76.8153 183.72C76.3033 183.72 75.8339 183.853 75.4073 184.12C74.9913 184.387 74.6606 184.755 74.4153 185.224C74.1699 185.683 74.0473 186.211 74.0473 186.808C74.0473 187.395 74.1699 187.928 74.4153 188.408C74.6713 188.877 75.0073 189.251 75.4233 189.528C75.8499 189.805 76.3193 189.944 76.8313 189.944C77.1619 189.944 77.4766 189.885 77.7753 189.768C78.0846 189.651 78.3513 189.496 78.5753 189.304C78.8099 189.101 78.9699 188.883 79.0553 188.648L80.4313 189.064C80.1859 189.672 79.7379 190.173 79.0873 190.568C78.4473 190.963 77.7059 191.16 76.8633 191.16ZM84.0586 191V183.896H81.1786V182.648H88.3466V183.896H85.4666V191H84.0586ZM90.801 194.504C90.449 194.504 90.0757 194.397 89.681 194.184L90.161 193.224C90.3423 193.331 90.5237 193.384 90.705 193.384C91.2277 193.384 91.6863 192.899 92.081 191.928L92.481 190.92L88.817 182.648H90.305L93.121 189.576L95.665 182.648H97.057L93.153 192.36C92.865 193.075 92.5183 193.608 92.113 193.96C91.7077 194.323 91.2703 194.504 90.801 194.504ZM98.4638 191V182.648H105.392V191H103.984V183.896H99.8718V191H98.4638ZM107.011 188.584C107.011 188.051 107.161 187.592 107.459 187.208C107.769 186.813 108.19 186.509 108.723 186.296C109.257 186.083 109.875 185.976 110.579 185.976C110.953 185.976 111.347 186.008 111.763 186.072C112.179 186.125 112.547 186.211 112.867 186.328V185.72C112.867 185.08 112.675 184.579 112.291 184.216C111.907 183.843 111.363 183.656 110.659 183.656C110.201 183.656 109.758 183.741 109.331 183.912C108.915 184.072 108.473 184.307 108.003 184.616L107.491 183.624C108.035 183.251 108.579 182.973 109.123 182.792C109.667 182.6 110.233 182.504 110.819 182.504C111.886 182.504 112.729 182.803 113.347 183.4C113.966 183.987 114.275 184.808 114.275 185.864V189.4C114.275 189.731 114.425 189.901 114.723 189.912V191C114.585 191.021 114.462 191.037 114.355 191.048C114.259 191.059 114.179 191.064 114.115 191.064C113.785 191.064 113.534 190.973 113.363 190.792C113.203 190.611 113.113 190.419 113.091 190.216L113.059 189.688C112.697 190.157 112.222 190.52 111.635 190.776C111.049 191.032 110.467 191.16 109.891 191.16C109.337 191.16 108.841 191.048 108.403 190.824C107.966 190.589 107.625 190.28 107.379 189.896C107.134 189.501 107.011 189.064 107.011 188.584ZM112.451 189.176C112.579 189.027 112.681 188.877 112.755 188.728C112.83 188.568 112.867 188.435 112.867 188.328V187.288C112.185 187.021 111.481 186.888 110.755 186.888C110.041 186.888 109.459 187.032 109.011 187.32C108.574 187.597 108.355 187.981 108.355 188.472C108.355 188.739 108.425 189 108.563 189.256C108.713 189.501 108.926 189.704 109.203 189.864C109.491 190.024 109.843 190.104 110.259 190.104C110.697 190.104 111.113 190.019 111.507 189.848C111.902 189.667 112.217 189.443 112.451 189.176ZM120.191 191.144C119.54 191.144 118.953 191.021 118.431 190.776C117.919 190.531 117.476 190.205 117.103 189.8C116.74 189.384 116.457 188.92 116.255 188.408C116.063 187.885 115.967 187.347 115.967 186.792C115.967 186.259 116.057 185.736 116.239 185.224C116.431 184.712 116.708 184.253 117.071 183.848C117.433 183.432 117.876 183.107 118.399 182.872C118.932 182.627 119.54 182.504 120.223 182.504C121.044 182.504 121.748 182.68 122.335 183.032C122.921 183.384 123.364 183.848 123.663 184.424L122.591 184.984C122.324 184.504 121.983 184.163 121.567 183.96C121.161 183.757 120.724 183.656 120.255 183.656C119.711 183.656 119.236 183.784 118.831 184.04C118.425 184.285 118.105 184.611 117.871 185.016C117.636 185.411 117.487 185.832 117.423 186.28H121.023V187.24H117.423C117.476 187.741 117.631 188.205 117.887 188.632C118.143 189.048 118.479 189.384 118.895 189.64C119.311 189.885 119.775 190.008 120.287 190.008C120.756 190.008 121.204 189.896 121.631 189.672C122.068 189.437 122.42 189.08 122.687 188.6L123.823 189.128C123.503 189.768 123.007 190.264 122.335 190.616C121.673 190.968 120.959 191.144 120.191 191.144ZM128.63 192.968V189.752H128.806C129.115 189.752 129.393 189.624 129.638 189.368C129.894 189.101 130.102 188.632 130.262 187.96C130.422 187.277 130.518 186.312 130.55 185.064L130.63 182.648H136.31V189.752H137.446V192.968H136.198V191H129.878V192.968H128.63ZM130.774 189.752H134.902V183.896H131.878L131.83 185.192C131.787 186.557 131.675 187.592 131.494 188.296C131.323 189 131.083 189.485 130.774 189.752ZM142.659 191.16C141.827 191.16 141.091 190.963 140.451 190.568C139.822 190.163 139.331 189.635 138.979 188.984C138.627 188.323 138.451 187.608 138.451 186.84C138.451 186.061 138.627 185.347 138.979 184.696C139.342 184.035 139.838 183.507 140.467 183.112C141.107 182.707 141.838 182.504 142.659 182.504C143.491 182.504 144.222 182.707 144.851 183.112C145.491 183.507 145.987 184.035 146.339 184.696C146.702 185.347 146.883 186.061 146.883 186.84C146.883 187.608 146.702 188.323 146.339 188.984C145.987 189.635 145.496 190.163 144.867 190.568C144.238 190.963 143.502 191.16 142.659 191.16ZM139.891 186.856C139.891 187.432 140.014 187.955 140.259 188.424C140.515 188.893 140.851 189.267 141.267 189.544C141.683 189.811 142.147 189.944 142.659 189.944C143.171 189.944 143.635 189.805 144.051 189.528C144.478 189.251 144.814 188.877 145.059 188.408C145.315 187.928 145.443 187.4 145.443 186.824C145.443 186.248 145.315 185.725 145.059 185.256C144.814 184.787 144.478 184.413 144.051 184.136C143.635 183.859 143.171 183.72 142.659 183.72C142.147 183.72 141.683 183.864 141.267 184.152C140.851 184.429 140.515 184.803 140.259 185.272C140.014 185.741 139.891 186.269 139.891 186.856ZM1.12 214V205.648H2.528V209.104H6.88V205.648H8.288V214H6.88V210.352H2.528V214H1.12ZM9.90188 211.584C9.90188 211.051 10.0512 210.592 10.3499 210.208C10.6592 209.813 11.0805 209.509 11.6139 209.296C12.1472 209.083 12.7659 208.976 13.4699 208.976C13.8432 208.976 14.2379 209.008 14.6539 209.072C15.0699 209.125 15.4379 209.211 15.7579 209.328V208.72C15.7579 208.08 15.5659 207.579 15.1819 207.216C14.7979 206.843 14.2539 206.656 13.5499 206.656C13.0912 206.656 12.6485 206.741 12.2219 206.912C11.8059 207.072 11.3632 207.307 10.8939 207.616L10.3819 206.624C10.9259 206.251 11.4699 205.973 12.0139 205.792C12.5579 205.6 13.1232 205.504 13.7099 205.504C14.7765 205.504 15.6192 205.803 16.2379 206.4C16.8565 206.987 17.1659 207.808 17.1659 208.864V212.4C17.1659 212.731 17.3152 212.901 17.6139 212.912V214C17.4752 214.021 17.3525 214.037 17.2459 214.048C17.1499 214.059 17.0699 214.064 17.0059 214.064C16.6752 214.064 16.4245 213.973 16.2539 213.792C16.0939 213.611 16.0032 213.419 15.9819 213.216L15.9499 212.688C15.5872 213.157 15.1125 213.52 14.5259 213.776C13.9392 214.032 13.3579 214.16 12.7819 214.16C12.2272 214.16 11.7312 214.048 11.2939 213.824C10.8565 213.589 10.5152 213.28 10.2699 212.896C10.0245 212.501 9.90188 212.064 9.90188 211.584ZM15.3419 212.176C15.4699 212.027 15.5712 211.877 15.6459 211.728C15.7205 211.568 15.7579 211.435 15.7579 211.328V210.288C15.0752 210.021 14.3712 209.888 13.6459 209.888C12.9312 209.888 12.3499 210.032 11.9019 210.32C11.4645 210.597 11.2459 210.981 11.2459 211.472C11.2459 211.739 11.3152 212 11.4539 212.256C11.6032 212.501 11.8165 212.704 12.0939 212.864C12.3819 213.024 12.7339 213.104 13.1499 213.104C13.5872 213.104 14.0032 213.019 14.3979 212.848C14.7925 212.667 15.1072 212.443 15.3419 212.176ZM19.4013 214V205.664H20.8093V212.112L25.4813 205.648H26.7613V214H25.3533V207.68L20.7453 214H19.4013ZM23.0973 204.704C22.3293 204.704 21.7479 204.523 21.3533 204.16C20.9586 203.787 20.7613 203.328 20.7613 202.784H21.7533C21.7533 203.083 21.8546 203.333 22.0573 203.536C22.2706 203.728 22.6173 203.824 23.0973 203.824C23.5666 203.824 23.8973 203.733 24.0893 203.552C24.2813 203.36 24.3986 203.104 24.4413 202.784H25.4333C25.4333 203.328 25.2359 203.787 24.8413 204.16C24.4466 204.523 23.8653 204.704 23.0973 204.704ZM35.587 215.968V214H28.995V205.648H30.403V212.768H34.275V205.648H35.683V212.768H36.835V215.968H35.587ZM38.4016 204.08V202.32H39.8096V204.08H38.4016ZM38.4016 214V205.648H39.8096V214H38.4016ZM42.0731 214V205.648H43.4811V209.088H44.4091L47.0331 205.648H48.6331L45.5131 209.696L49.0011 214H47.3691L44.4091 210.384H43.4811V214H42.0731ZM49.73 211.584C49.73 211.051 49.8793 210.592 50.178 210.208C50.4873 209.813 50.9087 209.509 51.442 209.296C51.9753 209.083 52.594 208.976 53.298 208.976C53.6713 208.976 54.066 209.008 54.482 209.072C54.898 209.125 55.266 209.211 55.586 209.328V208.72C55.586 208.08 55.394 207.579 55.01 207.216C54.626 206.843 54.082 206.656 53.378 206.656C52.9193 206.656 52.4767 206.741 52.05 206.912C51.634 207.072 51.1913 207.307 50.722 207.616L50.21 206.624C50.754 206.251 51.298 205.973 51.842 205.792C52.386 205.6 52.9513 205.504 53.538 205.504C54.6047 205.504 55.4473 205.803 56.066 206.4C56.6847 206.987 56.994 207.808 56.994 208.864V212.4C56.994 212.731 57.1433 212.901 57.442 212.912V214C57.3033 214.021 57.1807 214.037 57.074 214.048C56.978 214.059 56.898 214.064 56.834 214.064C56.5033 214.064 56.2527 213.973 56.082 213.792C55.922 213.611 55.8313 213.419 55.81 213.216L55.778 212.688C55.4153 213.157 54.9407 213.52 54.354 213.776C53.7673 214.032 53.186 214.16 52.61 214.16C52.0553 214.16 51.5593 214.048 51.122 213.824C50.6847 213.589 50.3433 213.28 50.098 212.896C49.8527 212.501 49.73 212.064 49.73 211.584ZM55.17 212.176C55.298 212.027 55.3993 211.877 55.474 211.728C55.5487 211.568 55.586 211.435 55.586 211.328V210.288C54.9033 210.021 54.1993 209.888 53.474 209.888C52.7593 209.888 52.178 210.032 51.73 210.32C51.2927 210.597 51.074 210.981 51.074 211.472C51.074 211.739 51.1433 212 51.282 212.256C51.4313 212.501 51.6447 212.704 51.922 212.864C52.21 213.024 52.562 213.104 52.978 213.104C53.4153 213.104 53.8313 213.019 54.226 212.848C54.6207 212.667 54.9353 212.443 55.17 212.176ZM59.2294 214V205.648H63.5494C64.0507 205.648 64.4667 205.749 64.7974 205.952C65.128 206.144 65.3734 206.395 65.5334 206.704C65.704 207.013 65.7894 207.344 65.7894 207.696C65.7894 208.144 65.6827 208.549 65.4694 208.912C65.256 209.264 64.9467 209.531 64.5414 209.712C65.0214 209.851 65.4107 210.101 65.7094 210.464C66.008 210.816 66.1574 211.253 66.1574 211.776C66.1574 212.48 65.9067 213.029 65.4054 213.424C64.9147 213.808 64.2694 214 63.4694 214H59.2294ZM60.5734 209.328H63.1814C63.5547 209.328 63.8587 209.189 64.0934 208.912C64.3387 208.624 64.4614 208.299 64.4614 207.936C64.4614 207.584 64.344 207.28 64.1094 207.024C63.8854 206.768 63.592 206.64 63.2294 206.64H60.5734V209.328ZM60.5734 213.008H63.4374C63.8214 213.008 64.1414 212.869 64.3974 212.592C64.664 212.315 64.7974 211.995 64.7974 211.632C64.7974 211.259 64.6694 210.939 64.4134 210.672C64.168 210.395 63.8587 210.256 63.4854 210.256H60.5734V213.008ZM67.9485 204.08V202.32H69.3565V204.08H67.9485ZM67.9485 214V205.648H69.3565V214H67.9485ZM71.62 214V205.648H73.028V212.768H76.324V205.648H77.748V212.768H81.028V205.648H82.436V214H71.62ZM88.3621 214.16C87.5301 214.16 86.7941 213.963 86.1541 213.568C85.5248 213.163 85.0341 212.635 84.6821 211.984C84.3301 211.323 84.1541 210.608 84.1541 209.84C84.1541 209.061 84.3301 208.347 84.6821 207.696C85.0448 207.035 85.5408 206.507 86.1701 206.112C86.8101 205.707 87.5408 205.504 88.3621 205.504C89.1941 205.504 89.9248 205.707 90.5541 206.112C91.1941 206.507 91.6901 207.035 92.0421 207.696C92.4048 208.347 92.5861 209.061 92.5861 209.84C92.5861 210.608 92.4048 211.323 92.0421 211.984C91.6901 212.635 91.1995 213.163 90.5701 213.568C89.9408 213.963 89.2048 214.16 88.3621 214.16ZM85.5941 209.856C85.5941 210.432 85.7168 210.955 85.9621 211.424C86.2181 211.893 86.5541 212.267 86.9701 212.544C87.3861 212.811 87.8501 212.944 88.3621 212.944C88.8741 212.944 89.3381 212.805 89.7541 212.528C90.1808 212.251 90.5168 211.877 90.7621 211.408C91.0181 210.928 91.1461 210.4 91.1461 209.824C91.1461 209.248 91.0181 208.725 90.7621 208.256C90.5168 207.787 90.1808 207.413 89.7541 207.136C89.3381 206.859 88.8741 206.72 88.3621 206.72C87.8501 206.72 87.3861 206.864 86.9701 207.152C86.5541 207.429 86.2181 207.803 85.9621 208.272C85.7168 208.741 85.5941 209.269 85.5941 209.856ZM94.2763 214V205.648H99.4283V206.896H95.6843V214H94.2763ZM104.518 214.16C103.686 214.16 102.95 213.963 102.31 213.568C101.681 213.163 101.19 212.635 100.838 211.984C100.486 211.323 100.31 210.608 100.31 209.84C100.31 209.061 100.486 208.347 100.838 207.696C101.201 207.035 101.697 206.507 102.326 206.112C102.966 205.707 103.697 205.504 104.518 205.504C105.35 205.504 106.081 205.707 106.71 206.112C107.35 206.507 107.846 207.035 108.198 207.696C108.561 208.347 108.742 209.061 108.742 209.84C108.742 210.608 108.561 211.323 108.198 211.984C107.846 212.635 107.356 213.163 106.726 213.568C106.097 213.963 105.361 214.16 104.518 214.16ZM101.75 209.856C101.75 210.432 101.873 210.955 102.118 211.424C102.374 211.893 102.71 212.267 103.126 212.544C103.542 212.811 104.006 212.944 104.518 212.944C105.03 212.944 105.494 212.805 105.91 212.528C106.337 212.251 106.673 211.877 106.918 211.408C107.174 210.928 107.302 210.4 107.302 209.824C107.302 209.248 107.174 208.725 106.918 208.256C106.673 207.787 106.337 207.413 105.91 207.136C105.494 206.859 105.03 206.72 104.518 206.72C104.006 206.72 103.542 206.864 103.126 207.152C102.71 207.429 102.374 207.803 102.118 208.272C101.873 208.741 101.75 209.269 101.75 209.856ZM114.383 210.272V208.992H119.103V210.272H114.383ZM125.292 214V205.648H129.612C130.113 205.648 130.529 205.749 130.86 205.952C131.191 206.144 131.436 206.395 131.596 206.704C131.767 207.013 131.852 207.344 131.852 207.696C131.852 208.144 131.745 208.549 131.532 208.912C131.319 209.264 131.009 209.531 130.604 209.712C131.084 209.851 131.473 210.101 131.772 210.464C132.071 210.816 132.22 211.253 132.22 211.776C132.22 212.48 131.969 213.029 131.468 213.424C130.977 213.808 130.332 214 129.532 214H125.292ZM126.636 209.328H129.244C129.617 209.328 129.921 209.189 130.156 208.912C130.401 208.624 130.524 208.299 130.524 207.936C130.524 207.584 130.407 207.28 130.172 207.024C129.948 206.768 129.655 206.64 129.292 206.64H126.636V209.328ZM126.636 213.008H129.5C129.884 213.008 130.204 212.869 130.46 212.592C130.727 212.315 130.86 211.995 130.86 211.632C130.86 211.259 130.732 210.939 130.476 210.672C130.231 210.395 129.921 210.256 129.548 210.256H126.636V213.008ZM133.995 214V205.664H135.403V212.112L140.075 205.648H141.355V214H139.947V207.68L135.339 214H133.995ZM148.101 214.16C147.418 214.16 146.81 213.989 146.277 213.648C145.743 213.307 145.322 212.875 145.013 212.352V217.408H143.605V205.648H144.853V207.216C145.183 206.704 145.615 206.293 146.149 205.984C146.682 205.664 147.263 205.504 147.893 205.504C148.469 205.504 148.997 205.621 149.477 205.856C149.957 206.091 150.373 206.411 150.725 206.816C151.077 207.221 151.349 207.685 151.541 208.208C151.743 208.72 151.845 209.259 151.845 209.824C151.845 210.613 151.685 211.339 151.365 212C151.055 212.661 150.618 213.189 150.053 213.584C149.487 213.968 148.837 214.16 148.101 214.16ZM147.669 212.944C148.223 212.944 148.703 212.795 149.109 212.496C149.514 212.197 149.829 211.808 150.053 211.328C150.287 210.848 150.405 210.347 150.405 209.824C150.405 209.259 150.277 208.741 150.021 208.272C149.775 207.803 149.434 207.429 148.997 207.152C148.57 206.864 148.085 206.72 147.541 206.72C147.21 206.72 146.858 206.805 146.485 206.976C146.122 207.147 145.802 207.376 145.525 207.664C145.258 207.941 145.087 208.251 145.013 208.592V210.976C145.247 211.531 145.605 212 146.085 212.384C146.575 212.757 147.103 212.944 147.669 212.944ZM157.222 214.16C156.39 214.16 155.654 213.963 155.014 213.568C154.384 213.163 153.894 212.635 153.542 211.984C153.19 211.323 153.014 210.608 153.014 209.84C153.014 209.061 153.19 208.347 153.542 207.696C153.904 207.035 154.4 206.507 155.03 206.112C155.67 205.707 156.4 205.504 157.222 205.504C158.054 205.504 158.784 205.707 159.414 206.112C160.054 206.507 160.55 207.035 160.902 207.696C161.264 208.347 161.446 209.061 161.446 209.84C161.446 210.608 161.264 211.323 160.902 211.984C160.55 212.635 160.059 213.163 159.43 213.568C158.8 213.963 158.064 214.16 157.222 214.16ZM154.454 209.856C154.454 210.432 154.576 210.955 154.822 211.424C155.078 211.893 155.414 212.267 155.83 212.544C156.246 212.811 156.71 212.944 157.222 212.944C157.734 212.944 158.198 212.805 158.614 212.528C159.04 212.251 159.376 211.877 159.622 211.408C159.878 210.928 160.006 210.4 160.006 209.824C160.006 209.248 159.878 208.725 159.622 208.256C159.376 207.787 159.04 207.413 158.614 207.136C158.198 206.859 157.734 206.72 157.222 206.72C156.71 206.72 156.246 206.864 155.83 207.152C155.414 207.429 155.078 207.803 154.822 208.272C154.576 208.741 154.454 209.269 154.454 209.856ZM167.088 214.16C165.712 214.16 164.672 213.744 163.968 212.912C163.264 212.08 162.912 210.907 162.912 209.392C162.912 208.357 162.997 207.488 163.168 206.784C163.338 206.069 163.594 205.483 163.936 205.024C164.277 204.555 164.698 204.176 165.2 203.888C165.701 203.589 166.277 203.344 166.928 203.152L170.464 202.08L170.544 203.296L167.104 204.336C166.517 204.528 166.026 204.773 165.632 205.072C165.237 205.371 164.928 205.755 164.704 206.224C164.48 206.693 164.33 207.296 164.256 208.032C164.533 207.467 164.949 207.029 165.504 206.72C166.058 206.4 166.704 206.24 167.44 206.24C168.229 206.24 168.906 206.405 169.472 206.736C170.048 207.056 170.485 207.509 170.784 208.096C171.093 208.672 171.248 209.339 171.248 210.096C171.248 210.907 171.088 211.616 170.768 212.224C170.448 212.832 169.978 213.307 169.36 213.648C168.741 213.989 167.984 214.16 167.088 214.16ZM167.088 212.944C167.952 212.944 168.618 212.693 169.088 212.192C169.568 211.68 169.808 211.003 169.808 210.16C169.808 209.339 169.573 208.672 169.104 208.16C168.634 207.648 167.962 207.392 167.088 207.392C166.309 207.392 165.658 207.632 165.136 208.112C164.624 208.592 164.368 209.275 164.368 210.16C164.368 210.971 164.602 211.637 165.072 212.16C165.541 212.683 166.213 212.944 167.088 212.944ZM172.948 214V205.648H174.356V209.104H178.708V205.648H180.116V214H178.708V210.352H174.356V214H172.948ZM182.37 214V205.664H183.778V212.112L188.45 205.648H189.73V214H188.322V207.68L183.714 214H182.37ZM198.556 215.968V214H191.964V205.648H193.372V212.768H197.244V205.648H198.652V212.768H199.804V215.968H198.556ZM203.402 214V206.896H200.522V205.648H207.69V206.896H204.81V214H203.402ZM209.089 214V205.648H213.409C213.91 205.648 214.326 205.749 214.657 205.952C214.987 206.144 215.233 206.395 215.393 206.704C215.563 207.013 215.649 207.344 215.649 207.696C215.649 208.144 215.542 208.549 215.329 208.912C215.115 209.264 214.806 209.531 214.401 209.712C214.881 209.851 215.27 210.101 215.569 210.464C215.867 210.816 216.017 211.253 216.017 211.776C216.017 212.48 215.766 213.029 215.265 213.424C214.774 213.808 214.129 214 213.329 214H209.089ZM210.433 209.328H213.041C213.414 209.328 213.718 209.189 213.953 208.912C214.198 208.624 214.321 208.299 214.321 207.936C214.321 207.584 214.203 207.28 213.969 207.024C213.745 206.768 213.451 206.64 213.089 206.64H210.433V209.328ZM210.433 213.008H213.297C213.681 213.008 214.001 212.869 214.257 212.592C214.523 212.315 214.657 211.995 214.657 211.632C214.657 211.259 214.529 210.939 214.273 210.672C214.027 210.395 213.718 210.256 213.345 210.256H210.433V213.008ZM217.152 211.584C217.152 211.051 217.301 210.592 217.6 210.208C217.909 209.813 218.331 209.509 218.864 209.296C219.397 209.083 220.016 208.976 220.72 208.976C221.093 208.976 221.488 209.008 221.904 209.072C222.32 209.125 222.688 209.211 223.008 209.328V208.72C223.008 208.08 222.816 207.579 222.432 207.216C222.048 206.843 221.504 206.656 220.8 206.656C220.341 206.656 219.899 206.741 219.472 206.912C219.056 207.072 218.613 207.307 218.144 207.616L217.632 206.624C218.176 206.251 218.72 205.973 219.264 205.792C219.808 205.6 220.373 205.504 220.96 205.504C222.027 205.504 222.869 205.803 223.488 206.4C224.107 206.987 224.416 207.808 224.416 208.864V212.4C224.416 212.731 224.565 212.901 224.864 212.912V214C224.725 214.021 224.603 214.037 224.496 214.048C224.4 214.059 224.32 214.064 224.256 214.064C223.925 214.064 223.675 213.973 223.504 213.792C223.344 213.611 223.253 213.419 223.232 213.216L223.2 212.688C222.837 213.157 222.363 213.52 221.776 213.776C221.189 214.032 220.608 214.16 220.032 214.16C219.477 214.16 218.981 214.048 218.544 213.824C218.107 213.589 217.765 213.28 217.52 212.896C217.275 212.501 217.152 212.064 217.152 211.584ZM222.592 212.176C222.72 212.027 222.821 211.877 222.896 211.728C222.971 211.568 223.008 211.435 223.008 211.328V210.288C222.325 210.021 221.621 209.888 220.896 209.888C220.181 209.888 219.6 210.032 219.152 210.32C218.715 210.597 218.496 210.981 218.496 211.472C218.496 211.739 218.565 212 218.704 212.256C218.853 212.501 219.067 212.704 219.344 212.864C219.632 213.024 219.984 213.104 220.4 213.104C220.837 213.104 221.253 213.019 221.648 212.848C222.043 212.667 222.357 212.443 222.592 212.176ZM226.923 210.16V202.528H228.331V210.16H226.923ZM226.923 214V212.016H228.331V214H226.923Z" fill="#282B22"/>
</svg>
