<svg width="240" height="220" viewBox="0 0 240 220" fill="none" xmlns="http://www.w3.org/2000/svg">
<circle opacity="0.3" cx="30" cy="30" r="29.5" stroke="#282B22"/>
<path d="M29.512 28.968C29.512 30.376 29.24 31.632 28.696 32.736C28.168 33.824 27.44 34.68 26.512 35.304C25.584 35.928 24.536 36.24 23.368 36.24C22.184 36.24 21.128 35.928 20.2 35.304C19.288 34.68 18.56 33.824 18.016 32.736C17.488 31.632 17.224 30.376 17.224 28.968C17.224 27.56 17.488 26.312 18.016 25.224C18.56 24.12 19.288 23.256 20.2 22.632C21.128 21.992 22.184 21.672 23.368 21.672C24.536 21.672 25.584 21.992 26.512 22.632C27.44 23.256 28.168 24.12 28.696 25.224C29.24 26.312 29.512 27.56 29.512 28.968ZM26.824 28.968C26.824 28.008 26.672 27.168 26.368 26.448C26.08 25.712 25.672 25.144 25.144 24.744C24.632 24.328 24.04 24.12 23.368 24.12C22.68 24.12 22.072 24.328 21.544 24.744C21.016 25.144 20.6 25.712 20.296 26.448C20.008 27.168 19.864 28.008 19.864 28.968C19.864 30.408 20.184 31.576 20.824 32.472C21.48 33.352 22.328 33.792 23.368 33.792C24.04 33.792 24.632 33.592 25.144 33.192C25.672 32.792 26.08 32.232 26.368 31.512C26.672 30.776 26.824 29.928 26.824 28.968ZM39.5982 30.336C40.6062 30.512 41.4142 30.992 42.0222 31.776C42.6302 32.544 42.9342 33.488 42.9342 34.608C42.9342 35.6 42.6862 36.464 42.1902 37.2C41.6942 37.936 40.9982 38.504 40.1022 38.904C39.2222 39.32 38.1742 39.528 36.9582 39.528C35.7422 39.528 34.6702 39.312 33.7422 38.88C32.8142 38.464 32.0702 37.856 31.5102 37.056L33.1182 35.232C33.5022 35.824 33.9982 36.288 34.6062 36.624C35.2142 36.96 35.9822 37.128 36.9102 37.128C37.9502 37.128 38.7582 36.904 39.3342 36.456C39.9102 36.008 40.1982 35.336 40.1982 34.44C40.1982 33.512 39.8782 32.784 39.2382 32.256C38.5982 31.728 37.6542 31.464 36.4062 31.464H35.7582V29.4H36.4782C37.5502 29.4 38.3742 29.152 38.9502 28.656C39.5262 28.144 39.8142 27.504 39.8142 26.736C39.8142 25.984 39.5502 25.424 39.0222 25.056C38.5102 24.688 37.8542 24.504 37.0542 24.504C36.2382 24.504 35.5182 24.68 34.8942 25.032C34.2702 25.384 33.7742 25.888 33.4062 26.544L31.7502 24.744C32.2142 23.976 32.9502 23.36 33.9582 22.896C34.9822 22.416 36.1022 22.176 37.3182 22.176C38.3742 22.176 39.2942 22.352 40.0782 22.704C40.8782 23.056 41.5022 23.552 41.9502 24.192C42.3982 24.832 42.6222 25.584 42.6222 26.448C42.6222 27.392 42.3502 28.24 41.8062 28.992C41.2622 29.728 40.5262 30.176 39.5982 30.336Z" fill="#3D4A39"/>
<path d="M11.484 106.706C11.484 107.39 11.304 107.978 10.944 108.47C10.584 108.962 10.104 109.34 9.504 109.604C8.916 109.868 8.262 110 7.542 110H1.44V97.22H8.028C8.628 97.22 9.144 97.382 9.576 97.706C10.008 98.018 10.344 98.426 10.584 98.93C10.824 99.434 10.944 99.95 10.944 100.478C10.944 101.102 10.782 101.69 10.458 102.242C10.146 102.782 9.696 103.184 9.108 103.448C9.828 103.664 10.404 104.06 10.836 104.636C11.268 105.2 11.484 105.89 11.484 106.706ZM3.456 98.966V102.728H7.164C7.668 102.728 8.088 102.554 8.424 102.206C8.76 101.846 8.928 101.396 8.928 100.856C8.928 100.304 8.772 99.854 8.46 99.506C8.148 99.146 7.752 98.966 7.272 98.966H3.456ZM9.414 106.328C9.414 105.8 9.246 105.338 8.91 104.942C8.586 104.546 8.172 104.348 7.668 104.348H3.456V108.254H7.542C8.07 108.254 8.514 108.068 8.874 107.696C9.234 107.312 9.414 106.856 9.414 106.328ZM17.6005 110.18C16.6285 110.18 15.7765 109.958 15.0445 109.514C14.3125 109.058 13.7425 108.458 13.3345 107.714C12.9265 106.97 12.7225 106.16 12.7225 105.284C12.7225 104.408 12.9205 103.604 13.3165 102.872C13.7245 102.128 14.2885 101.534 15.0085 101.09C15.7405 100.646 16.6045 100.424 17.6005 100.424C18.5725 100.424 19.4065 100.64 20.1025 101.072C20.8105 101.492 21.3385 102.056 21.6865 102.764L19.7605 103.376C19.5445 102.98 19.2385 102.674 18.8425 102.458C18.4585 102.23 18.0325 102.116 17.5645 102.116C17.0365 102.116 16.5565 102.254 16.1245 102.53C15.7045 102.794 15.3685 103.166 15.1165 103.646C14.8765 104.126 14.7565 104.672 14.7565 105.284C14.7565 105.896 14.8825 106.442 15.1345 106.922C15.3985 107.402 15.7405 107.786 16.1605 108.074C16.5925 108.35 17.0665 108.488 17.5825 108.488C18.0625 108.488 18.5185 108.362 18.9505 108.11C19.3825 107.858 19.6705 107.552 19.8145 107.192L21.7585 107.768C21.4465 108.476 20.9245 109.058 20.1925 109.514C19.4605 109.958 18.5965 110.18 17.6005 110.18ZM25.6212 110V102.332H22.5072V100.586H30.7332V102.332H27.6012V110H25.6212ZM31.5118 107.246C31.5118 106.646 31.6798 106.124 32.0158 105.68C32.3518 105.224 32.8198 104.876 33.4198 104.636C34.0318 104.384 34.7338 104.258 35.5258 104.258C35.9458 104.258 36.3718 104.294 36.8038 104.366C37.2478 104.426 37.6378 104.516 37.9738 104.636V104.042C37.9738 103.382 37.7758 102.866 37.3798 102.494C36.9838 102.122 36.4138 101.936 35.6698 101.936C35.1538 101.936 34.6558 102.026 34.1758 102.206C33.6958 102.386 33.1978 102.65 32.6818 102.998L32.0158 101.666C32.6398 101.258 33.2638 100.952 33.8878 100.748C34.5238 100.532 35.1898 100.424 35.8858 100.424C37.1458 100.424 38.1358 100.76 38.8558 101.432C39.5878 102.092 39.9538 103.034 39.9538 104.258V107.768C39.9538 107.996 39.9898 108.158 40.0618 108.254C40.1458 108.35 40.2838 108.404 40.4758 108.416V110C40.2958 110.036 40.1338 110.06 39.9898 110.072C39.8458 110.084 39.7258 110.09 39.6298 110.09C39.1978 110.09 38.8738 109.988 38.6578 109.784C38.4538 109.568 38.3338 109.328 38.2978 109.064L38.2438 108.524C37.8358 109.052 37.3138 109.46 36.6778 109.748C36.0418 110.036 35.3998 110.18 34.7518 110.18C34.1278 110.18 33.5698 110.054 33.0778 109.802C32.5858 109.538 32.2018 109.184 31.9258 108.74C31.6498 108.296 31.5118 107.798 31.5118 107.246ZM37.5058 107.822C37.8178 107.51 37.9738 107.216 37.9738 106.94V105.86C37.2658 105.596 36.5458 105.464 35.8138 105.464C35.0938 105.464 34.5058 105.614 34.0498 105.914C33.6058 106.202 33.3838 106.592 33.3838 107.084C33.3838 107.492 33.5458 107.87 33.8698 108.218C34.2058 108.554 34.6858 108.722 35.3098 108.722C35.7298 108.722 36.1378 108.638 36.5338 108.47C36.9298 108.302 37.2538 108.086 37.5058 107.822ZM42.356 110V100.586H44.336V104.33H48.71V100.586H50.69V110H48.71V106.04H44.336V110H42.356ZM57.3086 110.18C56.3246 110.18 55.4666 109.958 54.7346 109.514C54.0146 109.058 53.4566 108.464 53.0606 107.732C52.6646 106.988 52.4666 106.178 52.4666 105.302C52.4666 104.426 52.6646 103.622 53.0606 102.89C53.4686 102.146 54.0326 101.552 54.7526 101.108C55.4846 100.652 56.3366 100.424 57.3086 100.424C58.2806 100.424 59.1266 100.652 59.8466 101.108C60.5786 101.552 61.1426 102.146 61.5386 102.89C61.9466 103.622 62.1506 104.426 62.1506 105.302C62.1506 106.178 61.9526 106.988 61.5566 107.732C61.1606 108.464 60.5966 109.058 59.8646 109.514C59.1446 109.958 58.2926 110.18 57.3086 110.18ZM54.5006 105.32C54.5006 105.92 54.6266 106.46 54.8786 106.94C55.1306 107.42 55.4666 107.798 55.8866 108.074C56.3066 108.35 56.7806 108.488 57.3086 108.488C57.8246 108.488 58.2926 108.35 58.7126 108.074C59.1446 107.786 59.4866 107.402 59.7386 106.922C59.9906 106.442 60.1166 105.902 60.1166 105.302C60.1166 104.702 59.9906 104.162 59.7386 103.682C59.4866 103.202 59.1446 102.824 58.7126 102.548C58.2926 102.26 57.8246 102.116 57.3086 102.116C56.7926 102.116 56.3186 102.26 55.8866 102.548C55.4666 102.824 55.1306 103.208 54.8786 103.7C54.6266 104.18 54.5006 104.72 54.5006 105.32ZM63.9067 110V100.586H68.9468C69.5468 100.586 70.0388 100.7 70.4228 100.928C70.8188 101.144 71.1128 101.426 71.3048 101.774C71.4968 102.122 71.5928 102.494 71.5928 102.89C71.5928 103.406 71.4668 103.862 71.2148 104.258C70.9748 104.654 70.6268 104.954 70.1708 105.158C70.7108 105.314 71.1488 105.59 71.4848 105.986C71.8328 106.382 72.0068 106.88 72.0068 107.48C72.0068 108.308 71.7128 108.938 71.1248 109.37C70.5368 109.79 69.7568 110 68.7848 110H63.9067ZM65.7788 104.618H68.4428C68.8148 104.618 69.1208 104.48 69.3608 104.204C69.6008 103.928 69.7208 103.604 69.7208 103.232C69.7208 102.884 69.6068 102.584 69.3788 102.332C69.1508 102.08 68.8508 101.954 68.4788 101.954H65.7788V104.618ZM65.7788 108.632H68.7308C69.1148 108.632 69.4388 108.5 69.7028 108.236C69.9668 107.96 70.0988 107.636 70.0988 107.264C70.0988 106.88 69.9728 106.556 69.7208 106.292C69.4688 106.028 69.1508 105.896 68.7668 105.896H65.7788V108.632ZM73.1351 110.09V108.326C73.5311 108.314 73.8731 108.176 74.1611 107.912C74.4611 107.648 74.7011 107.168 74.8811 106.472C75.0611 105.764 75.1751 104.75 75.2231 103.43L75.3491 100.586H82.0631V110H80.0831V102.332H77.0951L77.0591 103.61C76.9991 105.29 76.8131 106.598 76.5011 107.534C76.2011 108.47 75.7751 109.13 75.2231 109.514C74.6711 109.898 73.9751 110.09 73.1351 110.09ZM88.704 110.18C87.732 110.18 86.88 109.958 86.148 109.514C85.416 109.07 84.846 108.482 84.438 107.75C84.03 107.006 83.826 106.196 83.826 105.32C83.826 104.432 84.03 103.616 84.438 102.872C84.846 102.128 85.416 101.534 86.148 101.09C86.88 100.646 87.738 100.424 88.722 100.424C89.706 100.424 90.558 100.652 91.278 101.108C91.998 101.552 92.55 102.14 92.934 102.872C93.33 103.604 93.528 104.39 93.528 105.23C93.528 105.53 93.51 105.77 93.474 105.95H85.932C85.968 106.502 86.118 106.988 86.382 107.408C86.658 107.816 87 108.14 87.408 108.38C87.828 108.608 88.284 108.722 88.776 108.722C89.304 108.722 89.802 108.59 90.27 108.326C90.738 108.062 91.062 107.714 91.242 107.282L92.934 107.768C92.61 108.476 92.07 109.058 91.314 109.514C90.57 109.958 89.7 110.18 88.704 110.18ZM85.878 104.636H91.566C91.518 104.096 91.362 103.622 91.098 103.214C90.834 102.794 90.492 102.47 90.072 102.242C89.664 102.002 89.208 101.882 88.704 101.882C88.212 101.882 87.756 102.002 87.336 102.242C86.928 102.47 86.592 102.794 86.328 103.214C86.064 103.622 85.914 104.096 85.878 104.636ZM95.1431 110V100.586H97.1231V104.33H101.497V100.586H103.477V110H101.497V106.04H97.1231V110H95.1431ZM105.866 110V100.586H107.846V104.33H112.22V100.586H114.2V110H112.22V106.04H107.846V110H105.866ZM115.994 110L118.514 106.274C117.926 106.13 117.458 105.83 117.11 105.374C116.762 104.918 116.588 104.306 116.588 103.538C116.588 102.662 116.888 101.948 117.488 101.396C118.088 100.844 118.874 100.568 119.846 100.568H123.986V110H122.006V106.598H120.458L118.154 110H115.994ZM120.044 105.158H122.006V102.098H120.17C119.666 102.098 119.264 102.236 118.964 102.512C118.676 102.788 118.532 103.148 118.532 103.592C118.532 104.036 118.658 104.408 118.91 104.708C119.162 105.008 119.54 105.158 120.044 105.158Z" fill="#282B22"/>
<path opacity="0.8" d="M1.36 145V133.64H10.128V145H8.688V134.92H2.8V145H1.36ZM16.2684 145.16C15.4364 145.16 14.7004 144.963 14.0604 144.568C13.431 144.163 12.9404 143.635 12.5884 142.984C12.2364 142.323 12.0604 141.608 12.0604 140.84C12.0604 140.061 12.2364 139.347 12.5884 138.696C12.951 138.035 13.447 137.507 14.0764 137.112C14.7164 136.707 15.447 136.504 16.2684 136.504C17.1004 136.504 17.831 136.707 18.4604 137.112C19.1004 137.507 19.5964 138.035 19.9484 138.696C20.311 139.347 20.4924 140.061 20.4924 140.84C20.4924 141.608 20.311 142.323 19.9484 142.984C19.5964 143.635 19.1057 144.163 18.4764 144.568C17.847 144.963 17.111 145.16 16.2684 145.16ZM13.5004 140.856C13.5004 141.432 13.623 141.955 13.8684 142.424C14.1244 142.893 14.4604 143.267 14.8764 143.544C15.2924 143.811 15.7564 143.944 16.2684 143.944C16.7804 143.944 17.2444 143.805 17.6604 143.528C18.087 143.251 18.423 142.877 18.6684 142.408C18.9244 141.928 19.0524 141.4 19.0524 140.824C19.0524 140.248 18.9244 139.725 18.6684 139.256C18.423 138.787 18.087 138.413 17.6604 138.136C17.2444 137.859 16.7804 137.72 16.2684 137.72C15.7564 137.72 15.2924 137.864 14.8764 138.152C14.4604 138.429 14.1244 138.803 13.8684 139.272C13.623 139.741 13.5004 140.269 13.5004 140.856ZM26.2294 145V136.648H31.3814V137.896H27.6374V145H26.2294ZM36.4715 145.16C35.6395 145.16 34.9035 144.963 34.2635 144.568C33.6342 144.163 33.1435 143.635 32.7915 142.984C32.4395 142.323 32.2635 141.608 32.2635 140.84C32.2635 140.061 32.4395 139.347 32.7915 138.696C33.1542 138.035 33.6502 137.507 34.2795 137.112C34.9195 136.707 35.6502 136.504 36.4715 136.504C37.3035 136.504 38.0342 136.707 38.6635 137.112C39.3035 137.507 39.7995 138.035 40.1515 138.696C40.5142 139.347 40.6955 140.061 40.6955 140.84C40.6955 141.608 40.5142 142.323 40.1515 142.984C39.7995 143.635 39.3088 144.163 38.6795 144.568C38.0502 144.963 37.3142 145.16 36.4715 145.16ZM33.7035 140.856C33.7035 141.432 33.8262 141.955 34.0715 142.424C34.3275 142.893 34.6635 143.267 35.0795 143.544C35.4955 143.811 35.9595 143.944 36.4715 143.944C36.9835 143.944 37.4475 143.805 37.8635 143.528C38.2902 143.251 38.6262 142.877 38.8715 142.408C39.1275 141.928 39.2555 141.4 39.2555 140.824C39.2555 140.248 39.1275 139.725 38.8715 139.256C38.6262 138.787 38.2902 138.413 37.8635 138.136C37.4475 137.859 36.9835 137.72 36.4715 137.72C35.9595 137.72 35.4955 137.864 35.0795 138.152C34.6635 138.429 34.3275 138.803 34.0715 139.272C33.8262 139.741 33.7035 140.269 33.7035 140.856ZM44.4336 145V137.896H41.5536V136.648H48.7216V137.896H45.8416V145H44.4336ZM53.784 145.16C52.952 145.16 52.216 144.963 51.576 144.568C50.9467 144.163 50.456 143.635 50.104 142.984C49.752 142.323 49.576 141.608 49.576 140.84C49.576 140.061 49.752 139.347 50.104 138.696C50.4667 138.035 50.9627 137.507 51.592 137.112C52.232 136.707 52.9627 136.504 53.784 136.504C54.616 136.504 55.3467 136.707 55.976 137.112C56.616 137.507 57.112 138.035 57.464 138.696C57.8267 139.347 58.008 140.061 58.008 140.84C58.008 141.608 57.8267 142.323 57.464 142.984C57.112 143.635 56.6213 144.163 55.992 144.568C55.3627 144.963 54.6267 145.16 53.784 145.16ZM51.016 140.856C51.016 141.432 51.1387 141.955 51.384 142.424C51.64 142.893 51.976 143.267 52.392 143.544C52.808 143.811 53.272 143.944 53.784 143.944C54.296 143.944 54.76 143.805 55.176 143.528C55.6027 143.251 55.9387 142.877 56.184 142.408C56.44 141.928 56.568 141.4 56.568 140.824C56.568 140.248 56.44 139.725 56.184 139.256C55.9387 138.787 55.6027 138.413 55.176 138.136C54.76 137.859 54.296 137.72 53.784 137.72C53.272 137.72 52.808 137.864 52.392 138.152C51.976 138.429 51.64 138.803 51.384 139.272C51.1387 139.741 51.016 140.269 51.016 140.856ZM59.6981 145V136.648H64.0181C64.5195 136.648 64.9355 136.749 65.2661 136.952C65.5968 137.144 65.8421 137.395 66.0021 137.704C66.1728 138.013 66.2581 138.344 66.2581 138.696C66.2581 139.144 66.1515 139.549 65.9381 139.912C65.7248 140.264 65.4155 140.531 65.0101 140.712C65.4901 140.851 65.8795 141.101 66.1781 141.464C66.4768 141.816 66.6261 142.253 66.6261 142.776C66.6261 143.48 66.3755 144.029 65.8741 144.424C65.3835 144.808 64.7381 145 63.9381 145H59.6981ZM61.0421 140.328H63.6501C64.0235 140.328 64.3275 140.189 64.5621 139.912C64.8075 139.624 64.9301 139.299 64.9301 138.936C64.9301 138.584 64.8128 138.28 64.5781 138.024C64.3541 137.768 64.0608 137.64 63.6981 137.64H61.0421V140.328ZM61.0421 144.008H63.9061C64.2901 144.008 64.6101 143.869 64.8661 143.592C65.1328 143.315 65.2661 142.995 65.2661 142.632C65.2661 142.259 65.1381 141.939 64.8821 141.672C64.6368 141.395 64.3275 141.256 63.9541 141.256H61.0421V144.008ZM68.4013 145V136.648H69.8093V140.104H74.1613V136.648H75.5693V145H74.1613V141.352H69.8093V145H68.4013ZM81.4871 145.16C80.6551 145.16 79.9191 144.963 79.2791 144.568C78.6498 144.163 78.1591 143.635 77.8071 142.984C77.4551 142.323 77.2791 141.608 77.2791 140.84C77.2791 140.061 77.4551 139.347 77.8071 138.696C78.1698 138.035 78.6658 137.507 79.2951 137.112C79.9351 136.707 80.6658 136.504 81.4871 136.504C82.3191 136.504 83.0498 136.707 83.6791 137.112C84.3191 137.507 84.8151 138.035 85.1671 138.696C85.5298 139.347 85.7111 140.061 85.7111 140.84C85.7111 141.608 85.5298 142.323 85.1671 142.984C84.8151 143.635 84.3245 144.163 83.6951 144.568C83.0658 144.963 82.3298 145.16 81.4871 145.16ZM78.7191 140.856C78.7191 141.432 78.8418 141.955 79.0871 142.424C79.3431 142.893 79.6791 143.267 80.0951 143.544C80.5111 143.811 80.9751 143.944 81.4871 143.944C81.9991 143.944 82.4631 143.805 82.8791 143.528C83.3058 143.251 83.6418 142.877 83.8871 142.408C84.1431 141.928 84.2711 141.4 84.2711 140.824C84.2711 140.248 84.1431 139.725 83.8871 139.256C83.6418 138.787 83.3058 138.413 82.8791 138.136C82.4631 137.859 81.9991 137.72 81.4871 137.72C80.9751 137.72 80.5111 137.864 80.0951 138.152C79.6791 138.429 79.3431 138.803 79.0871 139.272C78.8418 139.741 78.7191 140.269 78.7191 140.856ZM91.1133 145.16C90.2813 145.16 89.5453 144.963 88.9053 144.568C88.2653 144.163 87.7639 143.629 87.4013 142.968C87.0386 142.307 86.8573 141.587 86.8573 140.808C86.8573 140.019 87.0333 139.299 87.3853 138.648C87.7373 137.997 88.2333 137.48 88.8733 137.096C89.5133 136.701 90.2546 136.504 91.0973 136.504C91.9186 136.504 92.6333 136.691 93.2413 137.064C93.8599 137.427 94.3186 137.917 94.6173 138.536L93.2413 138.968C93.0279 138.573 92.7293 138.269 92.3453 138.056C91.9613 137.832 91.5346 137.72 91.0653 137.72C90.5533 137.72 90.0839 137.853 89.6573 138.12C89.2413 138.387 88.9106 138.755 88.6653 139.224C88.4199 139.683 88.2973 140.211 88.2973 140.808C88.2973 141.395 88.4199 141.928 88.6653 142.408C88.9213 142.877 89.2573 143.251 89.6733 143.528C90.0999 143.805 90.5693 143.944 91.0813 143.944C91.4119 143.944 91.7266 143.885 92.0253 143.768C92.3346 143.651 92.6013 143.496 92.8253 143.304C93.0599 143.101 93.2199 142.883 93.3053 142.648L94.6813 143.064C94.4359 143.672 93.9879 144.173 93.3373 144.568C92.6973 144.963 91.9559 145.16 91.1133 145.16ZM98.3086 145V137.896H95.4286V136.648H102.597V137.896H99.7166V145H98.3086ZM104.011 135.08V133.32H105.419V135.08H104.011ZM104.011 145V136.648H105.419V145H104.011ZM111.729 145V136.648H116.049C116.551 136.648 116.967 136.749 117.297 136.952C117.628 137.144 117.873 137.395 118.033 137.704C118.204 138.013 118.289 138.344 118.289 138.696C118.289 139.144 118.183 139.549 117.969 139.912C117.756 140.264 117.447 140.531 117.041 140.712C117.521 140.851 117.911 141.101 118.209 141.464C118.508 141.816 118.657 142.253 118.657 142.776C118.657 143.48 118.407 144.029 117.905 144.424C117.415 144.808 116.769 145 115.969 145H111.729ZM113.073 140.328H115.681C116.055 140.328 116.359 140.189 116.593 139.912C116.839 139.624 116.961 139.299 116.961 138.936C116.961 138.584 116.844 138.28 116.609 138.024C116.385 137.768 116.092 137.64 115.729 137.64H113.073V140.328ZM113.073 144.008H115.937C116.321 144.008 116.641 143.869 116.897 143.592C117.164 143.315 117.297 142.995 117.297 142.632C117.297 142.259 117.169 141.939 116.913 141.672C116.668 141.395 116.359 141.256 115.985 141.256H113.073V144.008ZM120.433 145V136.664H121.841V143.112L126.513 136.648H127.793V145H126.385V138.68L121.777 145H120.433ZM134.538 145.16C133.856 145.16 133.248 144.989 132.714 144.648C132.181 144.307 131.76 143.875 131.45 143.352V148.408H130.042V136.648H131.29V138.216C131.621 137.704 132.053 137.293 132.586 136.984C133.12 136.664 133.701 136.504 134.33 136.504C134.906 136.504 135.434 136.621 135.914 136.856C136.394 137.091 136.81 137.411 137.162 137.816C137.514 138.221 137.786 138.685 137.978 139.208C138.181 139.72 138.282 140.259 138.282 140.824C138.282 141.613 138.122 142.339 137.802 143C137.493 143.661 137.056 144.189 136.49 144.584C135.925 144.968 135.274 145.16 134.538 145.16ZM134.106 143.944C134.661 143.944 135.141 143.795 135.546 143.496C135.952 143.197 136.266 142.808 136.49 142.328C136.725 141.848 136.842 141.347 136.842 140.824C136.842 140.259 136.714 139.741 136.458 139.272C136.213 138.803 135.872 138.429 135.434 138.152C135.008 137.864 134.522 137.72 133.978 137.72C133.648 137.72 133.296 137.805 132.922 137.976C132.56 138.147 132.24 138.376 131.962 138.664C131.696 138.941 131.525 139.251 131.45 139.592V141.976C131.685 142.531 132.042 143 132.522 143.384C133.013 143.757 133.541 143.944 134.106 143.944ZM143.659 145.16C142.827 145.16 142.091 144.963 141.451 144.568C140.822 144.163 140.331 143.635 139.979 142.984C139.627 142.323 139.451 141.608 139.451 140.84C139.451 140.061 139.627 139.347 139.979 138.696C140.342 138.035 140.838 137.507 141.467 137.112C142.107 136.707 142.838 136.504 143.659 136.504C144.491 136.504 145.222 136.707 145.851 137.112C146.491 137.507 146.987 138.035 147.339 138.696C147.702 139.347 147.883 140.061 147.883 140.84C147.883 141.608 147.702 142.323 147.339 142.984C146.987 143.635 146.496 144.163 145.867 144.568C145.238 144.963 144.502 145.16 143.659 145.16ZM140.891 140.856C140.891 141.432 141.014 141.955 141.259 142.424C141.515 142.893 141.851 143.267 142.267 143.544C142.683 143.811 143.147 143.944 143.659 143.944C144.171 143.944 144.635 143.805 145.051 143.528C145.478 143.251 145.814 142.877 146.059 142.408C146.315 141.928 146.443 141.4 146.443 140.824C146.443 140.248 146.315 139.725 146.059 139.256C145.814 138.787 145.478 138.413 145.051 138.136C144.635 137.859 144.171 137.72 143.659 137.72C143.147 137.72 142.683 137.864 142.267 138.152C141.851 138.429 141.515 138.803 141.259 139.272C141.014 139.741 140.891 140.269 140.891 140.856ZM153.525 145.16C152.149 145.16 151.109 144.744 150.405 143.912C149.701 143.08 149.349 141.907 149.349 140.392C149.349 139.357 149.434 138.488 149.605 137.784C149.776 137.069 150.032 136.483 150.373 136.024C150.714 135.555 151.136 135.176 151.637 134.888C152.138 134.589 152.714 134.344 153.365 134.152L156.901 133.08L156.981 134.296L153.541 135.336C152.954 135.528 152.464 135.773 152.069 136.072C151.674 136.371 151.365 136.755 151.141 137.224C150.917 137.693 150.768 138.296 150.693 139.032C150.97 138.467 151.386 138.029 151.941 137.72C152.496 137.4 153.141 137.24 153.877 137.24C154.666 137.24 155.344 137.405 155.909 137.736C156.485 138.056 156.922 138.509 157.221 139.096C157.53 139.672 157.685 140.339 157.685 141.096C157.685 141.907 157.525 142.616 157.205 143.224C156.885 143.832 156.416 144.307 155.797 144.648C155.178 144.989 154.421 145.16 153.525 145.16ZM153.525 143.944C154.389 143.944 155.056 143.693 155.525 143.192C156.005 142.68 156.245 142.003 156.245 141.16C156.245 140.339 156.01 139.672 155.541 139.16C155.072 138.648 154.4 138.392 153.525 138.392C152.746 138.392 152.096 138.632 151.573 139.112C151.061 139.592 150.805 140.275 150.805 141.16C150.805 141.971 151.04 142.637 151.509 143.16C151.978 143.683 152.65 143.944 153.525 143.944ZM159.386 145V136.648H160.794V140.104H165.146V136.648H166.554V145H165.146V141.352H160.794V145H159.386ZM168.808 145V136.664H170.216V143.112L174.888 136.648H176.168V145H174.76V138.68L170.152 145H168.808ZM184.993 146.968V145H178.401V136.648H179.809V143.768H183.681V136.648H185.089V143.768H186.241V146.968H184.993ZM189.84 145V137.896H186.96V136.648H194.128V137.896H191.248V145H189.84ZM195.526 145V136.648H199.846C200.348 136.648 200.764 136.749 201.094 136.952C201.425 137.144 201.67 137.395 201.83 137.704C202.001 138.013 202.086 138.344 202.086 138.696C202.086 139.144 201.98 139.549 201.766 139.912C201.553 140.264 201.244 140.531 200.838 140.712C201.318 140.851 201.708 141.101 202.006 141.464C202.305 141.816 202.454 142.253 202.454 142.776C202.454 143.48 202.204 144.029 201.702 144.424C201.212 144.808 200.566 145 199.766 145H195.526ZM196.87 140.328H199.478C199.852 140.328 200.156 140.189 200.39 139.912C200.636 139.624 200.758 139.299 200.758 138.936C200.758 138.584 200.641 138.28 200.406 138.024C200.182 137.768 199.889 137.64 199.526 137.64H196.87V140.328ZM196.87 144.008H199.734C200.118 144.008 200.438 143.869 200.694 143.592C200.961 143.315 201.094 142.995 201.094 142.632C201.094 142.259 200.966 141.939 200.71 141.672C200.465 141.395 200.156 141.256 199.782 141.256H196.87V144.008ZM203.589 142.584C203.589 142.051 203.739 141.592 204.037 141.208C204.347 140.813 204.768 140.509 205.301 140.296C205.835 140.083 206.453 139.976 207.157 139.976C207.531 139.976 207.925 140.008 208.341 140.072C208.757 140.125 209.125 140.211 209.445 140.328V139.72C209.445 139.08 209.253 138.579 208.869 138.216C208.485 137.843 207.941 137.656 207.237 137.656C206.779 137.656 206.336 137.741 205.909 137.912C205.493 138.072 205.051 138.307 204.581 138.616L204.069 137.624C204.613 137.251 205.157 136.973 205.701 136.792C206.245 136.6 206.811 136.504 207.397 136.504C208.464 136.504 209.307 136.803 209.925 137.4C210.544 137.987 210.853 138.808 210.853 139.864V143.4C210.853 143.731 211.003 143.901 211.301 143.912V145C211.163 145.021 211.04 145.037 210.933 145.048C210.837 145.059 210.757 145.064 210.693 145.064C210.363 145.064 210.112 144.973 209.941 144.792C209.781 144.611 209.691 144.419 209.669 144.216L209.637 143.688C209.275 144.157 208.8 144.52 208.213 144.776C207.627 145.032 207.045 145.16 206.469 145.16C205.915 145.16 205.419 145.048 204.981 144.824C204.544 144.589 204.203 144.28 203.957 143.896C203.712 143.501 203.589 143.064 203.589 142.584ZM209.029 143.176C209.157 143.027 209.259 142.877 209.333 142.728C209.408 142.568 209.445 142.435 209.445 142.328V141.288C208.763 141.021 208.059 140.888 207.333 140.888C206.619 140.888 206.037 141.032 205.589 141.32C205.152 141.597 204.933 141.981 204.933 142.472C204.933 142.739 205.003 143 205.141 143.256C205.291 143.501 205.504 143.704 205.781 143.864C206.069 144.024 206.421 144.104 206.837 144.104C207.275 144.104 207.691 144.019 208.085 143.848C208.48 143.667 208.795 143.443 209.029 143.176ZM1.12 168V159.648H8.048V168H6.64V160.896H2.528V168H1.12ZM13.9715 168.16C13.1395 168.16 12.4035 167.963 11.7635 167.568C11.1342 167.163 10.6435 166.635 10.2915 165.984C9.9395 165.323 9.7635 164.608 9.7635 163.84C9.7635 163.061 9.9395 162.347 10.2915 161.696C10.6542 161.035 11.1502 160.507 11.7795 160.112C12.4195 159.707 13.1502 159.504 13.9715 159.504C14.8035 159.504 15.5342 159.707 16.1635 160.112C16.8035 160.507 17.2995 161.035 17.6515 161.696C18.0142 162.347 18.1955 163.061 18.1955 163.84C18.1955 164.608 18.0142 165.323 17.6515 165.984C17.2995 166.635 16.8088 167.163 16.1795 167.568C15.5502 167.963 14.8142 168.16 13.9715 168.16ZM11.2035 163.856C11.2035 164.432 11.3262 164.955 11.5715 165.424C11.8275 165.893 12.1635 166.267 12.5795 166.544C12.9955 166.811 13.4595 166.944 13.9715 166.944C14.4835 166.944 14.9475 166.805 15.3635 166.528C15.7902 166.251 16.1262 165.877 16.3715 165.408C16.6275 164.928 16.7555 164.4 16.7555 163.824C16.7555 163.248 16.6275 162.725 16.3715 162.256C16.1262 161.787 15.7902 161.413 15.3635 161.136C14.9475 160.859 14.4835 160.72 13.9715 160.72C13.4595 160.72 12.9955 160.864 12.5795 161.152C12.1635 161.429 11.8275 161.803 11.5715 162.272C11.3262 162.741 11.2035 163.269 11.2035 163.856ZM24.6376 168V164.656C23.987 164.965 23.251 165.12 22.4296 165.12C20.5736 165.12 19.6456 164.171 19.6456 162.272V159.648H21.0536V162.08C21.0536 162.752 21.1923 163.243 21.4696 163.552C21.747 163.861 22.1896 164.016 22.7976 164.016C23.139 164.016 23.475 163.979 23.8056 163.904C24.147 163.829 24.4243 163.728 24.6376 163.6V159.648H26.0616V168H24.6376ZM28.3231 168V159.664H29.7311V166.112L34.4031 159.648H35.6831V168H34.2751V161.68L29.6671 168H28.3231ZM37.9169 168V159.648H39.3249V163.104H43.6769V159.648H45.0849V168H43.6769V164.352H39.3249V168H37.9169ZM46.6988 165.584C46.6988 165.051 46.8481 164.592 47.1468 164.208C47.4561 163.813 47.8774 163.509 48.4108 163.296C48.9441 163.083 49.5628 162.976 50.2668 162.976C50.6401 162.976 51.0348 163.008 51.4508 163.072C51.8668 163.125 52.2348 163.211 52.5548 163.328V162.72C52.5548 162.08 52.3628 161.579 51.9788 161.216C51.5948 160.843 51.0508 160.656 50.3468 160.656C49.8881 160.656 49.4454 160.741 49.0188 160.912C48.6028 161.072 48.1601 161.307 47.6908 161.616L47.1788 160.624C47.7228 160.251 48.2668 159.973 48.8108 159.792C49.3548 159.6 49.9201 159.504 50.5068 159.504C51.5734 159.504 52.4161 159.803 53.0348 160.4C53.6534 160.987 53.9628 161.808 53.9628 162.864V166.4C53.9628 166.731 54.1121 166.901 54.4108 166.912V168C54.2721 168.021 54.1494 168.037 54.0428 168.048C53.9468 168.059 53.8668 168.064 53.8028 168.064C53.4721 168.064 53.2214 167.973 53.0508 167.792C52.8908 167.611 52.8001 167.419 52.7788 167.216L52.7468 166.688C52.3841 167.157 51.9094 167.52 51.3228 167.776C50.7361 168.032 50.1548 168.16 49.5788 168.16C49.0241 168.16 48.5281 168.048 48.0908 167.824C47.6534 167.589 47.3121 167.28 47.0668 166.896C46.8214 166.501 46.6988 166.064 46.6988 165.584ZM52.1388 166.176C52.2668 166.027 52.3681 165.877 52.4428 165.728C52.5174 165.568 52.5548 165.435 52.5548 165.328V164.288C51.8721 164.021 51.1681 163.888 50.4427 163.888C49.7281 163.888 49.1468 164.032 48.6988 164.32C48.2614 164.597 48.0428 164.981 48.0428 165.472C48.0428 165.739 48.1121 166 48.2508 166.256C48.4001 166.501 48.6134 166.704 48.8908 166.864C49.1788 167.024 49.5308 167.104 49.9468 167.104C50.3841 167.104 50.8001 167.019 51.1948 166.848C51.5894 166.667 51.9041 166.443 52.1388 166.176ZM59.8781 168.144C59.2275 168.144 58.6408 168.021 58.1181 167.776C57.6061 167.531 57.1635 167.205 56.7901 166.8C56.4275 166.384 56.1448 165.92 55.9421 165.408C55.7501 164.885 55.6541 164.347 55.6541 163.792C55.6541 163.259 55.7448 162.736 55.9261 162.224C56.1181 161.712 56.3955 161.253 56.7581 160.848C57.1208 160.432 57.5635 160.107 58.0861 159.872C58.6195 159.627 59.2275 159.504 59.9101 159.504C60.7315 159.504 61.4355 159.68 62.0221 160.032C62.6088 160.384 63.0515 160.848 63.3501 161.424L62.2781 161.984C62.0115 161.504 61.6701 161.163 61.2541 160.96C60.8488 160.757 60.4115 160.656 59.9421 160.656C59.3981 160.656 58.9235 160.784 58.5181 161.04C58.1128 161.285 57.7928 161.611 57.5581 162.016C57.3235 162.411 57.1741 162.832 57.1101 163.28H60.7101V164.24H57.1101C57.1635 164.741 57.3181 165.205 57.5741 165.632C57.8301 166.048 58.1661 166.384 58.5821 166.64C58.9981 166.885 59.4621 167.008 59.9741 167.008C60.4435 167.008 60.8915 166.896 61.3181 166.672C61.7555 166.437 62.1075 166.08 62.3741 165.6L63.5101 166.128C63.1901 166.768 62.6941 167.264 62.0221 167.616C61.3608 167.968 60.6461 168.144 59.8781 168.144ZM65.1825 168V159.648H66.6385L69.7425 165.12L72.8625 159.648H74.2865V168H72.9425V161.68L70.1905 166.512H69.2945L66.5265 161.68V168H65.1825ZM80.2059 168.16C79.3739 168.16 78.6379 167.963 77.9979 167.568C77.3685 167.163 76.8779 166.635 76.5259 165.984C76.1739 165.323 75.9979 164.608 75.9979 163.84C75.9979 163.061 76.1739 162.347 76.5259 161.696C76.8885 161.035 77.3845 160.507 78.0139 160.112C78.6539 159.707 79.3845 159.504 80.2059 159.504C81.0379 159.504 81.7685 159.707 82.3979 160.112C83.0379 160.507 83.5339 161.035 83.8859 161.696C84.2485 162.347 84.4299 163.061 84.4299 163.84C84.4299 164.608 84.2485 165.323 83.8859 165.984C83.5339 166.635 83.0432 167.163 82.4139 167.568C81.7845 167.963 81.0485 168.16 80.2059 168.16ZM77.4379 163.856C77.4379 164.432 77.5605 164.955 77.8059 165.424C78.0619 165.893 78.3979 166.267 78.8139 166.544C79.2299 166.811 79.6939 166.944 80.2059 166.944C80.7179 166.944 81.1819 166.805 81.5979 166.528C82.0245 166.251 82.3605 165.877 82.6059 165.408C82.8619 164.928 82.9899 164.4 82.9899 163.824C82.9899 163.248 82.8619 162.725 82.6059 162.256C82.3605 161.787 82.0245 161.413 81.5979 161.136C81.1819 160.859 80.7179 160.72 80.2059 160.72C79.6939 160.72 79.2299 160.864 78.8139 161.152C78.3979 161.429 78.0619 161.803 77.8059 162.272C77.5605 162.741 77.4379 163.269 77.4379 163.856ZM90.1669 168V159.648H91.6229L94.7269 165.12L97.8469 159.648H99.2709V168H97.9269V161.68L95.1749 166.512H94.2789L91.5109 161.68V168H90.1669ZM105.19 168.16C104.358 168.16 103.622 167.963 102.982 167.568C102.353 167.163 101.862 166.635 101.51 165.984C101.158 165.323 100.982 164.608 100.982 163.84C100.982 163.061 101.158 162.347 101.51 161.696C101.873 161.035 102.369 160.507 102.998 160.112C103.638 159.707 104.369 159.504 105.19 159.504C106.022 159.504 106.753 159.707 107.382 160.112C108.022 160.507 108.518 161.035 108.87 161.696C109.233 162.347 109.414 163.061 109.414 163.84C109.414 164.608 109.233 165.323 108.87 165.984C108.518 166.635 108.028 167.163 107.398 167.568C106.769 167.963 106.033 168.16 105.19 168.16ZM102.422 163.856C102.422 164.432 102.545 164.955 102.79 165.424C103.046 165.893 103.382 166.267 103.798 166.544C104.214 166.811 104.678 166.944 105.19 166.944C105.702 166.944 106.166 166.805 106.582 166.528C107.009 166.251 107.345 165.877 107.59 165.408C107.846 164.928 107.974 164.4 107.974 163.824C107.974 163.248 107.846 162.725 107.59 162.256C107.345 161.787 107.009 161.413 106.582 161.136C106.166 160.859 105.702 160.72 105.19 160.72C104.678 160.72 104.214 160.864 103.798 161.152C103.382 161.429 103.046 161.803 102.79 162.272C102.545 162.741 102.422 163.269 102.422 163.856ZM111.104 168V159.648H112.512V163.104H116.864V159.648H118.272V168H116.864V164.352H112.512V168H111.104ZM122.574 168V160.896H119.694V159.648H126.862V160.896H123.982V168H122.574ZM127.621 165.584C127.621 165.051 127.77 164.592 128.069 164.208C128.378 163.813 128.799 163.509 129.333 163.296C129.866 163.083 130.485 162.976 131.189 162.976C131.562 162.976 131.957 163.008 132.373 163.072C132.789 163.125 133.157 163.211 133.477 163.328V162.72C133.477 162.08 133.285 161.579 132.901 161.216C132.517 160.843 131.973 160.656 131.269 160.656C130.81 160.656 130.367 160.741 129.941 160.912C129.525 161.072 129.082 161.307 128.613 161.616L128.101 160.624C128.645 160.251 129.189 159.973 129.733 159.792C130.277 159.6 130.842 159.504 131.429 159.504C132.495 159.504 133.338 159.803 133.957 160.4C134.575 160.987 134.885 161.808 134.885 162.864V166.4C134.885 166.731 135.034 166.901 135.333 166.912V168C135.194 168.021 135.071 168.037 134.965 168.048C134.869 168.059 134.789 168.064 134.725 168.064C134.394 168.064 134.143 167.973 133.973 167.792C133.813 167.611 133.722 167.419 133.701 167.216L133.669 166.688C133.306 167.157 132.831 167.52 132.245 167.776C131.658 168.032 131.077 168.16 130.501 168.16C129.946 168.16 129.45 168.048 129.013 167.824C128.575 167.589 128.234 167.28 127.989 166.896C127.743 166.501 127.621 166.064 127.621 165.584ZM133.061 166.176C133.189 166.027 133.29 165.877 133.365 165.728C133.439 165.568 133.477 165.435 133.477 165.328V164.288C132.794 164.021 132.09 163.888 131.365 163.888C130.65 163.888 130.069 164.032 129.621 164.32C129.183 164.597 128.965 164.981 128.965 165.472C128.965 165.739 129.034 166 129.173 166.256C129.322 166.501 129.535 166.704 129.813 166.864C130.101 167.024 130.453 167.104 130.869 167.104C131.306 167.104 131.722 167.019 132.117 166.848C132.511 166.667 132.826 166.443 133.061 166.176ZM136.56 168L139.632 163.696L136.832 159.648H138.416L140.816 163.12H141.712V159.648H143.152V163.12H144.08L146.432 159.648H148.032L145.232 163.696L148.32 168H146.704L144.08 164.352H143.152V168H141.712V164.352H140.816L138.176 168H136.56ZM154.042 168V159.648H155.45V163.104H159.802V159.648H161.21V168H159.802V164.352H155.45V168H154.042ZM162.824 165.584C162.824 165.051 162.973 164.592 163.272 164.208C163.581 163.813 164.002 163.509 164.536 163.296C165.069 163.083 165.688 162.976 166.392 162.976C166.765 162.976 167.16 163.008 167.576 163.072C167.992 163.125 168.36 163.211 168.68 163.328V162.72C168.68 162.08 168.488 161.579 168.104 161.216C167.72 160.843 167.176 160.656 166.472 160.656C166.013 160.656 165.57 160.741 165.144 160.912C164.728 161.072 164.285 161.307 163.816 161.616L163.304 160.624C163.848 160.251 164.392 159.973 164.936 159.792C165.48 159.6 166.045 159.504 166.632 159.504C167.698 159.504 168.541 159.803 169.16 160.4C169.778 160.987 170.088 161.808 170.088 162.864V166.4C170.088 166.731 170.237 166.901 170.536 166.912V168C170.397 168.021 170.274 168.037 170.168 168.048C170.072 168.059 169.992 168.064 169.928 168.064C169.597 168.064 169.346 167.973 169.176 167.792C169.016 167.611 168.925 167.419 168.904 167.216L168.872 166.688C168.509 167.157 168.034 167.52 167.448 167.776C166.861 168.032 166.28 168.16 165.704 168.16C165.149 168.16 164.653 168.048 164.216 167.824C163.778 167.589 163.437 167.28 163.192 166.896C162.946 166.501 162.824 166.064 162.824 165.584ZM168.264 166.176C168.392 166.027 168.493 165.877 168.568 165.728C168.642 165.568 168.68 165.435 168.68 165.328V164.288C167.997 164.021 167.293 163.888 166.568 163.888C165.853 163.888 165.272 164.032 164.824 164.32C164.386 164.597 164.168 164.981 164.168 165.472C164.168 165.739 164.237 166 164.376 166.256C164.525 166.501 164.738 166.704 165.016 166.864C165.304 167.024 165.656 167.104 166.072 167.104C166.509 167.104 166.925 167.019 167.32 166.848C167.714 166.667 168.029 166.443 168.264 166.176ZM180.034 168.16C179.202 168.16 178.466 167.963 177.826 167.568C177.197 167.163 176.706 166.635 176.354 165.984C176.002 165.323 175.826 164.608 175.826 163.84C175.826 163.061 176.002 162.347 176.354 161.696C176.717 161.035 177.213 160.507 177.842 160.112C178.482 159.707 179.213 159.504 180.034 159.504C180.866 159.504 181.597 159.707 182.226 160.112C182.866 160.507 183.362 161.035 183.714 161.696C184.077 162.347 184.258 163.061 184.258 163.84C184.258 164.608 184.077 165.323 183.714 165.984C183.362 166.635 182.871 167.163 182.242 167.568C181.613 167.963 180.877 168.16 180.034 168.16ZM177.266 163.856C177.266 164.432 177.389 164.955 177.634 165.424C177.89 165.893 178.226 166.267 178.642 166.544C179.058 166.811 179.522 166.944 180.034 166.944C180.546 166.944 181.01 166.805 181.426 166.528C181.853 166.251 182.189 165.877 182.434 165.408C182.69 164.928 182.818 164.4 182.818 163.824C182.818 163.248 182.69 162.725 182.434 162.256C182.189 161.787 181.853 161.413 181.426 161.136C181.01 160.859 180.546 160.72 180.034 160.72C179.522 160.72 179.058 160.864 178.642 161.152C178.226 161.429 177.89 161.803 177.634 162.272C177.389 162.741 177.266 163.269 177.266 163.856ZM189.9 168.16C188.524 168.16 187.484 167.744 186.78 166.912C186.076 166.08 185.724 164.907 185.724 163.392C185.724 162.357 185.809 161.488 185.98 160.784C186.151 160.069 186.407 159.483 186.748 159.024C187.089 158.555 187.511 158.176 188.012 157.888C188.513 157.589 189.089 157.344 189.74 157.152L193.276 156.08L193.356 157.296L189.916 158.336C189.329 158.528 188.839 158.773 188.444 159.072C188.049 159.371 187.74 159.755 187.516 160.224C187.292 160.693 187.143 161.296 187.068 162.032C187.345 161.467 187.761 161.029 188.316 160.72C188.871 160.4 189.516 160.24 190.252 160.24C191.041 160.24 191.719 160.405 192.284 160.736C192.86 161.056 193.297 161.509 193.596 162.096C193.905 162.672 194.06 163.339 194.06 164.096C194.06 164.907 193.9 165.616 193.58 166.224C193.26 166.832 192.791 167.307 192.172 167.648C191.553 167.989 190.796 168.16 189.9 168.16ZM189.9 166.944C190.764 166.944 191.431 166.693 191.9 166.192C192.38 165.68 192.62 165.003 192.62 164.16C192.62 163.339 192.385 162.672 191.916 162.16C191.447 161.648 190.775 161.392 189.9 161.392C189.121 161.392 188.471 161.632 187.948 162.112C187.436 162.592 187.18 163.275 187.18 164.16C187.18 164.971 187.415 165.637 187.884 166.16C188.353 166.683 189.025 166.944 189.9 166.944ZM199.441 168.144C198.79 168.144 198.203 168.021 197.681 167.776C197.169 167.531 196.726 167.205 196.353 166.8C195.99 166.384 195.707 165.92 195.505 165.408C195.313 164.885 195.217 164.347 195.217 163.792C195.217 163.259 195.307 162.736 195.489 162.224C195.681 161.712 195.958 161.253 196.321 160.848C196.683 160.432 197.126 160.107 197.649 159.872C198.182 159.627 198.79 159.504 199.473 159.504C200.294 159.504 200.998 159.68 201.585 160.032C202.171 160.384 202.614 160.848 202.913 161.424L201.841 161.984C201.574 161.504 201.233 161.163 200.817 160.96C200.411 160.757 199.974 160.656 199.505 160.656C198.961 160.656 198.486 160.784 198.081 161.04C197.675 161.285 197.355 161.611 197.121 162.016C196.886 162.411 196.737 162.832 196.673 163.28H200.273V164.24H196.673C196.726 164.741 196.881 165.205 197.137 165.632C197.393 166.048 197.729 166.384 198.145 166.64C198.561 166.885 199.025 167.008 199.537 167.008C200.006 167.008 200.454 166.896 200.881 166.672C201.318 166.437 201.67 166.08 201.937 165.6L203.073 166.128C202.753 166.768 202.257 167.264 201.585 167.616C200.923 167.968 200.209 168.144 199.441 168.144ZM204.745 168V159.648H206.153V163.088H207.081L209.705 159.648H211.305L208.185 163.696L211.673 168H210.041L207.081 164.384H206.153V168H204.745ZM215.09 168V160.896H212.21V159.648H219.378V160.896H216.498V168H215.09ZM220.792 158.08V156.32H222.2V158.08H220.792ZM220.792 168V159.648H222.2V168H220.792ZM224.368 168V166.208H225.552V168H224.368ZM2.576 191.048V189.832H3.296C3.56267 189.832 3.76 189.768 3.888 189.64C4.02667 189.501 4.17067 189.299 4.32 189.032L4.736 188.136L0 179.64H1.584L5.392 186.664L8.592 179.64H10.112L5.424 189.72C5.18933 190.2 4.93867 190.541 4.672 190.744C4.416 190.947 4.05867 191.048 3.6 191.048H2.576ZM14.208 192.968V189.752H14.384C14.6933 189.752 14.9707 189.624 15.216 189.368C15.472 189.101 15.68 188.632 15.84 187.96C16 187.277 16.096 186.312 16.128 185.064L16.208 182.648H21.888V189.752H23.024V192.968H21.776V191H15.456V192.968H14.208ZM16.352 189.752H20.48V183.896H17.456L17.408 185.192C17.3653 186.557 17.2533 187.592 17.072 188.296C16.9013 189 16.6613 189.485 16.352 189.752ZM28.2371 191.16C27.4051 191.16 26.6691 190.963 26.0291 190.568C25.3998 190.163 24.9091 189.635 24.5571 188.984C24.2051 188.323 24.0291 187.608 24.0291 186.84C24.0291 186.061 24.2051 185.347 24.5571 184.696C24.9198 184.035 25.4158 183.507 26.0451 183.112C26.6851 182.707 27.4158 182.504 28.2371 182.504C29.0691 182.504 29.7998 182.707 30.4291 183.112C31.0691 183.507 31.5651 184.035 31.9171 184.696C32.2798 185.347 32.4611 186.061 32.4611 186.84C32.4611 187.608 32.2798 188.323 31.9171 188.984C31.5651 189.635 31.0745 190.163 30.4451 190.568C29.8158 190.963 29.0798 191.16 28.2371 191.16ZM25.4691 186.856C25.4691 187.432 25.5918 187.955 25.8371 188.424C26.0931 188.893 26.4291 189.267 26.8451 189.544C27.2611 189.811 27.7251 189.944 28.2371 189.944C28.7491 189.944 29.2131 189.805 29.6291 189.528C30.0558 189.251 30.3918 188.877 30.6371 188.408C30.8931 187.928 31.0211 187.4 31.0211 186.824C31.0211 186.248 30.8931 185.725 30.6371 185.256C30.3918 184.787 30.0558 184.413 29.6291 184.136C29.2131 183.859 28.7491 183.72 28.2371 183.72C27.7251 183.72 27.2611 183.864 26.8451 184.152C26.4291 184.429 26.0931 184.803 25.8371 185.272C25.5918 185.741 25.4691 186.269 25.4691 186.856ZM34.1513 191V182.648H35.6073L38.7113 188.12L41.8313 182.648H43.2553V191H41.9113V184.68L39.1593 189.512H38.2633L35.4953 184.68V191H34.1513ZM49.1746 191.16C48.3426 191.16 47.6066 190.963 46.9666 190.568C46.3373 190.163 45.8466 189.635 45.4946 188.984C45.1426 188.323 44.9666 187.608 44.9666 186.84C44.9666 186.061 45.1426 185.347 45.4946 184.696C45.8573 184.035 46.3533 183.507 46.9826 183.112C47.6226 182.707 48.3533 182.504 49.1746 182.504C50.0066 182.504 50.7373 182.707 51.3666 183.112C52.0066 183.507 52.5026 184.035 52.8546 184.696C53.2173 185.347 53.3986 186.061 53.3986 186.84C53.3986 187.608 53.2173 188.323 52.8546 188.984C52.5026 189.635 52.012 190.163 51.3826 190.568C50.7533 190.963 50.0173 191.16 49.1746 191.16ZM46.4066 186.856C46.4066 187.432 46.5293 187.955 46.7746 188.424C47.0306 188.893 47.3666 189.267 47.7826 189.544C48.1986 189.811 48.6626 189.944 49.1746 189.944C49.6866 189.944 50.1506 189.805 50.5666 189.528C50.9933 189.251 51.3293 188.877 51.5746 188.408C51.8306 187.928 51.9586 187.4 51.9586 186.824C51.9586 186.248 51.8306 185.725 51.5746 185.256C51.3293 184.787 50.9933 184.413 50.5666 184.136C50.1506 183.859 49.6866 183.72 49.1746 183.72C48.6626 183.72 48.1986 183.864 47.7826 184.152C47.3666 184.429 47.0306 184.803 46.7746 185.272C46.5293 185.741 46.4066 186.269 46.4066 186.856ZM55.0888 191V182.648H59.4088C59.9101 182.648 60.3261 182.749 60.6568 182.952C60.9874 183.144 61.2328 183.395 61.3928 183.704C61.5634 184.013 61.6488 184.344 61.6488 184.696C61.6488 185.144 61.5421 185.549 61.3288 185.912C61.1154 186.264 60.8061 186.531 60.4008 186.712C60.8808 186.851 61.2701 187.101 61.5688 187.464C61.8674 187.816 62.0168 188.253 62.0168 188.776C62.0168 189.48 61.7661 190.029 61.2648 190.424C60.7741 190.808 60.1288 191 59.3288 191H55.0888ZM56.4328 186.328H59.0408C59.4141 186.328 59.7181 186.189 59.9528 185.912C60.1981 185.624 60.3208 185.299 60.3208 184.936C60.3208 184.584 60.2034 184.28 59.9688 184.024C59.7448 183.768 59.4514 183.64 59.0888 183.64H56.4328V186.328ZM56.4328 190.008H59.2968C59.6808 190.008 60.0008 189.869 60.2568 189.592C60.5234 189.315 60.6568 188.995 60.6568 188.632C60.6568 188.259 60.5288 187.939 60.2728 187.672C60.0274 187.395 59.7181 187.256 59.3448 187.256H56.4328V190.008ZM63.0719 191.064V189.8C63.4345 189.789 63.7545 189.656 64.0319 189.4C64.3092 189.144 64.5279 188.675 64.6879 187.992C64.8585 187.309 64.9652 186.333 65.0079 185.064L65.1039 182.648H70.7839V191H69.3759V183.896H66.3519L66.3199 185.192C66.2665 186.707 66.1119 187.891 65.8559 188.744C65.6105 189.597 65.2532 190.195 64.7839 190.536C64.3252 190.877 63.7545 191.053 63.0719 191.064ZM76.7539 191.16C75.9219 191.16 75.1859 190.963 74.5459 190.568C73.9059 190.173 73.4045 189.645 73.0419 188.984C72.6792 188.323 72.4979 187.603 72.4979 186.824C72.4979 186.035 72.6792 185.315 73.0419 184.664C73.4045 184.013 73.9059 183.491 74.5459 183.096C75.1965 182.701 75.9379 182.504 76.7699 182.504C77.6125 182.504 78.3432 182.707 78.9619 183.112C79.5912 183.507 80.0765 184.029 80.4179 184.68C80.7699 185.32 80.9459 186.013 80.9459 186.76C80.9459 186.995 80.9352 187.176 80.9139 187.304H73.9859C74.0285 187.848 74.1779 188.333 74.4339 188.76C74.7005 189.176 75.0419 189.507 75.4579 189.752C75.8739 189.987 76.3219 190.104 76.8019 190.104C77.3139 190.104 77.7939 189.976 78.2419 189.72C78.7005 189.464 79.0152 189.128 79.1859 188.712L80.4019 189.048C80.1352 189.667 79.6712 190.173 79.0099 190.568C78.3485 190.963 77.5965 191.16 76.7539 191.16ZM73.9379 186.328H79.6339C79.5912 185.784 79.4365 185.304 79.1699 184.888C78.9032 184.472 78.5619 184.147 78.1459 183.912C77.7299 183.677 77.2712 183.56 76.7699 183.56C76.2792 183.56 75.8259 183.677 75.4099 183.912C74.9939 184.147 74.6525 184.472 74.3859 184.888C74.1299 185.304 73.9805 185.784 73.9379 186.328ZM82.495 191V182.648H83.903V186.104H88.255V182.648H89.663V191H88.255V187.352H83.903V191H82.495ZM91.9169 191V182.664H93.3249V189.112L97.9969 182.648H99.2769V191H97.8689V184.68L93.2609 191H91.9169ZM101.511 191V182.664H102.919V189.112L107.591 182.648H108.871V191H107.463V184.68L102.855 191H101.511ZM105.207 181.704C104.439 181.704 103.857 181.523 103.463 181.16C103.068 180.787 102.871 180.328 102.871 179.784H103.863C103.863 180.083 103.964 180.333 104.167 180.536C104.38 180.728 104.727 180.824 105.207 180.824C105.676 180.824 106.007 180.733 106.199 180.552C106.391 180.36 106.508 180.104 106.551 179.784H107.543C107.543 180.328 107.345 180.787 106.951 181.16C106.556 181.523 105.975 181.704 105.207 181.704ZM119.903 191V187.656C119.253 187.965 118.517 188.12 117.695 188.12C115.839 188.12 114.911 187.171 114.911 185.272V182.648H116.319V185.08C116.319 185.752 116.458 186.243 116.735 186.552C117.013 186.861 117.455 187.016 118.063 187.016C118.405 187.016 118.741 186.979 119.071 186.904C119.413 186.829 119.69 186.728 119.903 186.6V182.648H121.327V191H119.903ZM122.949 188.584C122.949 188.051 123.098 187.592 123.397 187.208C123.706 186.813 124.127 186.509 124.661 186.296C125.194 186.083 125.813 185.976 126.517 185.976C126.89 185.976 127.285 186.008 127.701 186.072C128.117 186.125 128.485 186.211 128.805 186.328V185.72C128.805 185.08 128.613 184.579 128.229 184.216C127.845 183.843 127.301 183.656 126.597 183.656C126.138 183.656 125.695 183.741 125.269 183.912C124.853 184.072 124.41 184.307 123.941 184.616L123.429 183.624C123.973 183.251 124.517 182.973 125.061 182.792C125.605 182.6 126.17 182.504 126.757 182.504C127.823 182.504 128.666 182.803 129.285 183.4C129.903 183.987 130.213 184.808 130.213 185.864V189.4C130.213 189.731 130.362 189.901 130.661 189.912V191C130.522 191.021 130.399 191.037 130.293 191.048C130.197 191.059 130.117 191.064 130.053 191.064C129.722 191.064 129.471 190.973 129.301 190.792C129.141 190.611 129.05 190.419 129.029 190.216L128.997 189.688C128.634 190.157 128.159 190.52 127.573 190.776C126.986 191.032 126.405 191.16 125.829 191.16C125.274 191.16 124.778 191.048 124.341 190.824C123.903 190.589 123.562 190.28 123.317 189.896C123.071 189.501 122.949 189.064 122.949 188.584ZM128.389 189.176C128.517 189.027 128.618 188.877 128.693 188.728C128.767 188.568 128.805 188.435 128.805 188.328V187.288C128.122 187.021 127.418 186.888 126.693 186.888C125.978 186.888 125.397 187.032 124.949 187.32C124.511 187.597 124.293 187.981 124.293 188.472C124.293 188.739 124.362 189 124.501 189.256C124.65 189.501 124.863 189.704 125.141 189.864C125.429 190.024 125.781 190.104 126.197 190.104C126.634 190.104 127.05 190.019 127.445 189.848C127.839 189.667 128.154 189.443 128.389 189.176ZM136.16 191.16C135.328 191.16 134.592 190.963 133.952 190.568C133.312 190.163 132.811 189.629 132.448 188.968C132.085 188.307 131.904 187.587 131.904 186.808C131.904 186.019 132.08 185.299 132.432 184.648C132.784 183.997 133.28 183.48 133.92 183.096C134.56 182.701 135.301 182.504 136.144 182.504C136.965 182.504 137.68 182.691 138.288 183.064C138.907 183.427 139.365 183.917 139.664 184.536L138.288 184.968C138.075 184.573 137.776 184.269 137.392 184.056C137.008 183.832 136.581 183.72 136.112 183.72C135.6 183.72 135.131 183.853 134.704 184.12C134.288 184.387 133.957 184.755 133.712 185.224C133.467 185.683 133.344 186.211 133.344 186.808C133.344 187.395 133.467 187.928 133.712 188.408C133.968 188.877 134.304 189.251 134.72 189.528C135.147 189.805 135.616 189.944 136.128 189.944C136.459 189.944 136.773 189.885 137.072 189.768C137.381 189.651 137.648 189.496 137.872 189.304C138.107 189.101 138.267 188.883 138.352 188.648L139.728 189.064C139.483 189.672 139.035 190.173 138.384 190.568C137.744 190.963 137.003 191.16 136.16 191.16ZM145.354 191V182.648H149.674C150.176 182.648 150.592 182.749 150.922 182.952C151.253 183.144 151.498 183.395 151.658 183.704C151.829 184.013 151.914 184.344 151.914 184.696C151.914 185.144 151.808 185.549 151.594 185.912C151.381 186.264 151.072 186.531 150.666 186.712C151.146 186.851 151.536 187.101 151.834 187.464C152.133 187.816 152.282 188.253 152.282 188.776C152.282 189.48 152.032 190.029 151.53 190.424C151.04 190.808 150.394 191 149.594 191H145.354ZM146.698 186.328H149.306C149.68 186.328 149.984 186.189 150.218 185.912C150.464 185.624 150.586 185.299 150.586 184.936C150.586 184.584 150.469 184.28 150.234 184.024C150.01 183.768 149.717 183.64 149.354 183.64H146.698V186.328ZM146.698 190.008H149.562C149.946 190.008 150.266 189.869 150.522 189.592C150.789 189.315 150.922 188.995 150.922 188.632C150.922 188.259 150.794 187.939 150.538 187.672C150.293 187.395 149.984 187.256 149.61 187.256H146.698V190.008ZM154.058 191V182.664H155.466V189.112L160.138 182.648H161.418V191H160.01V184.68L155.402 191H154.058ZM163.651 191V182.648H165.059V186.088H165.987L168.611 182.648H170.211L167.091 186.696L170.579 191H168.947L165.987 187.384H165.059V191H163.651ZM175.175 191.16C174.343 191.16 173.607 190.963 172.967 190.568C172.337 190.163 171.847 189.635 171.495 188.984C171.143 188.323 170.967 187.608 170.967 186.84C170.967 186.061 171.143 185.347 171.495 184.696C171.857 184.035 172.353 183.507 172.983 183.112C173.623 182.707 174.353 182.504 175.175 182.504C176.007 182.504 176.737 182.707 177.367 183.112C178.007 183.507 178.503 184.035 178.855 184.696C179.217 185.347 179.399 186.061 179.399 186.84C179.399 187.608 179.217 188.323 178.855 188.984C178.503 189.635 178.012 190.163 177.383 190.568C176.753 190.963 176.017 191.16 175.175 191.16ZM172.407 186.856C172.407 187.432 172.529 187.955 172.775 188.424C173.031 188.893 173.367 189.267 173.783 189.544C174.199 189.811 174.663 189.944 175.175 189.944C175.687 189.944 176.151 189.805 176.567 189.528C176.993 189.251 177.329 188.877 177.575 188.408C177.831 187.928 177.959 187.4 177.959 186.824C177.959 186.248 177.831 185.725 177.575 185.256C177.329 184.787 176.993 184.413 176.567 184.136C176.151 183.859 175.687 183.72 175.175 183.72C174.663 183.72 174.199 183.864 173.783 184.152C173.367 184.429 173.031 184.803 172.775 185.272C172.529 185.741 172.407 186.269 172.407 186.856ZM181.089 191V182.648H182.497V186.104H186.849V182.648H188.257V191H186.849V187.352H182.497V191H181.089ZM191.41 194.504C191.058 194.504 190.685 194.397 190.29 194.184L190.77 193.224C190.952 193.331 191.133 193.384 191.314 193.384C191.837 193.384 192.296 192.899 192.69 191.928L193.09 190.92L189.426 182.648H190.914L193.73 189.576L196.274 182.648H197.666L193.762 192.36C193.474 193.075 193.128 193.608 192.722 193.96C192.317 194.323 191.88 194.504 191.41 194.504ZM202.456 191.144C201.806 191.144 201.219 191.021 200.696 190.776C200.184 190.531 199.742 190.205 199.368 189.8C199.006 189.384 198.723 188.92 198.52 188.408C198.328 187.885 198.232 187.347 198.232 186.792C198.232 186.259 198.323 185.736 198.504 185.224C198.696 184.712 198.974 184.253 199.336 183.848C199.699 183.432 200.142 183.107 200.664 182.872C201.198 182.627 201.806 182.504 202.488 182.504C203.31 182.504 204.014 182.68 204.6 183.032C205.187 183.384 205.63 183.848 205.928 184.424L204.856 184.984C204.59 184.504 204.248 184.163 203.832 183.96C203.427 183.757 202.99 183.656 202.52 183.656C201.976 183.656 201.502 183.784 201.096 184.04C200.691 184.285 200.371 184.611 200.136 185.016C199.902 185.411 199.752 185.832 199.688 186.28H203.288V187.24H199.688C199.742 187.741 199.896 188.205 200.152 188.632C200.408 189.048 200.744 189.384 201.16 189.64C201.576 189.885 202.04 190.008 202.552 190.008C203.022 190.008 203.47 189.896 203.896 189.672C204.334 189.437 204.686 189.08 204.952 188.6L206.088 189.128C205.768 189.768 205.272 190.264 204.6 190.616C203.939 190.968 203.224 191.144 202.456 191.144ZM207.761 191V182.648H209.217L212.321 188.12L215.441 182.648H216.865V191H215.521V184.68L212.769 189.512H211.873L209.105 184.68V191H207.761ZM222.784 191.16C221.952 191.16 221.216 190.963 220.576 190.568C219.947 190.163 219.456 189.635 219.104 188.984C218.752 188.323 218.576 187.608 218.576 186.84C218.576 186.061 218.752 185.347 219.104 184.696C219.467 184.035 219.963 183.507 220.592 183.112C221.232 182.707 221.963 182.504 222.784 182.504C223.616 182.504 224.347 182.707 224.976 183.112C225.616 183.507 226.112 184.035 226.464 184.696C226.827 185.347 227.008 186.061 227.008 186.84C227.008 187.608 226.827 188.323 226.464 188.984C226.112 189.635 225.621 190.163 224.992 190.568C224.363 190.963 223.627 191.16 222.784 191.16ZM220.016 186.856C220.016 187.432 220.139 187.955 220.384 188.424C220.64 188.893 220.976 189.267 221.392 189.544C221.808 189.811 222.272 189.944 222.784 189.944C223.296 189.944 223.76 189.805 224.176 189.528C224.603 189.251 224.939 188.877 225.184 188.408C225.44 187.928 225.568 187.4 225.568 186.824C225.568 186.248 225.44 185.725 225.184 185.256C224.939 184.787 224.603 184.413 224.176 184.136C223.76 183.859 223.296 183.72 222.784 183.72C222.272 183.72 221.808 183.864 221.392 184.152C220.976 184.429 220.64 184.803 220.384 185.272C220.139 185.741 220.016 186.269 220.016 186.856ZM0.208 215.968V212.752H0.384C0.693333 212.752 0.970667 212.624 1.216 212.368C1.472 212.101 1.68 211.632 1.84 210.96C2 210.277 2.096 209.312 2.128 208.064L2.208 205.648H7.888V212.752H9.024V215.968H7.776V214H1.456V215.968H0.208ZM2.352 212.752H6.48V206.896H3.456L3.408 208.192C3.36533 209.557 3.25333 210.592 3.072 211.296C2.90133 212 2.66133 212.485 2.352 212.752ZM14.2371 214.16C13.4051 214.16 12.6691 213.963 12.0291 213.568C11.3998 213.163 10.9091 212.635 10.5571 211.984C10.2051 211.323 10.0291 210.608 10.0291 209.84C10.0291 209.061 10.2051 208.347 10.5571 207.696C10.9198 207.035 11.4158 206.507 12.0451 206.112C12.6851 205.707 13.4158 205.504 14.2371 205.504C15.0691 205.504 15.7998 205.707 16.4291 206.112C17.0691 206.507 17.5651 207.035 17.9171 207.696C18.2798 208.347 18.4611 209.061 18.4611 209.84C18.4611 210.608 18.2798 211.323 17.9171 211.984C17.5651 212.635 17.0745 213.163 16.4451 213.568C15.8158 213.963 15.0798 214.16 14.2371 214.16ZM11.4691 209.856C11.4691 210.432 11.5918 210.955 11.8371 211.424C12.0931 211.893 12.4291 212.267 12.8451 212.544C13.2611 212.811 13.7251 212.944 14.2371 212.944C14.7491 212.944 15.2131 212.805 15.6291 212.528C16.0558 212.251 16.3918 211.877 16.6371 211.408C16.8931 210.928 17.0211 210.4 17.0211 209.824C17.0211 209.248 16.8931 208.725 16.6371 208.256C16.3918 207.787 16.0558 207.413 15.6291 207.136C15.2131 206.859 14.7491 206.72 14.2371 206.72C13.7251 206.72 13.2611 206.864 12.8451 207.152C12.4291 207.429 12.0931 207.803 11.8371 208.272C11.5918 208.741 11.4691 209.269 11.4691 209.856ZM23.8633 214.16C23.0313 214.16 22.2953 213.963 21.6553 213.568C21.0153 213.163 20.5139 212.629 20.1513 211.968C19.7886 211.307 19.6073 210.587 19.6073 209.808C19.6073 209.019 19.7833 208.299 20.1353 207.648C20.4873 206.997 20.9833 206.48 21.6233 206.096C22.2633 205.701 23.0046 205.504 23.8473 205.504C24.6686 205.504 25.3833 205.691 25.9913 206.064C26.6099 206.427 27.0686 206.917 27.3673 207.536L25.9913 207.968C25.7779 207.573 25.4793 207.269 25.0953 207.056C24.7113 206.832 24.2846 206.72 23.8153 206.72C23.3033 206.72 22.8339 206.853 22.4073 207.12C21.9913 207.387 21.6606 207.755 21.4153 208.224C21.1699 208.683 21.0473 209.211 21.0473 209.808C21.0473 210.395 21.1699 210.928 21.4153 211.408C21.6713 211.877 22.0073 212.251 22.4233 212.528C22.8499 212.805 23.3193 212.944 23.8313 212.944C24.1619 212.944 24.4766 212.885 24.7753 212.768C25.0846 212.651 25.3513 212.496 25.5753 212.304C25.8099 212.101 25.9699 211.883 26.0553 211.648L27.4313 212.064C27.1859 212.672 26.7379 213.173 26.0873 213.568C25.4473 213.963 24.7059 214.16 23.8633 214.16ZM31.0586 214V206.896H28.1786V205.648H35.3466V206.896H32.4666V214H31.0586ZM36.105 211.584C36.105 211.051 36.2543 210.592 36.553 210.208C36.8623 209.813 37.2837 209.509 37.817 209.296C38.3503 209.083 38.969 208.976 39.673 208.976C40.0463 208.976 40.441 209.008 40.857 209.072C41.273 209.125 41.641 209.211 41.961 209.328V208.72C41.961 208.08 41.769 207.579 41.385 207.216C41.001 206.843 40.457 206.656 39.753 206.656C39.2943 206.656 38.8517 206.741 38.425 206.912C38.009 207.072 37.5663 207.307 37.097 207.616L36.585 206.624C37.129 206.251 37.673 205.973 38.217 205.792C38.761 205.6 39.3263 205.504 39.913 205.504C40.9797 205.504 41.8223 205.803 42.441 206.4C43.0597 206.987 43.369 207.808 43.369 208.864V212.4C43.369 212.731 43.5183 212.901 43.817 212.912V214C43.6783 214.021 43.5557 214.037 43.449 214.048C43.353 214.059 43.273 214.064 43.209 214.064C42.8783 214.064 42.6277 213.973 42.457 213.792C42.297 213.611 42.2063 213.419 42.185 213.216L42.153 212.688C41.7903 213.157 41.3157 213.52 40.729 213.776C40.1423 214.032 39.561 214.16 38.985 214.16C38.4303 214.16 37.9343 214.048 37.497 213.824C37.0597 213.589 36.7183 213.28 36.473 212.896C36.2277 212.501 36.105 212.064 36.105 211.584ZM41.545 212.176C41.673 212.027 41.7743 211.877 41.849 211.728C41.9237 211.568 41.961 211.435 41.961 211.328V210.288C41.2783 210.021 40.5743 209.888 39.849 209.888C39.1343 209.888 38.553 210.032 38.105 210.32C37.6677 210.597 37.449 210.981 37.449 211.472C37.449 211.739 37.5183 212 37.657 212.256C37.8063 212.501 38.0197 212.704 38.297 212.864C38.585 213.024 38.937 213.104 39.353 213.104C39.7903 213.104 40.2063 213.019 40.601 212.848C40.9957 212.667 41.3103 212.443 41.545 212.176ZM45.6044 214V205.648H49.9244C50.4257 205.648 50.8417 205.749 51.1724 205.952C51.503 206.144 51.7484 206.395 51.9084 206.704C52.079 207.013 52.1644 207.344 52.1644 207.696C52.1644 208.144 52.0577 208.549 51.8444 208.912C51.631 209.264 51.3217 209.531 50.9164 209.712C51.3964 209.851 51.7857 210.101 52.0844 210.464C52.383 210.816 52.5324 211.253 52.5324 211.776C52.5324 212.48 52.2817 213.029 51.7804 213.424C51.2897 213.808 50.6444 214 49.8444 214H45.6044ZM46.9484 209.328H49.5564C49.9297 209.328 50.2337 209.189 50.4684 208.912C50.7137 208.624 50.8364 208.299 50.8364 207.936C50.8364 207.584 50.719 207.28 50.4844 207.024C50.2604 206.768 49.967 206.64 49.6044 206.64H46.9484V209.328ZM46.9484 213.008H49.8124C50.1964 213.008 50.5164 212.869 50.7724 212.592C51.039 212.315 51.1724 211.995 51.1724 211.632C51.1724 211.259 51.0444 210.939 50.7884 210.672C50.543 210.395 50.2337 210.256 49.8604 210.256H46.9484V213.008ZM54.3075 214V205.648H55.7155V209.088H56.6435L59.2675 205.648H60.8675L57.7475 209.696L61.2355 214H59.6035L56.6435 210.384H55.7155V214H54.3075ZM63.6604 217.504C63.3084 217.504 62.935 217.397 62.5404 217.184L63.0204 216.224C63.2017 216.331 63.383 216.384 63.5644 216.384C64.087 216.384 64.5457 215.899 64.9404 214.928L65.3404 213.92L61.6764 205.648H63.1644L65.9804 212.576L68.5244 205.648H69.9164L66.0124 215.36C65.7244 216.075 65.3777 216.608 64.9724 216.96C64.567 217.323 64.1297 217.504 63.6604 217.504ZM76.9805 214V206.896H74.1005V205.648H81.2685V206.896H78.3885V214H76.9805ZM82.0269 211.584C82.0269 211.051 82.1762 210.592 82.4749 210.208C82.7842 209.813 83.2055 209.509 83.7389 209.296C84.2722 209.083 84.8909 208.976 85.5949 208.976C85.9682 208.976 86.3629 209.008 86.7789 209.072C87.1949 209.125 87.5629 209.211 87.8829 209.328V208.72C87.8829 208.08 87.6909 207.579 87.3069 207.216C86.9229 206.843 86.3789 206.656 85.6749 206.656C85.2162 206.656 84.7735 206.741 84.3469 206.912C83.9309 207.072 83.4882 207.307 83.0189 207.616L82.5069 206.624C83.0509 206.251 83.5949 205.973 84.1389 205.792C84.6829 205.6 85.2482 205.504 85.8349 205.504C86.9015 205.504 87.7442 205.803 88.3629 206.4C88.9815 206.987 89.2909 207.808 89.2909 208.864V212.4C89.2909 212.731 89.4402 212.901 89.7389 212.912V214C89.6002 214.021 89.4775 214.037 89.3709 214.048C89.2749 214.059 89.1949 214.064 89.1309 214.064C88.8002 214.064 88.5495 213.973 88.3789 213.792C88.2189 213.611 88.1282 213.419 88.1069 213.216L88.0749 212.688C87.7122 213.157 87.2375 213.52 86.6509 213.776C86.0642 214.032 85.4829 214.16 84.9069 214.16C84.3522 214.16 83.8562 214.048 83.4189 213.824C82.9815 213.589 82.6402 213.28 82.3949 212.896C82.1495 212.501 82.0269 212.064 82.0269 211.584ZM87.4669 212.176C87.5949 212.027 87.6962 211.877 87.7709 211.728C87.8455 211.568 87.8829 211.435 87.8829 211.328V210.288C87.2002 210.021 86.4962 209.888 85.7709 209.888C85.0562 209.888 84.4749 210.032 84.0269 210.32C83.5895 210.597 83.3709 210.981 83.3709 211.472C83.3709 211.739 83.4402 212 83.5789 212.256C83.7282 212.501 83.9415 212.704 84.2189 212.864C84.5069 213.024 84.8589 213.104 85.2749 213.104C85.7122 213.104 86.1282 213.019 86.5229 212.848C86.9175 212.667 87.2322 212.443 87.4669 212.176ZM95.5731 214V205.648H97.0291L100.133 211.12L103.253 205.648H104.677V214H103.333V207.68L100.581 212.512H99.6851L96.9171 207.68V214H95.5731ZM110.597 214.16C109.765 214.16 109.029 213.963 108.389 213.568C107.759 213.163 107.269 212.635 106.917 211.984C106.565 211.323 106.389 210.608 106.389 209.84C106.389 209.061 106.565 208.347 106.917 207.696C107.279 207.035 107.775 206.507 108.405 206.112C109.045 205.707 109.775 205.504 110.597 205.504C111.429 205.504 112.159 205.707 112.789 206.112C113.429 206.507 113.925 207.035 114.277 207.696C114.639 208.347 114.821 209.061 114.821 209.84C114.821 210.608 114.639 211.323 114.277 211.984C113.925 212.635 113.434 213.163 112.805 213.568C112.175 213.963 111.439 214.16 110.597 214.16ZM107.829 209.856C107.829 210.432 107.951 210.955 108.197 211.424C108.453 211.893 108.789 212.267 109.205 212.544C109.621 212.811 110.085 212.944 110.597 212.944C111.109 212.944 111.573 212.805 111.989 212.528C112.415 212.251 112.751 211.877 112.997 211.408C113.253 210.928 113.381 210.4 113.381 209.824C113.381 209.248 113.253 208.725 112.997 208.256C112.751 207.787 112.415 207.413 111.989 207.136C111.573 206.859 111.109 206.72 110.597 206.72C110.085 206.72 109.621 206.864 109.205 207.152C108.789 207.429 108.453 207.803 108.197 208.272C107.951 208.741 107.829 209.269 107.829 209.856ZM116.511 214V205.648H117.919V209.104H122.271V205.648H123.679V214H122.271V210.352H117.919V214H116.511ZM127.981 214V206.896H125.101V205.648H132.269V206.896H129.389V214H127.981ZM133.027 211.584C133.027 211.051 133.176 210.592 133.475 210.208C133.784 209.813 134.206 209.509 134.739 209.296C135.272 209.083 135.891 208.976 136.595 208.976C136.968 208.976 137.363 209.008 137.779 209.072C138.195 209.125 138.563 209.211 138.883 209.328V208.72C138.883 208.08 138.691 207.579 138.307 207.216C137.923 206.843 137.379 206.656 136.675 206.656C136.216 206.656 135.774 206.741 135.347 206.912C134.931 207.072 134.488 207.307 134.019 207.616L133.507 206.624C134.051 206.251 134.595 205.973 135.139 205.792C135.683 205.6 136.248 205.504 136.835 205.504C137.902 205.504 138.744 205.803 139.363 206.4C139.982 206.987 140.291 207.808 140.291 208.864V212.4C140.291 212.731 140.44 212.901 140.739 212.912V214C140.6 214.021 140.478 214.037 140.371 214.048C140.275 214.059 140.195 214.064 140.131 214.064C139.8 214.064 139.55 213.973 139.379 213.792C139.219 213.611 139.128 213.419 139.107 213.216L139.075 212.688C138.712 213.157 138.238 213.52 137.651 213.776C137.064 214.032 136.483 214.16 135.907 214.16C135.352 214.16 134.856 214.048 134.419 213.824C133.982 213.589 133.64 213.28 133.395 212.896C133.15 212.501 133.027 212.064 133.027 211.584ZM138.467 212.176C138.595 212.027 138.696 211.877 138.771 211.728C138.846 211.568 138.883 211.435 138.883 211.328V210.288C138.2 210.021 137.496 209.888 136.771 209.888C136.056 209.888 135.475 210.032 135.027 210.32C134.59 210.597 134.371 210.981 134.371 211.472C134.371 211.739 134.44 212 134.579 212.256C134.728 212.501 134.942 212.704 135.219 212.864C135.507 213.024 135.859 213.104 136.275 213.104C136.712 213.104 137.128 213.019 137.523 212.848C137.918 212.667 138.232 212.443 138.467 212.176ZM141.966 214L145.038 209.696L142.238 205.648H143.822L146.222 209.12H147.118V205.648H148.558V209.12H149.486L151.838 205.648H153.438L150.638 209.696L153.726 214H152.11L149.486 210.352H148.558V214H147.118V210.352H146.222L143.582 214H141.966ZM155.305 214V212.208H156.489V214H155.305Z" fill="#282B22"/>
</svg>
