<svg width="240" height="220" viewBox="0 0 240 220" fill="none" xmlns="http://www.w3.org/2000/svg">
<path d="M1.458 110V97.22H11.556V110H9.522V99.002H3.474V110H1.458ZM14.1958 99.038V96.86H16.1758V99.038H14.1958ZM14.1958 110V100.586H16.1758V110H14.1958ZM17.6552 112.25V108.254H17.8712C18.2072 108.254 18.5072 108.122 18.7712 107.858C19.0472 107.594 19.2692 107.114 19.4372 106.418C19.6172 105.722 19.7252 104.726 19.7612 103.43L19.8692 100.586H26.5832V108.254H27.8792V112.25H26.1332V110H19.3832V112.25H17.6552ZM20.4812 108.254H24.6032V102.296H21.6152L21.5612 103.61C21.5012 104.99 21.3812 106.04 21.2012 106.76C21.0332 107.48 20.7932 107.978 20.4812 108.254ZM29.5591 110V100.586H37.6591V110H35.6791V102.332H31.5391V110H29.5591ZM40.0532 110V100.604H42.0332V107.354L46.8032 100.586H48.6032V110H46.6232V103.394L41.9072 110H40.0532ZM55.2353 110.18C54.2633 110.18 53.4113 109.958 52.6793 109.514C51.9473 109.058 51.3773 108.458 50.9692 107.714C50.5613 106.97 50.3573 106.16 50.3573 105.284C50.3573 104.408 50.5553 103.604 50.9513 102.872C51.3593 102.128 51.9233 101.534 52.6433 101.09C53.3753 100.646 54.2393 100.424 55.2353 100.424C56.2073 100.424 57.0413 100.64 57.7373 101.072C58.4453 101.492 58.9733 102.056 59.3213 102.764L57.3953 103.376C57.1793 102.98 56.8733 102.674 56.4773 102.458C56.0933 102.23 55.6673 102.116 55.1993 102.116C54.6713 102.116 54.1913 102.254 53.7593 102.53C53.3393 102.794 53.0033 103.166 52.7513 103.646C52.5113 104.126 52.3913 104.672 52.3913 105.284C52.3913 105.896 52.5173 106.442 52.7693 106.922C53.0333 107.402 53.3753 107.786 53.7953 108.074C54.2273 108.35 54.7013 108.488 55.2173 108.488C55.6973 108.488 56.1533 108.362 56.5853 108.11C57.0173 107.858 57.3053 107.552 57.4493 107.192L59.3933 107.768C59.0813 108.476 58.5593 109.058 57.8273 109.514C57.0953 109.958 56.2313 110.18 55.2353 110.18ZM60.3399 107.246C60.3399 106.646 60.5079 106.124 60.8439 105.68C61.1799 105.224 61.6479 104.876 62.2479 104.636C62.8599 104.384 63.5619 104.258 64.3539 104.258C64.7739 104.258 65.1999 104.294 65.6319 104.366C66.0759 104.426 66.4659 104.516 66.8019 104.636V104.042C66.8019 103.382 66.6039 102.866 66.2079 102.494C65.8119 102.122 65.2419 101.936 64.4979 101.936C63.9819 101.936 63.4839 102.026 63.0039 102.206C62.5239 102.386 62.0259 102.65 61.5099 102.998L60.8439 101.666C61.4679 101.258 62.0919 100.952 62.7159 100.748C63.3519 100.532 64.0179 100.424 64.7139 100.424C65.9739 100.424 66.9639 100.76 67.6839 101.432C68.4159 102.092 68.7819 103.034 68.7819 104.258V107.768C68.7819 107.996 68.8179 108.158 68.8899 108.254C68.9739 108.35 69.1119 108.404 69.3039 108.416V110C69.1239 110.036 68.9619 110.06 68.8179 110.072C68.6739 110.084 68.5539 110.09 68.4579 110.09C68.0259 110.09 67.7019 109.988 67.4859 109.784C67.2819 109.568 67.1619 109.328 67.1259 109.064L67.0719 108.524C66.6639 109.052 66.1419 109.46 65.5059 109.748C64.8699 110.036 64.2279 110.18 63.5799 110.18C62.9559 110.18 62.3979 110.054 61.9059 109.802C61.4139 109.538 61.0299 109.184 60.7539 108.74C60.4779 108.296 60.3399 107.798 60.3399 107.246ZM66.3339 107.822C66.6459 107.51 66.8019 107.216 66.8019 106.94V105.86C66.0939 105.596 65.3739 105.464 64.6419 105.464C63.9219 105.464 63.3339 105.614 62.8779 105.914C62.4339 106.202 62.2119 106.592 62.2119 107.084C62.2119 107.492 62.3739 107.87 62.6979 108.218C63.0339 108.554 63.5139 108.722 64.1379 108.722C64.5579 108.722 64.9659 108.638 65.3619 108.47C65.7579 108.302 66.0819 108.086 66.3339 107.822ZM71.1841 110V100.586H73.1641V104.33H77.5381V100.586H79.5181V110H77.5381V106.04H73.1641V110H71.1841ZM81.9067 110V100.586H83.8868V104.33H88.2608V100.586H90.2408V110H88.2608V106.04H83.8868V110H81.9067ZM92.0354 110L94.5554 106.274C93.9674 106.13 93.4994 105.83 93.1514 105.374C92.8034 104.918 92.6294 104.306 92.6294 103.538C92.6294 102.662 92.9294 101.948 93.5294 101.396C94.1294 100.844 94.9154 100.568 95.8874 100.568H100.027V110H98.0474V106.598H96.4994L94.1954 110H92.0354ZM96.0854 105.158H98.0474V102.098H96.2114C95.7074 102.098 95.3054 102.236 95.0054 102.512C94.7174 102.788 94.5734 103.148 94.5734 103.592C94.5734 104.036 94.6994 104.408 94.9514 104.708C95.2034 105.008 95.5814 105.158 96.0854 105.158ZM105.968 112.25V108.254H106.184C106.52 108.254 106.82 108.122 107.084 107.858C107.36 107.594 107.582 107.114 107.75 106.418C107.93 105.722 108.038 104.726 108.074 103.43L108.182 100.586H114.896V108.254H116.192V112.25H114.446V110H107.696V112.25H105.968ZM108.794 108.254H112.916V102.296H109.928L109.874 103.61C109.814 104.99 109.694 106.04 109.514 106.76C109.346 107.48 109.106 107.978 108.794 108.254ZM122.102 110.18C121.118 110.18 120.26 109.958 119.528 109.514C118.808 109.058 118.25 108.464 117.854 107.732C117.458 106.988 117.26 106.178 117.26 105.302C117.26 104.426 117.458 103.622 117.854 102.89C118.262 102.146 118.826 101.552 119.546 101.108C120.278 100.652 121.13 100.424 122.102 100.424C123.074 100.424 123.92 100.652 124.64 101.108C125.372 101.552 125.936 102.146 126.332 102.89C126.74 103.622 126.944 104.426 126.944 105.302C126.944 106.178 126.746 106.988 126.35 107.732C125.954 108.464 125.39 109.058 124.658 109.514C123.938 109.958 123.086 110.18 122.102 110.18ZM119.294 105.32C119.294 105.92 119.42 106.46 119.672 106.94C119.924 107.42 120.26 107.798 120.68 108.074C121.1 108.35 121.574 108.488 122.102 108.488C122.618 108.488 123.086 108.35 123.506 108.074C123.938 107.786 124.28 107.402 124.532 106.922C124.784 106.442 124.91 105.902 124.91 105.302C124.91 104.702 124.784 104.162 124.532 103.682C124.28 103.202 123.938 102.824 123.506 102.548C123.086 102.26 122.618 102.116 122.102 102.116C121.586 102.116 121.112 102.26 120.68 102.548C120.26 102.824 119.924 103.208 119.672 103.7C119.42 104.18 119.294 104.72 119.294 105.32ZM128.7 110V100.586H134.712V102.332H130.68V110H128.7ZM140.436 110.18C139.452 110.18 138.594 109.958 137.862 109.514C137.142 109.058 136.584 108.464 136.188 107.732C135.792 106.988 135.594 106.178 135.594 105.302C135.594 104.426 135.792 103.622 136.188 102.89C136.596 102.146 137.16 101.552 137.88 101.108C138.612 100.652 139.464 100.424 140.436 100.424C141.408 100.424 142.254 100.652 142.974 101.108C143.706 101.552 144.27 102.146 144.666 102.89C145.074 103.622 145.278 104.426 145.278 105.302C145.278 106.178 145.08 106.988 144.684 107.732C144.288 108.464 143.724 109.058 142.992 109.514C142.272 109.958 141.42 110.18 140.436 110.18ZM137.628 105.32C137.628 105.92 137.754 106.46 138.006 106.94C138.258 107.42 138.594 107.798 139.014 108.074C139.434 108.35 139.908 108.488 140.436 108.488C140.952 108.488 141.42 108.35 141.84 108.074C142.272 107.786 142.614 107.402 142.866 106.922C143.118 106.442 143.244 105.902 143.244 105.302C143.244 104.702 143.118 104.162 142.866 103.682C142.614 103.202 142.272 102.824 141.84 102.548C141.42 102.26 140.952 102.116 140.436 102.116C139.92 102.116 139.446 102.26 139.014 102.548C138.594 102.824 138.258 103.208 138.006 103.7C137.754 104.18 137.628 104.72 137.628 105.32ZM147.034 110V100.586H152.074C152.674 100.586 153.166 100.7 153.55 100.928C153.946 101.144 154.24 101.426 154.432 101.774C154.624 102.122 154.72 102.494 154.72 102.89C154.72 103.406 154.594 103.862 154.342 104.258C154.102 104.654 153.754 104.954 153.298 105.158C153.838 105.314 154.276 105.59 154.612 105.986C154.96 106.382 155.134 106.88 155.134 107.48C155.134 108.308 154.84 108.938 154.252 109.37C153.664 109.79 152.884 110 151.912 110H147.034ZM148.906 104.618H151.57C151.942 104.618 152.248 104.48 152.488 104.204C152.728 103.928 152.848 103.604 152.848 103.232C152.848 102.884 152.734 102.584 152.506 102.332C152.278 102.08 151.978 101.954 151.606 101.954H148.906V104.618ZM148.906 108.632H151.858C152.242 108.632 152.566 108.5 152.83 108.236C153.094 107.96 153.226 107.636 153.226 107.264C153.226 106.88 153.1 106.556 152.848 106.292C152.596 106.028 152.278 105.896 151.894 105.896H148.906V108.632ZM161.248 110.18C160.264 110.18 159.406 109.958 158.674 109.514C157.954 109.058 157.396 108.464 157 107.732C156.604 106.988 156.406 106.178 156.406 105.302C156.406 104.426 156.604 103.622 157 102.89C157.408 102.146 157.972 101.552 158.692 101.108C159.424 100.652 160.276 100.424 161.248 100.424C162.22 100.424 163.066 100.652 163.786 101.108C164.518 101.552 165.082 102.146 165.478 102.89C165.886 103.622 166.09 104.426 166.09 105.302C166.09 106.178 165.892 106.988 165.496 107.732C165.1 108.464 164.536 109.058 163.804 109.514C163.084 109.958 162.232 110.18 161.248 110.18ZM158.44 105.32C158.44 105.92 158.566 106.46 158.818 106.94C159.07 107.42 159.406 107.798 159.826 108.074C160.246 108.35 160.72 108.488 161.248 108.488C161.764 108.488 162.232 108.35 162.652 108.074C163.084 107.786 163.426 107.402 163.678 106.922C163.93 106.442 164.056 105.902 164.056 105.302C164.056 104.702 163.93 104.162 163.678 103.682C163.426 103.202 163.084 102.824 162.652 102.548C162.232 102.26 161.764 102.116 161.248 102.116C160.732 102.116 160.258 102.26 159.826 102.548C159.406 102.824 159.07 103.208 158.818 103.7C158.566 104.18 158.44 104.72 158.44 105.32ZM173.192 110.18C172.436 110.18 171.77 110 171.194 109.64C170.618 109.28 170.162 108.812 169.826 108.236V113.834H167.846V100.586H169.592V102.278C169.952 101.714 170.42 101.264 170.996 100.928C171.572 100.592 172.214 100.424 172.922 100.424C173.786 100.424 174.548 100.652 175.208 101.108C175.88 101.552 176.408 102.146 176.792 102.89C177.176 103.622 177.368 104.42 177.368 105.284C177.368 106.196 177.188 107.024 176.828 107.768C176.468 108.5 175.976 109.088 175.352 109.532C174.728 109.964 174.008 110.18 173.192 110.18ZM172.544 108.488C173.108 108.488 173.594 108.338 174.002 108.038C174.422 107.726 174.746 107.33 174.974 106.85C175.214 106.358 175.334 105.836 175.334 105.284C175.334 104.708 175.202 104.18 174.938 103.7C174.686 103.22 174.338 102.836 173.894 102.548C173.462 102.26 172.964 102.116 172.4 102.116C172.064 102.116 171.71 102.2 171.338 102.368C170.978 102.536 170.66 102.758 170.384 103.034C170.108 103.31 169.922 103.622 169.826 103.97V106.436C170.066 107.012 170.432 107.498 170.924 107.894C171.428 108.29 171.968 108.488 172.544 108.488ZM180.111 113.996C179.883 113.996 179.649 113.966 179.409 113.906C179.181 113.846 178.935 113.756 178.671 113.636L179.175 112.16C179.451 112.304 179.709 112.376 179.949 112.376C180.561 112.376 181.053 111.884 181.425 110.9L181.785 109.928L177.807 100.586H179.877L182.757 107.984L185.313 100.586H187.221L183.081 111.44C182.769 112.28 182.349 112.916 181.821 113.348C181.305 113.78 180.735 113.996 180.111 113.996Z" fill="#282B22"/>
<path opacity="0.8" d="M10.08 142.072C10.08 142.659 9.93067 143.171 9.632 143.608C9.33333 144.045 8.928 144.387 8.416 144.632C7.91467 144.877 7.36 145 6.752 145H1.36V133.64H7.008C7.54133 133.64 8 133.784 8.384 134.072C8.77867 134.349 9.07733 134.712 9.28 135.16C9.49333 135.597 9.6 136.056 9.6 136.536C9.6 137.091 9.456 137.613 9.168 138.104C8.89067 138.584 8.49067 138.941 7.968 139.176C8.61867 139.368 9.13067 139.725 9.504 140.248C9.888 140.76 10.08 141.368 10.08 142.072ZM2.8 134.888V138.68H6.416C6.91733 138.68 7.33333 138.499 7.664 138.136C8.00533 137.763 8.176 137.315 8.176 136.792C8.176 136.259 8.016 135.811 7.696 135.448C7.38667 135.075 6.992 134.888 6.512 134.888H2.8ZM8.624 141.816C8.624 141.464 8.544 141.139 8.384 140.84C8.23467 140.541 8.02667 140.301 7.76 140.12C7.504 139.939 7.20533 139.848 6.864 139.848H2.8V143.752H6.752C7.104 143.752 7.41867 143.661 7.696 143.48C7.984 143.299 8.208 143.064 8.368 142.776C8.53867 142.477 8.624 142.157 8.624 141.816ZM11.8544 145V136.664H13.2624V143.112L17.9344 136.648H19.2144V145H17.8064V138.68L13.1984 145H11.8544ZM24.0721 145.112C23.2615 145.112 22.5735 144.963 22.0081 144.664C21.4535 144.355 21.0268 143.928 20.7281 143.384L21.8801 142.872C22.0721 143.213 22.3441 143.48 22.6961 143.672C23.0588 143.864 23.4961 143.96 24.0081 143.96C24.6161 143.96 25.0961 143.827 25.4481 143.56C25.8001 143.293 25.9761 142.936 25.9761 142.488C25.9761 142.083 25.8321 141.757 25.5441 141.512C25.2668 141.256 24.8721 141.123 24.3601 141.112H23.5121V140.184H24.4081C24.7495 140.184 25.0268 140.067 25.2401 139.832C25.4641 139.587 25.5761 139.283 25.5761 138.92C25.5761 138.547 25.4428 138.248 25.1761 138.024C24.9095 137.789 24.5095 137.672 23.9761 137.672C23.1335 137.672 22.5308 138.013 22.1681 138.696L21.0961 138.12C21.3628 137.619 21.7468 137.229 22.2481 136.952C22.7601 136.664 23.3575 136.52 24.0401 136.52C24.8615 136.52 25.5335 136.717 26.0561 137.112C26.5788 137.496 26.8401 138.04 26.8401 138.744C26.8401 139.139 26.7441 139.507 26.5521 139.848C26.3708 140.179 26.0988 140.429 25.7361 140.6C26.2375 140.749 26.6215 141.011 26.8881 141.384C27.1548 141.747 27.2881 142.179 27.2881 142.68C27.2881 143.448 26.9841 144.045 26.3761 144.472C25.7788 144.899 25.0108 145.112 24.0721 145.112ZM28.9638 145V136.648H30.3718V140.104H34.7238V136.648H36.1318V145H34.7238V141.352H30.3718V145H28.9638ZM37.7456 142.584C37.7456 142.051 37.895 141.592 38.1936 141.208C38.503 140.813 38.9243 140.509 39.4576 140.296C39.991 140.083 40.6096 139.976 41.3136 139.976C41.687 139.976 42.0816 140.008 42.4976 140.072C42.9136 140.125 43.2816 140.211 43.6016 140.328V139.72C43.6016 139.08 43.4096 138.579 43.0256 138.216C42.6416 137.843 42.0976 137.656 41.3936 137.656C40.935 137.656 40.4923 137.741 40.0656 137.912C39.6496 138.072 39.207 138.307 38.7376 138.616L38.2256 137.624C38.7696 137.251 39.3136 136.973 39.8576 136.792C40.4016 136.6 40.967 136.504 41.5536 136.504C42.6203 136.504 43.463 136.803 44.0816 137.4C44.7003 137.987 45.0096 138.808 45.0096 139.864V143.4C45.0096 143.731 45.159 143.901 45.4576 143.912V145C45.319 145.021 45.1963 145.037 45.0896 145.048C44.9936 145.059 44.9136 145.064 44.8496 145.064C44.519 145.064 44.2683 144.973 44.0976 144.792C43.9376 144.611 43.847 144.419 43.8256 144.216L43.7936 143.688C43.431 144.157 42.9563 144.52 42.3696 144.776C41.783 145.032 41.2016 145.16 40.6256 145.16C40.071 145.16 39.575 145.048 39.1376 144.824C38.7003 144.589 38.359 144.28 38.1136 143.896C37.8683 143.501 37.7456 143.064 37.7456 142.584ZM43.1856 143.176C43.3136 143.027 43.415 142.877 43.4896 142.728C43.5643 142.568 43.6016 142.435 43.6016 142.328V141.288C42.919 141.021 42.215 140.888 41.4896 140.888C40.775 140.888 40.1936 141.032 39.7456 141.32C39.3083 141.597 39.0896 141.981 39.0896 142.472C39.0896 142.739 39.159 143 39.2976 143.256C39.447 143.501 39.6603 143.704 39.9376 143.864C40.2256 144.024 40.5776 144.104 40.9936 144.104C41.431 144.104 41.847 144.019 42.2416 143.848C42.6363 143.667 42.951 143.443 43.1856 143.176ZM51.997 145V141.656C51.3463 141.965 50.6103 142.12 49.789 142.12C47.933 142.12 47.005 141.171 47.005 139.272V136.648H48.413V139.08C48.413 139.752 48.5517 140.243 48.829 140.552C49.1063 140.861 49.549 141.016 50.157 141.016C50.4983 141.016 50.8343 140.979 51.165 140.904C51.5063 140.829 51.7837 140.728 51.997 140.6V136.648H53.421V145H51.997ZM55.0425 142.584C55.0425 142.051 55.1918 141.592 55.4905 141.208C55.7998 140.813 56.2212 140.509 56.7545 140.296C57.2878 140.083 57.9065 139.976 58.6105 139.976C58.9838 139.976 59.3785 140.008 59.7945 140.072C60.2105 140.125 60.5785 140.211 60.8985 140.328V139.72C60.8985 139.08 60.7065 138.579 60.3225 138.216C59.9385 137.843 59.3945 137.656 58.6905 137.656C58.2318 137.656 57.7892 137.741 57.3625 137.912C56.9465 138.072 56.5038 138.307 56.0345 138.616L55.5225 137.624C56.0665 137.251 56.6105 136.973 57.1545 136.792C57.6985 136.6 58.2638 136.504 58.8505 136.504C59.9172 136.504 60.7598 136.803 61.3785 137.4C61.9972 137.987 62.3065 138.808 62.3065 139.864V143.4C62.3065 143.731 62.4558 143.901 62.7545 143.912V145C62.6158 145.021 62.4932 145.037 62.3865 145.048C62.2905 145.059 62.2105 145.064 62.1465 145.064C61.8158 145.064 61.5652 144.973 61.3945 144.792C61.2345 144.611 61.1438 144.419 61.1225 144.216L61.0905 143.688C60.7278 144.157 60.2532 144.52 59.6665 144.776C59.0798 145.032 58.4985 145.16 57.9225 145.16C57.3678 145.16 56.8718 145.048 56.4345 144.824C55.9972 144.589 55.6558 144.28 55.4105 143.896C55.1652 143.501 55.0425 143.064 55.0425 142.584ZM60.4825 143.176C60.6105 143.027 60.7118 142.877 60.7865 142.728C60.8612 142.568 60.8985 142.435 60.8985 142.328V141.288C60.2158 141.021 59.5118 140.888 58.7865 140.888C58.0718 140.888 57.4905 141.032 57.0425 141.32C56.6052 141.597 56.3865 141.981 56.3865 142.472C56.3865 142.739 56.4558 143 56.5945 143.256C56.7438 143.501 56.9572 143.704 57.2345 143.864C57.5225 144.024 57.8745 144.104 58.2905 144.104C58.7278 144.104 59.1438 144.019 59.5385 143.848C59.9332 143.667 60.2478 143.443 60.4825 143.176ZM68.2219 145.144C67.5712 145.144 66.9845 145.021 66.4619 144.776C65.9499 144.531 65.5072 144.205 65.1339 143.8C64.7712 143.384 64.4885 142.92 64.2859 142.408C64.0939 141.885 63.9979 141.347 63.9979 140.792C63.9979 140.259 64.0885 139.736 64.2699 139.224C64.4619 138.712 64.7392 138.253 65.1019 137.848C65.4645 137.432 65.9072 137.107 66.4299 136.872C66.9632 136.627 67.5712 136.504 68.2539 136.504C69.0752 136.504 69.7792 136.68 70.3659 137.032C70.9525 137.384 71.3952 137.848 71.6939 138.424L70.6219 138.984C70.3552 138.504 70.0139 138.163 69.5979 137.96C69.1925 137.757 68.7552 137.656 68.2859 137.656C67.7419 137.656 67.2672 137.784 66.8619 138.04C66.4565 138.285 66.1365 138.611 65.9019 139.016C65.6672 139.411 65.5179 139.832 65.4539 140.28H69.0539V141.24H65.4539C65.5072 141.741 65.6619 142.205 65.9179 142.632C66.1739 143.048 66.5099 143.384 66.9259 143.64C67.3419 143.885 67.8059 144.008 68.3179 144.008C68.7872 144.008 69.2352 143.896 69.6619 143.672C70.0992 143.437 70.4512 143.08 70.7179 142.6L71.8539 143.128C71.5339 143.768 71.0379 144.264 70.3659 144.616C69.7045 144.968 68.9899 145.144 68.2219 145.144ZM73.5263 145V136.648H74.9823L78.0863 142.12L81.2063 136.648H82.6303V145H81.2863V138.68L78.5343 143.512H77.6383L74.8703 138.68V145H73.5263ZM88.5496 145.16C87.7176 145.16 86.9816 144.963 86.3416 144.568C85.7123 144.163 85.2216 143.635 84.8696 142.984C84.5176 142.323 84.3416 141.608 84.3416 140.84C84.3416 140.061 84.5176 139.347 84.8696 138.696C85.2323 138.035 85.7283 137.507 86.3576 137.112C86.9976 136.707 87.7283 136.504 88.5496 136.504C89.3816 136.504 90.1123 136.707 90.7416 137.112C91.3816 137.507 91.8776 138.035 92.2296 138.696C92.5923 139.347 92.7736 140.061 92.7736 140.84C92.7736 141.608 92.5923 142.323 92.2296 142.984C91.8776 143.635 91.387 144.163 90.7576 144.568C90.1283 144.963 89.3923 145.16 88.5496 145.16ZM85.7816 140.856C85.7816 141.432 85.9043 141.955 86.1496 142.424C86.4056 142.893 86.7416 143.267 87.1576 143.544C87.5736 143.811 88.0376 143.944 88.5496 143.944C89.0616 143.944 89.5256 143.805 89.9416 143.528C90.3683 143.251 90.7043 142.877 90.9496 142.408C91.2056 141.928 91.3336 141.4 91.3336 140.824C91.3336 140.248 91.2056 139.725 90.9496 139.256C90.7043 138.787 90.3683 138.413 89.9416 138.136C89.5256 137.859 89.0616 137.72 88.5496 137.72C88.0376 137.72 87.5736 137.864 87.1576 138.152C86.7416 138.429 86.4056 138.803 86.1496 139.272C85.9043 139.741 85.7816 140.269 85.7816 140.856ZM98.1758 145.16C97.3438 145.16 96.6078 144.963 95.9678 144.568C95.3278 144.163 94.8264 143.629 94.4638 142.968C94.1011 142.307 93.9198 141.587 93.9198 140.808C93.9198 140.019 94.0958 139.299 94.4478 138.648C94.7998 137.997 95.2958 137.48 95.9358 137.096C96.5758 136.701 97.3171 136.504 98.1598 136.504C98.9811 136.504 99.6958 136.691 100.304 137.064C100.922 137.427 101.381 137.917 101.68 138.536L100.304 138.968C100.09 138.573 99.7918 138.269 99.4078 138.056C99.0238 137.832 98.5971 137.72 98.1278 137.72C97.6158 137.72 97.1464 137.853 96.7198 138.12C96.3038 138.387 95.9731 138.755 95.7278 139.224C95.4824 139.683 95.3598 140.211 95.3598 140.808C95.3598 141.395 95.4824 141.928 95.7278 142.408C95.9838 142.877 96.3198 143.251 96.7358 143.528C97.1624 143.805 97.6318 143.944 98.1438 143.944C98.4744 143.944 98.7891 143.885 99.0878 143.768C99.3971 143.651 99.6638 143.496 99.8878 143.304C100.122 143.101 100.282 142.883 100.368 142.648L101.744 143.064C101.498 143.672 101.05 144.173 100.4 144.568C99.7598 144.963 99.0184 145.16 98.1758 145.16ZM103.323 145V136.648H104.731V139.496H106.811C107.792 139.496 108.534 139.747 109.035 140.248C109.547 140.739 109.803 141.384 109.803 142.184C109.803 142.984 109.558 143.656 109.067 144.2C108.576 144.733 107.856 145 106.907 145H103.323ZM104.731 143.896H106.715C107.302 143.896 107.723 143.731 107.979 143.4C108.246 143.059 108.379 142.664 108.379 142.216C108.379 141.779 108.256 141.4 108.011 141.08C107.766 140.76 107.323 140.6 106.683 140.6H104.731V143.896ZM117.994 145.112C117.183 145.112 116.495 144.963 115.93 144.664C115.375 144.355 114.949 143.928 114.65 143.384L115.802 142.872C115.994 143.213 116.266 143.48 116.618 143.672C116.981 143.864 117.418 143.96 117.93 143.96C118.538 143.96 119.018 143.827 119.37 143.56C119.722 143.293 119.898 142.936 119.898 142.488C119.898 142.083 119.754 141.757 119.466 141.512C119.189 141.256 118.794 141.123 118.282 141.112H117.434V140.184H118.33C118.671 140.184 118.949 140.067 119.162 139.832C119.386 139.587 119.498 139.283 119.498 138.92C119.498 138.547 119.365 138.248 119.098 138.024C118.831 137.789 118.431 137.672 117.898 137.672C117.055 137.672 116.453 138.013 116.09 138.696L115.018 138.12C115.285 137.619 115.669 137.229 116.17 136.952C116.682 136.664 117.279 136.52 117.962 136.52C118.783 136.52 119.455 136.717 119.978 137.112C120.501 137.496 120.762 138.04 120.762 138.744C120.762 139.139 120.666 139.507 120.474 139.848C120.293 140.179 120.021 140.429 119.658 140.6C120.159 140.749 120.543 141.011 120.81 141.384C121.077 141.747 121.21 142.179 121.21 142.68C121.21 143.448 120.906 144.045 120.298 144.472C119.701 144.899 118.933 145.112 117.994 145.112ZM130.885 145.16C129.509 145.16 128.469 144.744 127.765 143.912C127.061 143.08 126.709 141.907 126.709 140.392C126.709 139.357 126.794 138.488 126.965 137.784C127.135 137.069 127.391 136.483 127.733 136.024C128.074 135.555 128.495 135.176 128.997 134.888C129.498 134.589 130.074 134.344 130.725 134.152L134.26 133.08L134.341 134.296L130.901 135.336C130.314 135.528 129.823 135.773 129.429 136.072C129.034 136.371 128.725 136.755 128.501 137.224C128.277 137.693 128.127 138.296 128.053 139.032C128.33 138.467 128.746 138.029 129.301 137.72C129.855 137.4 130.501 137.24 131.237 137.24C132.026 137.24 132.703 137.405 133.269 137.736C133.845 138.056 134.282 138.509 134.581 139.096C134.89 139.672 135.045 140.339 135.045 141.096C135.045 141.907 134.885 142.616 134.565 143.224C134.245 143.832 133.775 144.307 133.157 144.648C132.538 144.989 131.781 145.16 130.885 145.16ZM130.885 143.944C131.749 143.944 132.415 143.693 132.885 143.192C133.365 142.68 133.605 142.003 133.605 141.16C133.605 140.339 133.37 139.672 132.901 139.16C132.431 138.648 131.759 138.392 130.885 138.392C130.106 138.392 129.455 138.632 128.933 139.112C128.421 139.592 128.164 140.275 128.164 141.16C128.164 141.971 128.399 142.637 128.869 143.16C129.338 143.683 130.01 143.944 130.885 143.944ZM143.657 145.16C142.921 145.16 142.27 145 141.705 144.68C141.14 144.36 140.686 143.923 140.345 143.368C140.004 142.803 139.796 142.163 139.721 141.448H138.169V145H136.761V136.648H138.169V140.216H139.721C139.806 139.48 140.02 138.835 140.361 138.28C140.713 137.715 141.172 137.277 141.737 136.968C142.302 136.659 142.942 136.504 143.657 136.504C144.5 136.504 145.225 136.701 145.833 137.096C146.441 137.48 146.91 137.997 147.241 138.648C147.572 139.299 147.737 140.029 147.737 140.84C147.737 141.672 147.566 142.413 147.225 143.064C146.894 143.715 146.42 144.227 145.801 144.6C145.193 144.973 144.478 145.16 143.657 145.16ZM143.657 143.944C144.18 143.944 144.638 143.811 145.033 143.544C145.428 143.277 145.737 142.915 145.961 142.456C146.185 141.987 146.297 141.448 146.297 140.84C146.297 140.2 146.18 139.651 145.945 139.192C145.721 138.723 145.406 138.36 145.001 138.104C144.606 137.848 144.158 137.72 143.657 137.72C143.156 137.72 142.708 137.853 142.313 138.12C141.929 138.376 141.63 138.739 141.417 139.208C141.204 139.677 141.097 140.221 141.097 140.84C141.097 141.789 141.337 142.547 141.817 143.112C142.297 143.667 142.91 143.944 143.657 143.944ZM148.521 146.968V143.752H148.697C149.006 143.752 149.283 143.624 149.529 143.368C149.785 143.101 149.993 142.632 150.153 141.96C150.313 141.277 150.409 140.312 150.441 139.064L150.521 136.648H156.201V143.752H157.337V146.968H156.089V145H149.769V146.968H148.521ZM150.664 143.752H154.793V137.896H151.769L151.721 139.192C151.678 140.557 151.566 141.592 151.385 142.296C151.214 143 150.974 143.485 150.664 143.752ZM158.326 145L161.398 140.696L158.598 136.648H160.182L162.582 140.12H163.478V136.648H164.918V140.12H165.846L168.198 136.648H169.798L166.998 140.696L170.086 145H168.47L165.846 141.352H164.918V145H163.478V141.352H162.582L159.942 145H158.326ZM175.473 145.16C174.641 145.16 173.905 144.963 173.265 144.568C172.625 144.173 172.123 143.645 171.761 142.984C171.398 142.323 171.217 141.603 171.217 140.824C171.217 140.035 171.398 139.315 171.761 138.664C172.123 138.013 172.625 137.491 173.265 137.096C173.915 136.701 174.657 136.504 175.489 136.504C176.331 136.504 177.062 136.707 177.681 137.112C178.31 137.507 178.795 138.029 179.137 138.68C179.489 139.32 179.665 140.013 179.665 140.76C179.665 140.995 179.654 141.176 179.633 141.304H172.705C172.747 141.848 172.897 142.333 173.153 142.76C173.419 143.176 173.761 143.507 174.177 143.752C174.593 143.987 175.041 144.104 175.521 144.104C176.033 144.104 176.513 143.976 176.961 143.72C177.419 143.464 177.734 143.128 177.905 142.712L179.121 143.048C178.854 143.667 178.39 144.173 177.729 144.568C177.067 144.963 176.315 145.16 175.473 145.16ZM172.657 140.328H178.353C178.31 139.784 178.155 139.304 177.889 138.888C177.622 138.472 177.281 138.147 176.865 137.912C176.449 137.677 175.99 137.56 175.489 137.56C174.998 137.56 174.545 137.677 174.129 137.912C173.713 138.147 173.371 138.472 173.105 138.888C172.849 139.304 172.699 139.784 172.657 140.328ZM183.262 145V137.896H180.382V136.648H187.55V137.896H184.67V145H183.262ZM192.612 145.16C191.78 145.16 191.044 144.963 190.404 144.568C189.775 144.163 189.284 143.635 188.932 142.984C188.58 142.323 188.404 141.608 188.404 140.84C188.404 140.061 188.58 139.347 188.932 138.696C189.295 138.035 189.791 137.507 190.42 137.112C191.06 136.707 191.791 136.504 192.612 136.504C193.444 136.504 194.175 136.707 194.804 137.112C195.444 137.507 195.94 138.035 196.292 138.696C196.655 139.347 196.836 140.061 196.836 140.84C196.836 141.608 196.655 142.323 196.292 142.984C195.94 143.635 195.449 144.163 194.82 144.568C194.191 144.963 193.455 145.16 192.612 145.16ZM189.844 140.856C189.844 141.432 189.967 141.955 190.212 142.424C190.468 142.893 190.804 143.267 191.22 143.544C191.636 143.811 192.1 143.944 192.612 143.944C193.124 143.944 193.588 143.805 194.004 143.528C194.431 143.251 194.767 142.877 195.012 142.408C195.268 141.928 195.396 141.4 195.396 140.824C195.396 140.248 195.268 139.725 195.012 139.256C194.767 138.787 194.431 138.413 194.004 138.136C193.588 137.859 193.124 137.72 192.612 137.72C192.1 137.72 191.636 137.864 191.22 138.152C190.804 138.429 190.468 138.803 190.212 139.272C189.967 139.741 189.844 140.269 189.844 140.856ZM198.526 145V136.648H199.982L203.086 142.12L206.206 136.648H207.63V145H206.286V138.68L203.534 143.512H202.638L199.87 138.68V145H198.526ZM209.95 146.296L210.27 144.872H209.79V143.208H211.118V144.872L210.638 146.296H209.95ZM1.12 168V159.648H2.576L5.68 165.12L8.8 159.648H10.224V168H8.88V161.68L6.128 166.512H5.232L2.464 161.68V168H1.12ZM11.8394 165.584C11.8394 165.051 11.9887 164.592 12.2874 164.208C12.5967 163.813 13.018 163.509 13.5514 163.296C14.0847 163.083 14.7034 162.976 15.4074 162.976C15.7807 162.976 16.1754 163.008 16.5914 163.072C17.0074 163.125 17.3754 163.211 17.6954 163.328V162.72C17.6954 162.08 17.5034 161.579 17.1194 161.216C16.7354 160.843 16.1914 160.656 15.4874 160.656C15.0287 160.656 14.586 160.741 14.1594 160.912C13.7434 161.072 13.3007 161.307 12.8314 161.616L12.3194 160.624C12.8634 160.251 13.4074 159.973 13.9514 159.792C14.4954 159.6 15.0607 159.504 15.6474 159.504C16.714 159.504 17.5567 159.803 18.1754 160.4C18.794 160.987 19.1034 161.808 19.1034 162.864V166.4C19.1034 166.731 19.2527 166.901 19.5514 166.912V168C19.4127 168.021 19.29 168.037 19.1834 168.048C19.0874 168.059 19.0074 168.064 18.9434 168.064C18.6127 168.064 18.362 167.973 18.1914 167.792C18.0314 167.611 17.9407 167.419 17.9194 167.216L17.8874 166.688C17.5247 167.157 17.05 167.52 16.4634 167.776C15.8767 168.032 15.2954 168.16 14.7194 168.16C14.1647 168.16 13.6687 168.048 13.2314 167.824C12.794 167.589 12.4527 167.28 12.2074 166.896C11.962 166.501 11.8394 166.064 11.8394 165.584ZM17.2794 166.176C17.4074 166.027 17.5087 165.877 17.5834 165.728C17.658 165.568 17.6954 165.435 17.6954 165.328V164.288C17.0127 164.021 16.3087 163.888 15.5834 163.888C14.8687 163.888 14.2874 164.032 13.8394 164.32C13.402 164.597 13.1834 164.981 13.1834 165.472C13.1834 165.739 13.2527 166 13.3914 166.256C13.5407 166.501 13.754 166.704 14.0314 166.864C14.3194 167.024 14.6714 167.104 15.0874 167.104C15.5247 167.104 15.9407 167.019 16.3354 166.848C16.73 166.667 17.0447 166.443 17.2794 166.176ZM23.293 168V160.896H20.413V159.648H27.581V160.896H24.701V168H23.293ZM32.6914 168.16C31.8594 168.16 31.1234 167.963 30.4834 167.568C29.8434 167.173 29.342 166.645 28.9794 165.984C28.6167 165.323 28.4354 164.603 28.4354 163.824C28.4354 163.035 28.6167 162.315 28.9794 161.664C29.342 161.013 29.8434 160.491 30.4834 160.096C31.134 159.701 31.8754 159.504 32.7074 159.504C33.55 159.504 34.2807 159.707 34.8994 160.112C35.5287 160.507 36.014 161.029 36.3554 161.68C36.7074 162.32 36.8834 163.013 36.8834 163.76C36.8834 163.995 36.8727 164.176 36.8514 164.304H29.9234C29.966 164.848 30.1154 165.333 30.3714 165.76C30.638 166.176 30.9794 166.507 31.3954 166.752C31.8114 166.987 32.2594 167.104 32.7394 167.104C33.2514 167.104 33.7314 166.976 34.1794 166.72C34.638 166.464 34.9527 166.128 35.1234 165.712L36.3394 166.048C36.0727 166.667 35.6087 167.173 34.9474 167.568C34.286 167.963 33.534 168.16 32.6914 168.16ZM29.8754 163.328H35.5714C35.5287 162.784 35.374 162.304 35.1074 161.888C34.8407 161.472 34.4994 161.147 34.0834 160.912C33.6674 160.677 33.2087 160.56 32.7074 160.56C32.2167 160.56 31.7634 160.677 31.3474 160.912C30.9314 161.147 30.59 161.472 30.3234 161.888C30.0674 162.304 29.918 162.784 29.8754 163.328ZM42.9445 168.16C42.2618 168.16 41.6538 167.989 41.1205 167.648C40.5872 167.307 40.1658 166.875 39.8565 166.352V171.408H38.4485V159.648H39.6965V161.216C40.0272 160.704 40.4592 160.293 40.9925 159.984C41.5258 159.664 42.1072 159.504 42.7365 159.504C43.3125 159.504 43.8405 159.621 44.3205 159.856C44.8005 160.091 45.2165 160.411 45.5685 160.816C45.9205 161.221 46.1925 161.685 46.3845 162.208C46.5872 162.72 46.6885 163.259 46.6885 163.824C46.6885 164.613 46.5285 165.339 46.2085 166C45.8992 166.661 45.4618 167.189 44.8965 167.584C44.3312 167.968 43.6805 168.16 42.9445 168.16ZM42.5125 166.944C43.0672 166.944 43.5472 166.795 43.9525 166.496C44.3578 166.197 44.6725 165.808 44.8965 165.328C45.1312 164.848 45.2485 164.347 45.2485 163.824C45.2485 163.259 45.1205 162.741 44.8645 162.272C44.6192 161.803 44.2778 161.429 43.8405 161.152C43.4138 160.864 42.9285 160.72 42.3845 160.72C42.0538 160.72 41.7018 160.805 41.3285 160.976C40.9658 161.147 40.6458 161.376 40.3685 161.664C40.1018 161.941 39.9312 162.251 39.8565 162.592V164.976C40.0912 165.531 40.4485 166 40.9285 166.384C41.4192 166.757 41.9472 166.944 42.5125 166.944ZM48.4173 158.08V156.32H49.8253V158.08H48.4173ZM48.4173 168V159.648H49.8253V168H48.4173ZM51.4488 165.584C51.4488 165.051 51.5981 164.592 51.8968 164.208C52.2061 163.813 52.6274 163.509 53.1608 163.296C53.6941 163.083 54.3128 162.976 55.0168 162.976C55.3901 162.976 55.7848 163.008 56.2008 163.072C56.6168 163.125 56.9848 163.211 57.3048 163.328V162.72C57.3048 162.08 57.1128 161.579 56.7288 161.216C56.3448 160.843 55.8008 160.656 55.0968 160.656C54.6381 160.656 54.1954 160.741 53.7688 160.912C53.3528 161.072 52.9101 161.307 52.4408 161.616L51.9288 160.624C52.4728 160.251 53.0168 159.973 53.5608 159.792C54.1048 159.6 54.6701 159.504 55.2568 159.504C56.3234 159.504 57.1661 159.803 57.7848 160.4C58.4034 160.987 58.7128 161.808 58.7128 162.864V166.4C58.7128 166.731 58.8621 166.901 59.1608 166.912V168C59.0221 168.021 58.8994 168.037 58.7928 168.048C58.6968 168.059 58.6168 168.064 58.5528 168.064C58.2221 168.064 57.9714 167.973 57.8008 167.792C57.6408 167.611 57.5501 167.419 57.5288 167.216L57.4968 166.688C57.1341 167.157 56.6594 167.52 56.0728 167.776C55.4861 168.032 54.9048 168.16 54.3288 168.16C53.7741 168.16 53.2781 168.048 52.8408 167.824C52.4034 167.589 52.0621 167.28 51.8168 166.896C51.5714 166.501 51.4488 166.064 51.4488 165.584ZM56.8888 166.176C57.0168 166.027 57.1181 165.877 57.1928 165.728C57.2674 165.568 57.3048 165.435 57.3048 165.328V164.288C56.6221 164.021 55.9181 163.888 55.1927 163.888C54.4781 163.888 53.8968 164.032 53.4488 164.32C53.0114 164.597 52.7928 164.981 52.7928 165.472C52.7928 165.739 52.8621 166 53.0008 166.256C53.1501 166.501 53.3634 166.704 53.6408 166.864C53.9288 167.024 54.2808 167.104 54.6968 167.104C55.1341 167.104 55.5501 167.019 55.9448 166.848C56.3394 166.667 56.6541 166.443 56.8888 166.176ZM60.2281 168.064V166.8C60.5908 166.789 60.9108 166.656 61.1881 166.4C61.4655 166.144 61.6841 165.675 61.8441 164.992C62.0148 164.309 62.1215 163.333 62.1641 162.064L62.2601 159.648H67.9401V168H66.5321V160.896H63.5081L63.4761 162.192C63.4228 163.707 63.2681 164.891 63.0121 165.744C62.7668 166.597 62.4095 167.195 61.9401 167.536C61.4815 167.877 60.9108 168.053 60.2281 168.064ZM69.5581 165.584C69.5581 165.051 69.7075 164.592 70.0061 164.208C70.3155 163.813 70.7368 163.509 71.2701 163.296C71.8035 163.083 72.4221 162.976 73.1261 162.976C73.4995 162.976 73.8941 163.008 74.3101 163.072C74.7261 163.125 75.0941 163.211 75.4141 163.328V162.72C75.4141 162.08 75.2221 161.579 74.8381 161.216C74.4541 160.843 73.9101 160.656 73.2061 160.656C72.7475 160.656 72.3048 160.741 71.8781 160.912C71.4621 161.072 71.0195 161.307 70.5501 161.616L70.0381 160.624C70.5821 160.251 71.1261 159.973 71.6701 159.792C72.2141 159.6 72.7795 159.504 73.3661 159.504C74.4328 159.504 75.2755 159.803 75.8941 160.4C76.5128 160.987 76.8221 161.808 76.8221 162.864V166.4C76.8221 166.731 76.9715 166.901 77.2701 166.912V168C77.1315 168.021 77.0088 168.037 76.9021 168.048C76.8061 168.059 76.7261 168.064 76.6621 168.064C76.3315 168.064 76.0808 167.973 75.9101 167.792C75.7501 167.611 75.6595 167.419 75.6381 167.216L75.6061 166.688C75.2435 167.157 74.7688 167.52 74.1821 167.776C73.5955 168.032 73.0141 168.16 72.4381 168.16C71.8835 168.16 71.3875 168.048 70.9501 167.824C70.5128 167.589 70.1715 167.28 69.9261 166.896C69.6808 166.501 69.5581 166.064 69.5581 165.584ZM74.9981 166.176C75.1261 166.027 75.2275 165.877 75.3021 165.728C75.3768 165.568 75.4141 165.435 75.4141 165.328V164.288C74.7315 164.021 74.0275 163.888 73.3021 163.888C72.5875 163.888 72.0061 164.032 71.5581 164.32C71.1208 164.597 70.9021 164.981 70.9021 165.472C70.9021 165.739 70.9715 166 71.1101 166.256C71.2595 166.501 71.4728 166.704 71.7501 166.864C72.0381 167.024 72.3901 167.104 72.8061 167.104C73.2435 167.104 73.6595 167.019 74.0541 166.848C74.4488 166.667 74.7635 166.443 74.9981 166.176ZM79.0575 168V159.648H80.5135L83.6175 165.12L86.7375 159.648H88.1615V168H86.8175V161.68L84.0655 166.512H83.1695L80.4015 161.68V168H79.0575ZM90.4169 168V159.664H91.8249V166.112L96.4969 159.648H97.7769V168H96.3689V161.68L91.7609 168H90.4169ZM106.106 168V160.896H103.226V159.648H110.394V160.896H107.514V168H106.106ZM111.152 165.584C111.152 165.051 111.301 164.592 111.6 164.208C111.909 163.813 112.331 163.509 112.864 163.296C113.397 163.083 114.016 162.976 114.72 162.976C115.093 162.976 115.488 163.008 115.904 163.072C116.32 163.125 116.688 163.211 117.008 163.328V162.72C117.008 162.08 116.816 161.579 116.432 161.216C116.048 160.843 115.504 160.656 114.8 160.656C114.341 160.656 113.899 160.741 113.472 160.912C113.056 161.072 112.613 161.307 112.144 161.616L111.632 160.624C112.176 160.251 112.72 159.973 113.264 159.792C113.808 159.6 114.373 159.504 114.96 159.504C116.027 159.504 116.869 159.803 117.488 160.4C118.107 160.987 118.416 161.808 118.416 162.864V166.4C118.416 166.731 118.565 166.901 118.864 166.912V168C118.725 168.021 118.603 168.037 118.496 168.048C118.4 168.059 118.32 168.064 118.256 168.064C117.925 168.064 117.675 167.973 117.504 167.792C117.344 167.611 117.253 167.419 117.232 167.216L117.2 166.688C116.837 167.157 116.363 167.52 115.776 167.776C115.189 168.032 114.608 168.16 114.032 168.16C113.477 168.16 112.981 168.048 112.544 167.824C112.107 167.589 111.765 167.28 111.52 166.896C111.275 166.501 111.152 166.064 111.152 165.584ZM116.592 166.176C116.72 166.027 116.821 165.877 116.896 165.728C116.971 165.568 117.008 165.435 117.008 165.328V164.288C116.325 164.021 115.621 163.888 114.896 163.888C114.181 163.888 113.6 164.032 113.152 164.32C112.715 164.597 112.496 164.981 112.496 165.472C112.496 165.739 112.565 166 112.704 166.256C112.853 166.501 113.067 166.704 113.344 166.864C113.632 167.024 113.984 167.104 114.4 167.104C114.837 167.104 115.253 167.019 115.648 166.848C116.043 166.667 116.357 166.443 116.592 166.176ZM128.57 171.408V168H128.25C127.407 168 126.677 167.808 126.058 167.424C125.45 167.04 124.981 166.533 124.65 165.904C124.319 165.275 124.154 164.587 124.154 163.84C124.154 163.083 124.319 162.389 124.65 161.76C124.991 161.131 125.466 160.624 126.074 160.24C126.693 159.856 127.418 159.664 128.25 159.664H128.57V156.32H129.978V159.664H130.314C131.146 159.664 131.866 159.856 132.474 160.24C133.093 160.624 133.567 161.131 133.898 161.76C134.239 162.389 134.41 163.083 134.41 163.84C134.41 164.587 134.245 165.275 133.914 165.904C133.583 166.533 133.109 167.04 132.49 167.424C131.882 167.808 131.157 168 130.314 168H129.978V171.408H128.57ZM128.25 166.848H128.634V160.816H128.25C127.727 160.816 127.258 160.955 126.842 161.232C126.437 161.499 126.117 161.861 125.882 162.32C125.647 162.779 125.53 163.291 125.53 163.856C125.53 164.421 125.642 164.933 125.866 165.392C126.101 165.84 126.421 166.197 126.826 166.464C127.231 166.72 127.706 166.848 128.25 166.848ZM129.914 166.848H130.314C130.847 166.848 131.317 166.72 131.722 166.464C132.138 166.197 132.458 165.84 132.682 165.392C132.917 164.933 133.034 164.421 133.034 163.856C133.034 163.291 132.917 162.779 132.682 162.32C132.447 161.861 132.127 161.499 131.722 161.232C131.317 160.955 130.847 160.816 130.314 160.816H129.914V166.848ZM136.864 171.504C136.512 171.504 136.138 171.397 135.743 171.184L136.224 170.224C136.405 170.331 136.586 170.384 136.768 170.384C137.29 170.384 137.749 169.899 138.144 168.928L138.544 167.92L134.88 159.648H136.368L139.184 166.576L141.728 159.648H143.12L139.216 169.36C138.928 170.075 138.581 170.608 138.176 170.96C137.77 171.323 137.333 171.504 136.864 171.504ZM149.038 168.16C148.356 168.16 147.748 167.989 147.214 167.648C146.681 167.307 146.26 166.875 145.95 166.352V171.408H144.542V159.648H145.79V161.216C146.121 160.704 146.553 160.293 147.086 159.984C147.62 159.664 148.201 159.504 148.83 159.504C149.406 159.504 149.934 159.621 150.414 159.856C150.894 160.091 151.31 160.411 151.662 160.816C152.014 161.221 152.286 161.685 152.478 162.208C152.681 162.72 152.782 163.259 152.782 163.824C152.782 164.613 152.622 165.339 152.302 166C151.993 166.661 151.556 167.189 150.99 167.584C150.425 167.968 149.774 168.16 149.038 168.16ZM148.606 166.944C149.161 166.944 149.641 166.795 150.046 166.496C150.452 166.197 150.766 165.808 150.99 165.328C151.225 164.848 151.342 164.347 151.342 163.824C151.342 163.259 151.214 162.741 150.958 162.272C150.713 161.803 150.372 161.429 149.934 161.152C149.508 160.864 149.022 160.72 148.478 160.72C148.148 160.72 147.796 160.805 147.422 160.976C147.06 161.147 146.74 161.376 146.462 161.664C146.196 161.941 146.025 162.251 145.95 162.592V164.976C146.185 165.531 146.542 166 147.022 166.384C147.513 166.757 148.041 166.944 148.606 166.944ZM154.495 168V159.648H155.903V163.104H160.255V159.648H161.663V168H160.255V164.352H155.903V168H154.495ZM163.933 158.08V156.32H165.341V158.08H163.933ZM163.933 168V159.648H165.341V168H163.933ZM169.652 168V160.896H166.772V159.648H173.94V160.896H171.06V168H169.652ZM176.395 171.504C176.043 171.504 175.669 171.397 175.275 171.184L175.755 170.224C175.936 170.331 176.117 170.384 176.299 170.384C176.821 170.384 177.28 169.899 177.675 168.928L178.075 167.92L174.411 159.648H175.899L178.715 166.576L181.259 159.648H182.651L178.747 169.36C178.459 170.075 178.112 170.608 177.707 170.96C177.301 171.323 176.864 171.504 176.395 171.504ZM188.57 168.16C187.887 168.16 187.279 167.989 186.746 167.648C186.212 167.307 185.791 166.875 185.482 166.352V171.408H184.074V159.648H185.322V161.216C185.652 160.704 186.084 160.293 186.618 159.984C187.151 159.664 187.732 159.504 188.362 159.504C188.938 159.504 189.466 159.621 189.946 159.856C190.426 160.091 190.842 160.411 191.194 160.816C191.546 161.221 191.818 161.685 192.01 162.208C192.212 162.72 192.314 163.259 192.314 163.824C192.314 164.613 192.154 165.339 191.834 166C191.524 166.661 191.087 167.189 190.522 167.584C189.956 167.968 189.306 168.16 188.57 168.16ZM188.138 166.944C188.692 166.944 189.172 166.795 189.578 166.496C189.983 166.197 190.298 165.808 190.522 165.328C190.756 164.848 190.874 164.347 190.874 163.824C190.874 163.259 190.746 162.741 190.49 162.272C190.244 161.803 189.903 161.429 189.466 161.152C189.039 160.864 188.554 160.72 188.01 160.72C187.679 160.72 187.327 160.805 186.954 160.976C186.591 161.147 186.271 161.376 185.994 161.664C185.727 161.941 185.556 162.251 185.482 162.592V164.976C185.716 165.531 186.074 166 186.554 166.384C187.044 166.757 187.572 166.944 188.138 166.944ZM197.69 168.16C196.858 168.16 196.122 167.963 195.482 167.568C194.853 167.163 194.362 166.635 194.01 165.984C193.658 165.323 193.482 164.608 193.482 163.84C193.482 163.061 193.658 162.347 194.01 161.696C194.373 161.035 194.869 160.507 195.498 160.112C196.138 159.707 196.869 159.504 197.69 159.504C198.522 159.504 199.253 159.707 199.882 160.112C200.522 160.507 201.018 161.035 201.37 161.696C201.733 162.347 201.914 163.061 201.914 163.84C201.914 164.608 201.733 165.323 201.37 165.984C201.018 166.635 200.528 167.163 199.898 167.568C199.269 167.963 198.533 168.16 197.69 168.16ZM194.922 163.856C194.922 164.432 195.045 164.955 195.29 165.424C195.546 165.893 195.882 166.267 196.298 166.544C196.714 166.811 197.178 166.944 197.69 166.944C198.202 166.944 198.666 166.805 199.082 166.528C199.509 166.251 199.845 165.877 200.09 165.408C200.346 164.928 200.474 164.4 200.474 163.824C200.474 163.248 200.346 162.725 200.09 162.256C199.845 161.787 199.509 161.413 199.082 161.136C198.666 160.859 198.202 160.72 197.69 160.72C197.178 160.72 196.714 160.864 196.298 161.152C195.882 161.429 195.546 161.803 195.29 162.272C195.045 162.741 194.922 163.269 194.922 163.856ZM210.516 168.16C209.78 168.16 209.13 168 208.564 167.68C207.999 167.36 207.546 166.923 207.204 166.368C206.863 165.803 206.655 165.163 206.58 164.448H205.028V168H203.62V159.648H205.028V163.216H206.58C206.666 162.48 206.879 161.835 207.22 161.28C207.572 160.715 208.031 160.277 208.596 159.968C209.162 159.659 209.802 159.504 210.516 159.504C211.359 159.504 212.084 159.701 212.692 160.096C213.3 160.48 213.77 160.997 214.1 161.648C214.431 162.299 214.596 163.029 214.596 163.84C214.596 164.672 214.426 165.413 214.084 166.064C213.754 166.715 213.279 167.227 212.66 167.6C212.052 167.973 211.338 168.16 210.516 168.16ZM210.516 166.944C211.039 166.944 211.498 166.811 211.892 166.544C212.287 166.277 212.596 165.915 212.82 165.456C213.044 164.987 213.156 164.448 213.156 163.84C213.156 163.2 213.039 162.651 212.804 162.192C212.58 161.723 212.266 161.36 211.86 161.104C211.466 160.848 211.018 160.72 210.516 160.72C210.015 160.72 209.567 160.853 209.172 161.12C208.788 161.376 208.49 161.739 208.276 162.208C208.063 162.677 207.956 163.221 207.956 163.84C207.956 164.789 208.196 165.547 208.676 166.112C209.156 166.667 209.77 166.944 210.516 166.944ZM215.883 168V166.208H217.067V168H215.883ZM10.08 188.072C10.08 188.659 9.93067 189.171 9.632 189.608C9.33333 190.045 8.928 190.387 8.416 190.632C7.91467 190.877 7.36 191 6.752 191H1.36V179.64H7.008C7.54133 179.64 8 179.784 8.384 180.072C8.77867 180.349 9.07733 180.712 9.28 181.16C9.49333 181.597 9.6 182.056 9.6 182.536C9.6 183.091 9.456 183.613 9.168 184.104C8.89067 184.584 8.49067 184.941 7.968 185.176C8.61867 185.368 9.13067 185.725 9.504 186.248C9.888 186.76 10.08 187.368 10.08 188.072ZM2.8 180.888V184.68H6.416C6.91733 184.68 7.33333 184.499 7.664 184.136C8.00533 183.763 8.176 183.315 8.176 182.792C8.176 182.259 8.016 181.811 7.696 181.448C7.38667 181.075 6.992 180.888 6.512 180.888H2.8ZM8.624 187.816C8.624 187.464 8.544 187.139 8.384 186.84C8.23467 186.541 8.02667 186.301 7.76 186.12C7.504 185.939 7.20533 185.848 6.864 185.848H2.8V189.752H6.752C7.104 189.752 7.41867 189.661 7.696 189.48C7.984 189.299 8.208 189.064 8.368 188.776C8.53867 188.477 8.624 188.157 8.624 187.816ZM11.8544 191V182.648H13.2624V186.104H17.6144V182.648H19.0224V191H17.6144V187.352H13.2624V191H11.8544ZM24.9403 191.16C24.1083 191.16 23.3723 190.963 22.7323 190.568C22.1029 190.163 21.6123 189.635 21.2603 188.984C20.9083 188.323 20.7323 187.608 20.7323 186.84C20.7323 186.061 20.9083 185.347 21.2603 184.696C21.6229 184.035 22.1189 183.507 22.7483 183.112C23.3883 182.707 24.1189 182.504 24.9403 182.504C25.7723 182.504 26.5029 182.707 27.1323 183.112C27.7723 183.507 28.2683 184.035 28.6203 184.696C28.9829 185.347 29.1643 186.061 29.1643 186.84C29.1643 187.608 28.9829 188.323 28.6203 188.984C28.2683 189.635 27.7776 190.163 27.1483 190.568C26.5189 190.963 25.7829 191.16 24.9403 191.16ZM22.1723 186.856C22.1723 187.432 22.2949 187.955 22.5403 188.424C22.7963 188.893 23.1323 189.267 23.5483 189.544C23.9643 189.811 24.4283 189.944 24.9403 189.944C25.4523 189.944 25.9163 189.805 26.3323 189.528C26.7589 189.251 27.0949 188.877 27.3403 188.408C27.5963 187.928 27.7243 187.4 27.7243 186.824C27.7243 186.248 27.5963 185.725 27.3403 185.256C27.0949 184.787 26.7589 184.413 26.3323 184.136C25.9163 183.859 25.4523 183.72 24.9403 183.72C24.4283 183.72 23.9643 183.864 23.5483 184.152C23.1323 184.429 22.7963 184.803 22.5403 185.272C22.2949 185.741 22.1723 186.269 22.1723 186.856ZM34.5664 191.16C33.7344 191.16 32.9984 190.963 32.3584 190.568C31.7184 190.163 31.217 189.629 30.8544 188.968C30.4917 188.307 30.3104 187.587 30.3104 186.808C30.3104 186.019 30.4864 185.299 30.8384 184.648C31.1904 183.997 31.6864 183.48 32.3264 183.096C32.9664 182.701 33.7077 182.504 34.5504 182.504C35.3717 182.504 36.0864 182.691 36.6944 183.064C37.313 183.427 37.7717 183.917 38.0704 184.536L36.6944 184.968C36.481 184.573 36.1824 184.269 35.7984 184.056C35.4144 183.832 34.9877 183.72 34.5184 183.72C34.0064 183.72 33.537 183.853 33.1104 184.12C32.6944 184.387 32.3637 184.755 32.1184 185.224C31.873 185.683 31.7504 186.211 31.7504 186.808C31.7504 187.395 31.873 187.928 32.1184 188.408C32.3744 188.877 32.7104 189.251 33.1264 189.528C33.553 189.805 34.0224 189.944 34.5344 189.944C34.865 189.944 35.1797 189.885 35.4784 189.768C35.7877 189.651 36.0544 189.496 36.2784 189.304C36.513 189.101 36.673 188.883 36.7584 188.648L38.1344 189.064C37.889 189.672 37.441 190.173 36.7904 190.568C36.1504 190.963 35.409 191.16 34.5664 191.16ZM39.7138 191V182.664H41.1218V189.112L45.7938 182.648H47.0738V191H45.6658V184.68L41.0578 191H39.7138ZM49.3075 191V182.648H50.7635L53.8675 188.12L56.9875 182.648H58.4115V191H57.0675V184.68L54.3155 189.512H53.4195L50.6515 184.68V191H49.3075ZM64.3309 191.16C63.4989 191.16 62.7629 190.963 62.1229 190.568C61.4935 190.163 61.0029 189.635 60.6509 188.984C60.2989 188.323 60.1229 187.608 60.1229 186.84C60.1229 186.061 60.2989 185.347 60.6509 184.696C61.0135 184.035 61.5095 183.507 62.1389 183.112C62.7789 182.707 63.5095 182.504 64.3309 182.504C65.1629 182.504 65.8935 182.707 66.5229 183.112C67.1629 183.507 67.6589 184.035 68.0109 184.696C68.3735 185.347 68.5549 186.061 68.5549 186.84C68.5549 187.608 68.3735 188.323 68.0109 188.984C67.6589 189.635 67.1682 190.163 66.5389 190.568C65.9095 190.963 65.1735 191.16 64.3309 191.16ZM61.5629 186.856C61.5629 187.432 61.6855 187.955 61.9309 188.424C62.1869 188.893 62.5229 189.267 62.9389 189.544C63.3549 189.811 63.8189 189.944 64.3309 189.944C64.8429 189.944 65.3069 189.805 65.7229 189.528C66.1495 189.251 66.4855 188.877 66.7309 188.408C66.9869 187.928 67.1149 187.4 67.1149 186.824C67.1149 186.248 66.9869 185.725 66.7309 185.256C66.4855 184.787 66.1495 184.413 65.7229 184.136C65.3069 183.859 64.8429 183.72 64.3309 183.72C63.8189 183.72 63.3549 183.864 62.9389 184.152C62.5229 184.429 62.1869 184.803 61.9309 185.272C61.6855 185.741 61.5629 186.269 61.5629 186.856ZM74.2919 191V182.648H81.2199V191H79.8119V183.896H75.6999V191H74.2919ZM87.9914 191.16C87.3087 191.16 86.7007 190.989 86.1674 190.648C85.634 190.307 85.2127 189.875 84.9034 189.352V194.408H83.4954V182.648H84.7434V184.216C85.074 183.704 85.506 183.293 86.0394 182.984C86.5727 182.664 87.154 182.504 87.7834 182.504C88.3594 182.504 88.8874 182.621 89.3674 182.856C89.8474 183.091 90.2634 183.411 90.6154 183.816C90.9674 184.221 91.2394 184.685 91.4314 185.208C91.634 185.72 91.7354 186.259 91.7354 186.824C91.7354 187.613 91.5754 188.339 91.2554 189C90.946 189.661 90.5087 190.189 89.9434 190.584C89.378 190.968 88.7274 191.16 87.9914 191.16ZM87.5594 189.944C88.114 189.944 88.594 189.795 88.9994 189.496C89.4047 189.197 89.7194 188.808 89.9434 188.328C90.178 187.848 90.2954 187.347 90.2954 186.824C90.2954 186.259 90.1674 185.741 89.9114 185.272C89.666 184.803 89.3247 184.429 88.8874 184.152C88.4607 183.864 87.9754 183.72 87.4314 183.72C87.1007 183.72 86.7487 183.805 86.3754 183.976C86.0127 184.147 85.6927 184.376 85.4154 184.664C85.1487 184.941 84.978 185.251 84.9034 185.592V187.976C85.138 188.531 85.4954 189 85.9754 189.384C86.466 189.757 86.994 189.944 87.5594 189.944ZM92.8081 188.584C92.8081 188.051 92.9575 187.592 93.2561 187.208C93.5655 186.813 93.9868 186.509 94.5201 186.296C95.0535 186.083 95.6721 185.976 96.3761 185.976C96.7495 185.976 97.1441 186.008 97.5601 186.072C97.9761 186.125 98.3441 186.211 98.6641 186.328V185.72C98.6641 185.08 98.4721 184.579 98.0881 184.216C97.7041 183.843 97.1601 183.656 96.4561 183.656C95.9975 183.656 95.5548 183.741 95.1281 183.912C94.7121 184.072 94.2695 184.307 93.8001 184.616L93.2881 183.624C93.8321 183.251 94.3761 182.973 94.9201 182.792C95.4641 182.6 96.0295 182.504 96.6161 182.504C97.6828 182.504 98.5255 182.803 99.1441 183.4C99.7628 183.987 100.072 184.808 100.072 185.864V189.4C100.072 189.731 100.221 189.901 100.52 189.912V191C100.381 191.021 100.259 191.037 100.152 191.048C100.056 191.059 99.9761 191.064 99.9121 191.064C99.5815 191.064 99.3308 190.973 99.1601 190.792C99.0001 190.611 98.9095 190.419 98.8881 190.216L98.8561 189.688C98.4935 190.157 98.0188 190.52 97.4321 190.776C96.8455 191.032 96.2641 191.16 95.6881 191.16C95.1335 191.16 94.6375 191.048 94.2001 190.824C93.7628 190.589 93.4215 190.28 93.1761 189.896C92.9308 189.501 92.8081 189.064 92.8081 188.584ZM98.2481 189.176C98.3761 189.027 98.4775 188.877 98.5521 188.728C98.6268 188.568 98.6641 188.435 98.6641 188.328V187.288C97.9815 187.021 97.2775 186.888 96.5521 186.888C95.8375 186.888 95.2561 187.032 94.8081 187.32C94.3708 187.597 94.1521 187.981 94.1521 188.472C94.1521 188.739 94.2215 189 94.3601 189.256C94.5095 189.501 94.7228 189.704 95.0001 189.864C95.2881 190.024 95.6401 190.104 96.0561 190.104C96.4935 190.104 96.9095 190.019 97.3041 189.848C97.6988 189.667 98.0135 189.443 98.2481 189.176ZM102.308 191V182.648H106.628C107.129 182.648 107.545 182.749 107.876 182.952C108.206 183.144 108.452 183.395 108.612 183.704C108.782 184.013 108.868 184.344 108.868 184.696C108.868 185.144 108.761 185.549 108.548 185.912C108.334 186.264 108.025 186.531 107.62 186.712C108.1 186.851 108.489 187.101 108.788 187.464C109.086 187.816 109.236 188.253 109.236 188.776C109.236 189.48 108.985 190.029 108.484 190.424C107.993 190.808 107.348 191 106.548 191H102.308ZM103.652 186.328H106.26C106.633 186.328 106.937 186.189 107.172 185.912C107.417 185.624 107.54 185.299 107.54 184.936C107.54 184.584 107.422 184.28 107.188 184.024C106.964 183.768 106.67 183.64 106.308 183.64H103.652V186.328ZM103.652 190.008H106.516C106.9 190.008 107.22 189.869 107.476 189.592C107.742 189.315 107.876 188.995 107.876 188.632C107.876 188.259 107.748 187.939 107.492 187.672C107.246 187.395 106.937 187.256 106.564 187.256H103.652V190.008ZM111.011 191V182.648H112.419V186.088H113.347L115.971 182.648H117.571L114.451 186.696L117.939 191H116.307L113.347 187.384H112.419V191H111.011ZM119.308 191V182.664H120.716V189.112L125.388 182.648H126.668V191H125.26V184.68L120.652 191H119.308ZM132.948 191V182.648H137.268C137.769 182.648 138.185 182.749 138.516 182.952C138.847 183.144 139.092 183.395 139.252 183.704C139.423 184.013 139.508 184.344 139.508 184.696C139.508 185.144 139.401 185.549 139.188 185.912C138.975 186.264 138.665 186.531 138.26 186.712C138.74 186.851 139.129 187.101 139.428 187.464C139.727 187.816 139.876 188.253 139.876 188.776C139.876 189.48 139.625 190.029 139.124 190.424C138.633 190.808 137.988 191 137.188 191H132.948ZM134.292 186.328H136.9C137.273 186.328 137.577 186.189 137.812 185.912C138.057 185.624 138.18 185.299 138.18 184.936C138.18 184.584 138.063 184.28 137.828 184.024C137.604 183.768 137.311 183.64 136.948 183.64H134.292V186.328ZM134.292 190.008H137.156C137.54 190.008 137.86 189.869 138.116 189.592C138.383 189.315 138.516 188.995 138.516 188.632C138.516 188.259 138.388 187.939 138.132 187.672C137.887 187.395 137.577 187.256 137.204 187.256H134.292V190.008ZM145.698 191V182.648H152.626V191H151.218V183.896H147.106V191H145.698ZM159.398 191.16C158.715 191.16 158.107 190.989 157.574 190.648C157.04 190.307 156.619 189.875 156.31 189.352V194.408H154.902V182.648H156.15V184.216C156.48 183.704 156.912 183.293 157.446 182.984C157.979 182.664 158.56 182.504 159.19 182.504C159.766 182.504 160.294 182.621 160.774 182.856C161.254 183.091 161.67 183.411 162.022 183.816C162.374 184.221 162.646 184.685 162.838 185.208C163.04 185.72 163.142 186.259 163.142 186.824C163.142 187.613 162.982 188.339 162.662 189C162.352 189.661 161.915 190.189 161.35 190.584C160.784 190.968 160.134 191.16 159.398 191.16ZM158.966 189.944C159.52 189.944 160 189.795 160.406 189.496C160.811 189.197 161.126 188.808 161.35 188.328C161.584 187.848 161.702 187.347 161.702 186.824C161.702 186.259 161.574 185.741 161.318 185.272C161.072 184.803 160.731 184.429 160.294 184.152C159.867 183.864 159.382 183.72 158.838 183.72C158.507 183.72 158.155 183.805 157.782 183.976C157.419 184.147 157.099 184.376 156.822 184.664C156.555 184.941 156.384 185.251 156.31 185.592V187.976C156.544 188.531 156.902 189 157.382 189.384C157.872 189.757 158.4 189.944 158.966 189.944ZM168.518 191.16C167.686 191.16 166.95 190.963 166.31 190.568C165.681 190.163 165.19 189.635 164.838 188.984C164.486 188.323 164.31 187.608 164.31 186.84C164.31 186.061 164.486 185.347 164.838 184.696C165.201 184.035 165.697 183.507 166.326 183.112C166.966 182.707 167.697 182.504 168.518 182.504C169.35 182.504 170.081 182.707 170.71 183.112C171.35 183.507 171.846 184.035 172.198 184.696C172.561 185.347 172.742 186.061 172.742 186.84C172.742 187.608 172.561 188.323 172.198 188.984C171.846 189.635 171.356 190.163 170.726 190.568C170.097 190.963 169.361 191.16 168.518 191.16ZM165.75 186.856C165.75 187.432 165.873 187.955 166.118 188.424C166.374 188.893 166.71 189.267 167.126 189.544C167.542 189.811 168.006 189.944 168.518 189.944C169.03 189.944 169.494 189.805 169.91 189.528C170.337 189.251 170.673 188.877 170.918 188.408C171.174 187.928 171.302 187.4 171.302 186.824C171.302 186.248 171.174 185.725 170.918 185.256C170.673 184.787 170.337 184.413 169.91 184.136C169.494 183.859 169.03 183.72 168.518 183.72C168.006 183.72 167.542 183.864 167.126 184.152C166.71 184.429 166.374 184.803 166.118 185.272C165.873 185.741 165.75 186.269 165.75 186.856ZM178.145 191.16C177.313 191.16 176.577 190.963 175.937 190.568C175.297 190.173 174.795 189.645 174.433 188.984C174.07 188.323 173.889 187.603 173.889 186.824C173.889 186.035 174.07 185.315 174.433 184.664C174.795 184.013 175.297 183.491 175.937 183.096C176.587 182.701 177.329 182.504 178.161 182.504C179.003 182.504 179.734 182.707 180.353 183.112C180.982 183.507 181.467 184.029 181.809 184.68C182.161 185.32 182.337 186.013 182.337 186.76C182.337 186.995 182.326 187.176 182.305 187.304H175.377C175.419 187.848 175.569 188.333 175.825 188.76C176.091 189.176 176.433 189.507 176.849 189.752C177.265 189.987 177.713 190.104 178.193 190.104C178.705 190.104 179.185 189.976 179.633 189.72C180.091 189.464 180.406 189.128 180.577 188.712L181.793 189.048C181.526 189.667 181.062 190.173 180.401 190.568C179.739 190.963 178.987 191.16 178.145 191.16ZM175.329 186.328H181.025C180.982 185.784 180.827 185.304 180.561 184.888C180.294 184.472 179.953 184.147 179.537 183.912C179.121 183.677 178.662 183.56 178.161 183.56C177.67 183.56 177.217 183.677 176.801 183.912C176.385 184.147 176.043 184.472 175.777 184.888C175.521 185.304 175.371 185.784 175.329 186.328ZM183.886 191V182.648H185.294V186.088H186.222L188.846 182.648H190.446L187.326 186.696L190.814 191H189.182L186.222 187.384H185.294V191H183.886ZM194.231 191V183.896H191.351V182.648H198.519V183.896H195.639V191H194.231ZM199.293 192.296L199.613 190.872H199.133V189.208H200.461V190.872L199.981 192.296H199.293ZM1.12 214V205.648H8.048V214H6.64V206.896H2.528V214H1.12ZM10.3235 204.08V202.32H11.7315V204.08H10.3235ZM10.3235 214V205.648H11.7315V214H10.3235ZM13.083 215.968V212.752H13.259C13.5683 212.752 13.8457 212.624 14.091 212.368C14.347 212.101 14.555 211.632 14.715 210.96C14.875 210.277 14.971 209.312 15.003 208.064L15.083 205.648H20.763V212.752H21.899V215.968H20.651V214H14.331V215.968H13.083ZM15.227 212.752H19.355V206.896H16.331L16.283 208.192C16.2403 209.557 16.1283 210.592 15.947 211.296C15.7763 212 15.5363 212.485 15.227 212.752ZM23.4481 214V205.648H30.3761V214H28.9681V206.896H24.8561V214H23.4481ZM32.6356 214V205.664H34.0436V212.112L38.7156 205.648H39.9956V214H38.5876V207.68L33.9796 214H32.6356ZM45.9414 214.16C45.1094 214.16 44.3734 213.963 43.7334 213.568C43.0934 213.163 42.592 212.629 42.2294 211.968C41.8667 211.307 41.6854 210.587 41.6854 209.808C41.6854 209.019 41.8614 208.299 42.2134 207.648C42.5654 206.997 43.0614 206.48 43.7014 206.096C44.3414 205.701 45.0827 205.504 45.9254 205.504C46.7467 205.504 47.4614 205.691 48.0694 206.064C48.688 206.427 49.1467 206.917 49.4454 207.536L48.0694 207.968C47.856 207.573 47.5574 207.269 47.1734 207.056C46.7894 206.832 46.3627 206.72 45.8934 206.72C45.3814 206.72 44.912 206.853 44.4854 207.12C44.0694 207.387 43.7387 207.755 43.4934 208.224C43.248 208.683 43.1254 209.211 43.1254 209.808C43.1254 210.395 43.248 210.928 43.4934 211.408C43.7494 211.877 44.0854 212.251 44.5014 212.528C44.928 212.805 45.3974 212.944 45.9094 212.944C46.24 212.944 46.5547 212.885 46.8534 212.768C47.1627 212.651 47.4294 212.496 47.6534 212.304C47.888 212.101 48.048 211.883 48.1334 211.648L49.5094 212.064C49.264 212.672 48.816 213.173 48.1654 213.568C47.5254 213.963 46.784 214.16 45.9414 214.16ZM52.0041 217.504C51.6521 217.504 51.2788 217.397 50.8841 217.184L51.3641 216.224C51.5455 216.331 51.7268 216.384 51.9081 216.384C52.4308 216.384 52.8895 215.899 53.2841 214.928L53.6841 213.92L50.0201 205.648H51.5081L54.3241 212.576L56.8681 205.648H58.2601L54.3561 215.36C54.0681 216.075 53.7215 216.608 53.3161 216.96C52.9108 217.323 52.4735 217.504 52.0041 217.504ZM63.05 214.144C62.3993 214.144 61.8127 214.021 61.29 213.776C60.778 213.531 60.3353 213.205 59.962 212.8C59.5993 212.384 59.3167 211.92 59.114 211.408C58.922 210.885 58.826 210.347 58.826 209.792C58.826 209.259 58.9167 208.736 59.098 208.224C59.29 207.712 59.5673 207.253 59.93 206.848C60.2927 206.432 60.7353 206.107 61.258 205.872C61.7913 205.627 62.3993 205.504 63.082 205.504C63.9033 205.504 64.6073 205.68 65.194 206.032C65.7807 206.384 66.2233 206.848 66.522 207.424L65.45 207.984C65.1833 207.504 64.842 207.163 64.426 206.96C64.0207 206.757 63.5833 206.656 63.114 206.656C62.57 206.656 62.0953 206.784 61.69 207.04C61.2847 207.285 60.9647 207.611 60.73 208.016C60.4953 208.411 60.346 208.832 60.282 209.28H63.882V210.24H60.282C60.3353 210.741 60.49 211.205 60.746 211.632C61.002 212.048 61.338 212.384 61.754 212.64C62.17 212.885 62.634 213.008 63.146 213.008C63.6153 213.008 64.0633 212.896 64.49 212.672C64.9273 212.437 65.2793 212.08 65.546 211.6L66.682 212.128C66.362 212.768 65.866 213.264 65.194 213.616C64.5327 213.968 63.818 214.144 63.05 214.144ZM68.3544 214V205.648H69.8104L72.9144 211.12L76.0344 205.648H77.4584V214H76.1144V207.68L73.3624 212.512H72.4664L69.6984 207.68V214H68.3544ZM83.3778 214.16C82.5458 214.16 81.8098 213.963 81.1698 213.568C80.5404 213.163 80.0498 212.635 79.6978 211.984C79.3458 211.323 79.1698 210.608 79.1698 209.84C79.1698 209.061 79.3458 208.347 79.6978 207.696C80.0604 207.035 80.5564 206.507 81.1858 206.112C81.8258 205.707 82.5564 205.504 83.3778 205.504C84.2098 205.504 84.9404 205.707 85.5698 206.112C86.2098 206.507 86.7058 207.035 87.0578 207.696C87.4204 208.347 87.6018 209.061 87.6018 209.84C87.6018 210.608 87.4204 211.323 87.0578 211.984C86.7058 212.635 86.2151 213.163 85.5858 213.568C84.9564 213.963 84.2204 214.16 83.3778 214.16ZM80.6098 209.856C80.6098 210.432 80.7324 210.955 80.9778 211.424C81.2338 211.893 81.5698 212.267 81.9858 212.544C82.4018 212.811 82.8658 212.944 83.3778 212.944C83.8898 212.944 84.3538 212.805 84.7698 212.528C85.1964 212.251 85.5324 211.877 85.7778 211.408C86.0338 210.928 86.1618 210.4 86.1618 209.824C86.1618 209.248 86.0338 208.725 85.7778 208.256C85.5324 207.787 85.1964 207.413 84.7698 207.136C84.3538 206.859 83.8898 206.72 83.3778 206.72C82.8658 206.72 82.4018 206.864 81.9858 207.152C81.5698 207.429 81.2338 207.803 80.9778 208.272C80.7324 208.741 80.6098 209.269 80.6098 209.856ZM93.3388 214V205.648H100.267V214H98.8588V206.896H94.7468V214H93.3388ZM101.886 211.584C101.886 211.051 102.036 210.592 102.334 210.208C102.644 209.813 103.065 209.509 103.598 209.296C104.132 209.083 104.75 208.976 105.454 208.976C105.828 208.976 106.222 209.008 106.638 209.072C107.054 209.125 107.422 209.211 107.742 209.328V208.72C107.742 208.08 107.55 207.579 107.166 207.216C106.782 206.843 106.238 206.656 105.534 206.656C105.076 206.656 104.633 206.741 104.206 206.912C103.79 207.072 103.348 207.307 102.878 207.616L102.366 206.624C102.91 206.251 103.454 205.973 103.998 205.792C104.542 205.6 105.108 205.504 105.694 205.504C106.761 205.504 107.604 205.803 108.222 206.4C108.841 206.987 109.15 207.808 109.15 208.864V212.4C109.15 212.731 109.3 212.901 109.598 212.912V214C109.46 214.021 109.337 214.037 109.23 214.048C109.134 214.059 109.054 214.064 108.99 214.064C108.66 214.064 108.409 213.973 108.238 213.792C108.078 213.611 107.988 213.419 107.966 213.216L107.934 212.688C107.572 213.157 107.097 213.52 106.51 213.776C105.924 214.032 105.342 214.16 104.766 214.16C104.212 214.16 103.716 214.048 103.278 213.824C102.841 213.589 102.5 213.28 102.254 212.896C102.009 212.501 101.886 212.064 101.886 211.584ZM107.326 212.176C107.454 212.027 107.556 211.877 107.63 211.728C107.705 211.568 107.742 211.435 107.742 211.328V210.288C107.06 210.021 106.356 209.888 105.63 209.888C104.916 209.888 104.334 210.032 103.886 210.32C103.449 210.597 103.23 210.981 103.23 211.472C103.23 211.739 103.3 212 103.438 212.256C103.588 212.501 103.801 212.704 104.078 212.864C104.366 213.024 104.718 213.104 105.134 213.104C105.572 213.104 105.988 213.019 106.382 212.848C106.777 212.667 107.092 212.443 107.326 212.176ZM111.386 214V205.648H112.794V209.088H113.722L116.346 205.648H117.946L114.826 209.696L118.314 214H116.682L113.722 210.384H112.794V214H111.386ZM122.957 214.16C122.125 214.16 121.389 213.963 120.749 213.568C120.109 213.173 119.608 212.645 119.245 211.984C118.882 211.323 118.701 210.603 118.701 209.824C118.701 209.035 118.882 208.315 119.245 207.664C119.608 207.013 120.109 206.491 120.749 206.096C121.4 205.701 122.141 205.504 122.973 205.504C123.816 205.504 124.546 205.707 125.165 206.112C125.794 206.507 126.28 207.029 126.621 207.68C126.973 208.32 127.149 209.013 127.149 209.76C127.149 209.995 127.138 210.176 127.117 210.304H120.189C120.232 210.848 120.381 211.333 120.637 211.76C120.904 212.176 121.245 212.507 121.661 212.752C122.077 212.987 122.525 213.104 123.005 213.104C123.517 213.104 123.997 212.976 124.445 212.72C124.904 212.464 125.218 212.128 125.389 211.712L126.605 212.048C126.338 212.667 125.874 213.173 125.213 213.568C124.552 213.963 123.8 214.16 122.957 214.16ZM120.141 209.328H125.837C125.794 208.784 125.64 208.304 125.373 207.888C125.106 207.472 124.765 207.147 124.349 206.912C123.933 206.677 123.474 206.56 122.973 206.56C122.482 206.56 122.029 206.677 121.613 206.912C121.197 207.147 120.856 207.472 120.589 207.888C120.333 208.304 120.184 208.784 120.141 209.328ZM130.746 214V206.896H127.866V205.648H135.034V206.896H132.154V214H130.746ZM139.567 215.968V212.752H139.743C140.053 212.752 140.33 212.624 140.575 212.368C140.831 212.101 141.039 211.632 141.199 210.96C141.359 210.277 141.455 209.312 141.487 208.064L141.567 205.648H147.247V212.752H148.383V215.968H147.135V214H140.815V215.968H139.567ZM141.711 212.752H145.839V206.896H142.815L142.767 208.192C142.725 209.557 142.613 210.592 142.431 211.296C142.261 212 142.021 212.485 141.711 212.752ZM153.597 214.16C152.765 214.16 152.029 213.963 151.389 213.568C150.759 213.163 150.269 212.635 149.917 211.984C149.565 211.323 149.389 210.608 149.389 209.84C149.389 209.061 149.565 208.347 149.917 207.696C150.279 207.035 150.775 206.507 151.405 206.112C152.045 205.707 152.775 205.504 153.597 205.504C154.429 205.504 155.159 205.707 155.789 206.112C156.429 206.507 156.925 207.035 157.277 207.696C157.639 208.347 157.821 209.061 157.821 209.84C157.821 210.608 157.639 211.323 157.277 211.984C156.925 212.635 156.434 213.163 155.805 213.568C155.175 213.963 154.439 214.16 153.597 214.16ZM150.829 209.856C150.829 210.432 150.951 210.955 151.197 211.424C151.453 211.893 151.789 212.267 152.205 212.544C152.621 212.811 153.085 212.944 153.597 212.944C154.109 212.944 154.573 212.805 154.989 212.528C155.415 212.251 155.751 211.877 155.997 211.408C156.253 210.928 156.381 210.4 156.381 209.824C156.381 209.248 156.253 208.725 155.997 208.256C155.751 207.787 155.415 207.413 154.989 207.136C154.573 206.859 154.109 206.72 153.597 206.72C153.085 206.72 152.621 206.864 152.205 207.152C151.789 207.429 151.453 207.803 151.197 208.272C150.951 208.741 150.829 209.269 150.829 209.856ZM159.511 214V205.648H160.919V209.088H161.847L164.471 205.648H166.071L162.951 209.696L166.439 214H164.807L161.847 210.384H160.919V214H159.511ZM168.864 217.504C168.512 217.504 168.138 217.397 167.743 217.184L168.224 216.224C168.405 216.331 168.586 216.384 168.768 216.384C169.29 216.384 169.749 215.899 170.144 214.928L170.544 213.92L166.88 205.648H168.368L171.184 212.576L173.728 205.648H175.12L171.216 215.36C170.928 216.075 170.581 216.608 170.176 216.96C169.77 217.323 169.333 217.504 168.864 217.504ZM176.526 214V205.648H177.982L181.086 211.12L184.206 205.648H185.63V214H184.286V207.68L181.534 212.512H180.638L177.87 207.68V214H176.526ZM191.598 214.16C190.766 214.16 190.03 213.963 189.39 213.568C188.75 213.173 188.248 212.645 187.886 211.984C187.523 211.323 187.342 210.603 187.342 209.824C187.342 209.035 187.523 208.315 187.886 207.664C188.248 207.013 188.75 206.491 189.39 206.096C190.04 205.701 190.782 205.504 191.614 205.504C192.456 205.504 193.187 205.707 193.806 206.112C194.435 206.507 194.92 207.029 195.262 207.68C195.614 208.32 195.79 209.013 195.79 209.76C195.79 209.995 195.779 210.176 195.758 210.304H188.83C188.872 210.848 189.022 211.333 189.278 211.76C189.544 212.176 189.886 212.507 190.302 212.752C190.718 212.987 191.166 213.104 191.646 213.104C192.158 213.104 192.638 212.976 193.086 212.72C193.544 212.464 193.859 212.128 194.03 211.712L195.246 212.048C194.979 212.667 194.515 213.173 193.854 213.568C193.192 213.963 192.44 214.16 191.598 214.16ZM188.782 209.328H194.478C194.435 208.784 194.28 208.304 194.014 207.888C193.747 207.472 193.406 207.147 192.99 206.912C192.574 206.677 192.115 206.56 191.614 206.56C191.123 206.56 190.67 206.677 190.254 206.912C189.838 207.147 189.496 207.472 189.23 207.888C188.974 208.304 188.824 208.784 188.782 209.328ZM197.339 214V205.648H198.747V209.104H203.099V205.648H204.507V214H203.099V210.352H198.747V214H197.339ZM208.809 214V206.896H205.929V205.648H213.097V206.896H210.217V214H208.809ZM214.511 204.08V202.32H215.919V204.08H214.511ZM214.511 214V205.648H215.919V214H214.511ZM218.183 214V205.648H222.503C223.004 205.648 223.42 205.749 223.751 205.952C224.081 206.144 224.327 206.395 224.487 206.704C224.657 207.013 224.743 207.344 224.743 207.696C224.743 208.144 224.636 208.549 224.423 208.912C224.209 209.264 223.9 209.531 223.495 209.712C223.975 209.851 224.364 210.101 224.663 210.464C224.961 210.816 225.111 211.253 225.111 211.776C225.111 212.48 224.86 213.029 224.359 213.424C223.868 213.808 223.223 214 222.423 214H218.183ZM219.527 209.328H222.135C222.508 209.328 222.812 209.189 223.047 208.912C223.292 208.624 223.415 208.299 223.415 207.936C223.415 207.584 223.297 207.28 223.063 207.024C222.839 206.768 222.545 206.64 222.183 206.64H219.527V209.328ZM219.527 213.008H222.391C222.775 213.008 223.095 212.869 223.351 212.592C223.617 212.315 223.751 211.995 223.751 211.632C223.751 211.259 223.623 210.939 223.367 210.672C223.121 210.395 222.812 210.256 222.439 210.256H219.527V213.008ZM226.79 214V212.208H227.974V214H226.79Z" fill="#282B22"/>
<circle opacity="0.3" cx="30" cy="30" r="29.5" stroke="#282B22"/>
<path d="M30.512 30.968C30.512 32.376 30.24 33.632 29.696 34.736C29.168 35.824 28.44 36.68 27.512 37.304C26.584 37.928 25.536 38.24 24.368 38.24C23.184 38.24 22.128 37.928 21.2 37.304C20.288 36.68 19.56 35.824 19.016 34.736C18.488 33.632 18.224 32.376 18.224 30.968C18.224 29.56 18.488 28.312 19.016 27.224C19.56 26.12 20.288 25.256 21.2 24.632C22.128 23.992 23.184 23.672 24.368 23.672C25.536 23.672 26.584 23.992 27.512 24.632C28.44 25.256 29.168 26.12 29.696 27.224C30.24 28.312 30.512 29.56 30.512 30.968ZM27.824 30.968C27.824 30.008 27.672 29.168 27.368 28.448C27.08 27.712 26.672 27.144 26.144 26.744C25.632 26.328 25.04 26.12 24.368 26.12C23.68 26.12 23.072 26.328 22.544 26.744C22.016 27.144 21.6 27.712 21.296 28.448C21.008 29.168 20.864 30.008 20.864 30.968C20.864 32.408 21.184 33.576 21.824 34.472C22.48 35.352 23.328 35.792 24.368 35.792C25.04 35.792 25.632 35.592 26.144 35.192C26.672 34.792 27.08 34.232 27.368 33.512C27.672 32.776 27.824 31.928 27.824 30.968ZM42.4702 35.624V38H33.3022V35.624H36.7102V27.248C36.5342 27.488 36.2142 27.752 35.7502 28.04C35.2862 28.328 34.7822 28.568 34.2382 28.76C33.7102 28.952 33.2382 29.048 32.8222 29.048V26.576C33.1422 26.576 33.5102 26.48 33.9262 26.288C34.3422 26.096 34.7502 25.872 35.1502 25.616C35.5662 25.344 35.9182 25.088 36.2062 24.848C36.4942 24.592 36.6622 24.408 36.7102 24.296H39.4222V35.624H42.4702Z" fill="#3D4A39"/>
</svg>
