<svg width="240" height="201" viewBox="0 0 240 201" fill="none" xmlns="http://www.w3.org/2000/svg">
<circle opacity="0.3" cx="30" cy="30" r="29.5" stroke="#282B22"/>
<path d="M28.512 28.968C28.512 30.376 28.24 31.632 27.696 32.736C27.168 33.824 26.44 34.68 25.512 35.304C24.584 35.928 23.536 36.24 22.368 36.24C21.184 36.24 20.128 35.928 19.2 35.304C18.288 34.68 17.56 33.824 17.016 32.736C16.488 31.632 16.224 30.376 16.224 28.968C16.224 27.56 16.488 26.312 17.016 25.224C17.56 24.12 18.288 23.256 19.2 22.632C20.128 21.992 21.184 21.672 22.368 21.672C23.536 21.672 24.584 21.992 25.512 22.632C26.44 23.256 27.168 24.12 27.696 25.224C28.24 26.312 28.512 27.56 28.512 28.968ZM25.824 28.968C25.824 28.008 25.672 27.168 25.368 26.448C25.08 25.712 24.672 25.144 24.144 24.744C23.632 24.328 23.04 24.12 22.368 24.12C21.68 24.12 21.072 24.328 20.544 24.744C20.016 25.144 19.6 25.712 19.296 26.448C19.008 27.168 18.864 28.008 18.864 28.968C18.864 30.408 19.184 31.576 19.824 32.472C20.48 33.352 21.328 33.792 22.368 33.792C23.04 33.792 23.632 33.592 24.144 33.192C24.672 32.792 25.08 32.232 25.368 31.512C25.672 30.776 25.824 29.928 25.824 28.968ZM37.6382 39.048V35.232H30.2702V32.88L38.4782 22.296H40.2782V32.832H42.3902V35.232H40.2782V39.048H37.6382ZM32.9582 32.832H37.9262V26.328L32.9582 32.832Z" fill="#3D4A39"/>
<path d="M11.934 101.22V114H9.9V108.366H3.456V114H1.44V101.22H3.456V106.566H9.9V101.22H11.934ZM18.6368 114.18C17.6528 114.18 16.7948 113.958 16.0628 113.514C15.3428 113.058 14.7848 112.464 14.3888 111.732C13.9928 110.988 13.7948 110.178 13.7948 109.302C13.7948 108.426 13.9928 107.622 14.3888 106.89C14.7968 106.146 15.3608 105.552 16.0808 105.108C16.8128 104.652 17.6648 104.424 18.6368 104.424C19.6088 104.424 20.4548 104.652 21.1748 105.108C21.9068 105.552 22.4708 106.146 22.8668 106.89C23.2748 107.622 23.4788 108.426 23.4788 109.302C23.4788 110.178 23.2808 110.988 22.8848 111.732C22.4888 112.464 21.9248 113.058 21.1928 113.514C20.4728 113.958 19.6208 114.18 18.6368 114.18ZM15.8288 109.32C15.8288 109.92 15.9548 110.46 16.2068 110.94C16.4588 111.42 16.7948 111.798 17.2148 112.074C17.6348 112.35 18.1088 112.488 18.6368 112.488C19.1528 112.488 19.6208 112.35 20.0408 112.074C20.4728 111.786 20.8148 111.402 21.0668 110.922C21.3188 110.442 21.4448 109.902 21.4448 109.302C21.4448 108.702 21.3188 108.162 21.0668 107.682C20.8148 107.202 20.4728 106.824 20.0408 106.548C19.6208 106.26 19.1528 106.116 18.6368 106.116C18.1208 106.116 17.6468 106.26 17.2148 106.548C16.7948 106.824 16.4588 107.208 16.2068 107.7C15.9548 108.18 15.8288 108.72 15.8288 109.32ZM25.2349 114V104.586H30.2749C30.8749 104.586 31.3669 104.7 31.7509 104.928C32.1469 105.144 32.4409 105.426 32.6329 105.774C32.8249 106.122 32.9209 106.494 32.9209 106.89C32.9209 107.406 32.7949 107.862 32.5429 108.258C32.3029 108.654 31.9549 108.954 31.4989 109.158C32.0389 109.314 32.4769 109.59 32.8129 109.986C33.1609 110.382 33.3349 110.88 33.3349 111.48C33.3349 112.308 33.0409 112.938 32.4529 113.37C31.8649 113.79 31.0849 114 30.1129 114H25.2349ZM27.1069 108.618H29.7709C30.1429 108.618 30.4489 108.48 30.6889 108.204C30.9289 107.928 31.0489 107.604 31.0489 107.232C31.0489 106.884 30.9349 106.584 30.7069 106.332C30.4789 106.08 30.1789 105.954 29.8069 105.954H27.1069V108.618ZM27.1069 112.632H30.0589C30.4429 112.632 30.7669 112.5 31.0309 112.236C31.2949 111.96 31.4269 111.636 31.4269 111.264C31.4269 110.88 31.3009 110.556 31.0489 110.292C30.7969 110.028 30.4789 109.896 30.0949 109.896H27.1069V112.632ZM39.4493 114.18C38.4653 114.18 37.6073 113.958 36.8753 113.514C36.1553 113.058 35.5973 112.464 35.2013 111.732C34.8053 110.988 34.6073 110.178 34.6073 109.302C34.6073 108.426 34.8053 107.622 35.2013 106.89C35.6093 106.146 36.1733 105.552 36.8933 105.108C37.6253 104.652 38.4773 104.424 39.4493 104.424C40.4213 104.424 41.2673 104.652 41.9873 105.108C42.7193 105.552 43.2833 106.146 43.6793 106.89C44.0873 107.622 44.2913 108.426 44.2913 109.302C44.2913 110.178 44.0933 110.988 43.6973 111.732C43.3013 112.464 42.7373 113.058 42.0053 113.514C41.2853 113.958 40.4333 114.18 39.4493 114.18ZM36.6413 109.32C36.6413 109.92 36.7673 110.46 37.0193 110.94C37.2713 111.42 37.6073 111.798 38.0273 112.074C38.4473 112.35 38.9213 112.488 39.4493 112.488C39.9653 112.488 40.4333 112.35 40.8533 112.074C41.2853 111.786 41.6273 111.402 41.8793 110.922C42.1313 110.442 42.2573 109.902 42.2573 109.302C42.2573 108.702 42.1313 108.162 41.8793 107.682C41.6273 107.202 41.2853 106.824 40.8533 106.548C40.4333 106.26 39.9653 106.116 39.4493 106.116C38.9333 106.116 38.4593 106.26 38.0273 106.548C37.6073 106.824 37.2713 107.208 37.0193 107.7C36.7673 108.18 36.6413 108.72 36.6413 109.32ZM50.3134 114.18C49.3414 114.18 48.4894 113.958 47.7574 113.514C47.0254 113.058 46.4554 112.458 46.0474 111.714C45.6394 110.97 45.4354 110.16 45.4354 109.284C45.4354 108.408 45.6334 107.604 46.0294 106.872C46.4374 106.128 47.0014 105.534 47.7214 105.09C48.4534 104.646 49.3174 104.424 50.3134 104.424C51.2854 104.424 52.1194 104.64 52.8154 105.072C53.5234 105.492 54.0514 106.056 54.3994 106.764L52.4734 107.376C52.2574 106.98 51.9514 106.674 51.5554 106.458C51.1714 106.23 50.7454 106.116 50.2774 106.116C49.7494 106.116 49.2694 106.254 48.8374 106.53C48.4174 106.794 48.0814 107.166 47.8294 107.646C47.5894 108.126 47.4694 108.672 47.4694 109.284C47.4694 109.896 47.5954 110.442 47.8474 110.922C48.1114 111.402 48.4534 111.786 48.8734 112.074C49.3054 112.35 49.7794 112.488 50.2954 112.488C50.7754 112.488 51.2314 112.362 51.6634 112.11C52.0954 111.858 52.3834 111.552 52.5274 111.192L54.4714 111.768C54.1594 112.476 53.6374 113.058 52.9054 113.514C52.1734 113.958 51.3094 114.18 50.3134 114.18ZM56.1021 103.038V100.86H58.0821V103.038H56.1021ZM56.1021 114V104.586H58.0821V114H56.1021ZM59.7054 114.09V112.326C60.1014 112.314 60.4434 112.176 60.7314 111.912C61.0314 111.648 61.2714 111.168 61.4514 110.472C61.6314 109.764 61.7454 108.75 61.7934 107.43L61.9194 104.586H68.6334V114H66.6534V106.332H63.6654L63.6294 107.61C63.5694 109.29 63.3834 110.598 63.0714 111.534C62.7714 112.47 62.3454 113.13 61.7934 113.514C61.2414 113.898 60.5454 114.09 59.7054 114.09ZM70.2523 114.09V112.326C70.6483 112.314 70.9903 112.176 71.2783 111.912C71.5783 111.648 71.8183 111.168 71.9983 110.472C72.1783 109.764 72.2923 108.75 72.3403 107.43L72.4663 104.586H79.1803V114H77.2003V106.332H74.2123L74.1763 107.61C74.1163 109.29 73.9303 110.598 73.6183 111.534C73.3183 112.47 72.8923 113.13 72.3403 113.514C71.7883 113.898 71.0923 114.09 70.2523 114.09ZM80.9612 114L83.4812 110.274C82.8932 110.13 82.4252 109.83 82.0772 109.374C81.7292 108.918 81.5552 108.306 81.5552 107.538C81.5552 106.662 81.8552 105.948 82.4552 105.396C83.0552 104.844 83.8412 104.568 84.8132 104.568H88.9532V114H86.9732V110.598H85.4252L83.1212 114H80.9612ZM85.0112 109.158H86.9732V106.098H85.1372C84.6332 106.098 84.2312 106.236 83.9312 106.512C83.6432 106.788 83.4992 107.148 83.4992 107.592C83.4992 108.036 83.6252 108.408 83.8772 108.708C84.1292 109.008 84.5072 109.158 85.0112 109.158Z" fill="#282B22"/>
<path opacity="0.8" d="M1.36 149V137.64H10.128V149H8.688V138.92H2.8V149H1.36ZM16.2684 149.16C15.4364 149.16 14.7004 148.963 14.0604 148.568C13.431 148.163 12.9404 147.635 12.5884 146.984C12.2364 146.323 12.0604 145.608 12.0604 144.84C12.0604 144.061 12.2364 143.347 12.5884 142.696C12.951 142.035 13.447 141.507 14.0764 141.112C14.7164 140.707 15.447 140.504 16.2684 140.504C17.1004 140.504 17.831 140.707 18.4604 141.112C19.1004 141.507 19.5964 142.035 19.9484 142.696C20.311 143.347 20.4924 144.061 20.4924 144.84C20.4924 145.608 20.311 146.323 19.9484 146.984C19.5964 147.635 19.1057 148.163 18.4764 148.568C17.847 148.963 17.111 149.16 16.2684 149.16ZM13.5004 144.856C13.5004 145.432 13.623 145.955 13.8684 146.424C14.1244 146.893 14.4604 147.267 14.8764 147.544C15.2924 147.811 15.7564 147.944 16.2684 147.944C16.7804 147.944 17.2444 147.805 17.6604 147.528C18.087 147.251 18.423 146.877 18.6684 146.408C18.9244 145.928 19.0524 145.4 19.0524 144.824C19.0524 144.248 18.9244 143.725 18.6684 143.256C18.423 142.787 18.087 142.413 17.6604 142.136C17.2444 141.859 16.7804 141.72 16.2684 141.72C15.7564 141.72 15.2924 141.864 14.8764 142.152C14.4604 142.429 14.1244 142.803 13.8684 143.272C13.623 143.741 13.5004 144.269 13.5004 144.856ZM28.8534 149.112C28.0427 149.112 27.3547 148.963 26.7894 148.664C26.2347 148.355 25.808 147.928 25.5094 147.384L26.6614 146.872C26.8534 147.213 27.1254 147.48 27.4774 147.672C27.84 147.864 28.2774 147.96 28.7894 147.96C29.3974 147.96 29.8774 147.827 30.2294 147.56C30.5814 147.293 30.7574 146.936 30.7574 146.488C30.7574 146.083 30.6134 145.757 30.3254 145.512C30.048 145.256 29.6534 145.123 29.1414 145.112H28.2934V144.184H29.1894C29.5307 144.184 29.808 144.067 30.0214 143.832C30.2454 143.587 30.3574 143.283 30.3574 142.92C30.3574 142.547 30.224 142.248 29.9574 142.024C29.6907 141.789 29.2907 141.672 28.7574 141.672C27.9147 141.672 27.312 142.013 26.9494 142.696L25.8774 142.12C26.144 141.619 26.528 141.229 27.0294 140.952C27.5414 140.664 28.1387 140.52 28.8214 140.52C29.6427 140.52 30.3147 140.717 30.8374 141.112C31.36 141.496 31.6214 142.04 31.6214 142.744C31.6214 143.139 31.5254 143.507 31.3334 143.848C31.152 144.179 30.88 144.429 30.5174 144.6C31.0187 144.749 31.4027 145.011 31.6694 145.384C31.936 145.747 32.0694 146.179 32.0694 146.68C32.0694 147.448 31.7654 148.045 31.1574 148.472C30.56 148.899 29.792 149.112 28.8534 149.112ZM33.105 146.584C33.105 146.051 33.2543 145.592 33.553 145.208C33.8623 144.813 34.2837 144.509 34.817 144.296C35.3503 144.083 35.969 143.976 36.673 143.976C37.0463 143.976 37.441 144.008 37.857 144.072C38.273 144.125 38.641 144.211 38.961 144.328V143.72C38.961 143.08 38.769 142.579 38.385 142.216C38.001 141.843 37.457 141.656 36.753 141.656C36.2943 141.656 35.8517 141.741 35.425 141.912C35.009 142.072 34.5663 142.307 34.097 142.616L33.585 141.624C34.129 141.251 34.673 140.973 35.217 140.792C35.761 140.6 36.3263 140.504 36.913 140.504C37.9797 140.504 38.8223 140.803 39.441 141.4C40.0597 141.987 40.369 142.808 40.369 143.864V147.4C40.369 147.731 40.5183 147.901 40.817 147.912V149C40.6783 149.021 40.5557 149.037 40.449 149.048C40.353 149.059 40.273 149.064 40.209 149.064C39.8783 149.064 39.6277 148.973 39.457 148.792C39.297 148.611 39.2063 148.419 39.185 148.216L39.153 147.688C38.7903 148.157 38.3157 148.52 37.729 148.776C37.1423 149.032 36.561 149.16 35.985 149.16C35.4303 149.16 34.9343 149.048 34.497 148.824C34.0597 148.589 33.7183 148.28 33.473 147.896C33.2277 147.501 33.105 147.064 33.105 146.584ZM38.545 147.176C38.673 147.027 38.7743 146.877 38.849 146.728C38.9237 146.568 38.961 146.435 38.961 146.328V145.288C38.2783 145.021 37.5743 144.888 36.849 144.888C36.1343 144.888 35.553 145.032 35.105 145.32C34.6677 145.597 34.449 145.981 34.449 146.472C34.449 146.739 34.5183 147 34.657 147.256C34.8063 147.501 35.0197 147.704 35.297 147.864C35.585 148.024 35.937 148.104 36.353 148.104C36.7903 148.104 37.2063 148.019 37.601 147.848C37.9957 147.667 38.3103 147.443 38.545 147.176ZM42.6044 149V140.648H44.0124V144.088H44.9404L47.5644 140.648H49.1644L46.0444 144.696L49.5324 149H47.9004L44.9404 145.384H44.0124V149H42.6044ZM50.9173 139.08V137.32H52.3253V139.08H50.9173ZM50.9173 149V140.648H52.3253V149H50.9173ZM54.5888 149V140.648H55.9968V144.104H60.3488V140.648H61.7568V149H60.3488V145.352H55.9968V149H54.5888ZM68.7626 149V145.656C68.112 145.965 67.376 146.12 66.5546 146.12C64.6986 146.12 63.7706 145.171 63.7706 143.272V140.648H65.1786V143.08C65.1786 143.752 65.3173 144.243 65.5946 144.552C65.872 144.861 66.3146 145.016 66.9226 145.016C67.264 145.016 67.6 144.979 67.9306 144.904C68.272 144.829 68.5493 144.728 68.7626 144.6V140.648H70.1866V149H68.7626ZM76.1601 149.16C75.3281 149.16 74.5921 148.963 73.9521 148.568C73.3121 148.173 72.8108 147.645 72.4481 146.984C72.0855 146.323 71.9041 145.603 71.9041 144.824C71.9041 144.035 72.0855 143.315 72.4481 142.664C72.8108 142.013 73.3121 141.491 73.9521 141.096C74.6028 140.701 75.3441 140.504 76.1761 140.504C77.0188 140.504 77.7495 140.707 78.3681 141.112C78.9975 141.507 79.4828 142.029 79.8241 142.68C80.1761 143.32 80.3521 144.013 80.3521 144.76C80.3521 144.995 80.3415 145.176 80.3201 145.304H73.3921C73.4348 145.848 73.5841 146.333 73.8401 146.76C74.1068 147.176 74.4481 147.507 74.8641 147.752C75.2801 147.987 75.7281 148.104 76.2081 148.104C76.7201 148.104 77.2001 147.976 77.6481 147.72C78.1068 147.464 78.4215 147.128 78.5921 146.712L79.8081 147.048C79.5415 147.667 79.0775 148.173 78.4161 148.568C77.7548 148.963 77.0028 149.16 76.1601 149.16ZM73.3441 144.328H79.0401C78.9975 143.784 78.8428 143.304 78.5761 142.888C78.3095 142.472 77.9681 142.147 77.5521 141.912C77.1361 141.677 76.6775 141.56 76.1761 141.56C75.6855 141.56 75.2321 141.677 74.8161 141.912C74.4001 142.147 74.0588 142.472 73.7921 142.888C73.5361 143.304 73.3868 143.784 73.3441 144.328ZM81.9013 149V140.648H83.3093V144.104H87.6613V140.648H89.0693V149H87.6613V145.352H83.3093V149H81.9013ZM91.3231 149V140.648H92.7311V144.104H97.0831V140.648H98.4911V149H97.0831V145.352H92.7311V149H91.3231ZM107.657 149.16C106.921 149.16 106.27 149 105.705 148.68C105.14 148.36 104.686 147.923 104.345 147.368C104.004 146.803 103.796 146.163 103.721 145.448H102.169V149H100.761V140.648H102.169V144.216H103.721C103.806 143.48 104.02 142.835 104.361 142.28C104.713 141.715 105.172 141.277 105.737 140.968C106.302 140.659 106.942 140.504 107.657 140.504C108.5 140.504 109.225 140.701 109.833 141.096C110.441 141.48 110.91 141.997 111.241 142.648C111.572 143.299 111.737 144.029 111.737 144.84C111.737 145.672 111.566 146.413 111.225 147.064C110.894 147.715 110.42 148.227 109.801 148.6C109.193 148.973 108.478 149.16 107.657 149.16ZM107.657 147.944C108.18 147.944 108.638 147.811 109.033 147.544C109.428 147.277 109.737 146.915 109.961 146.456C110.185 145.987 110.297 145.448 110.297 144.84C110.297 144.2 110.18 143.651 109.945 143.192C109.721 142.723 109.406 142.36 109.001 142.104C108.606 141.848 108.158 141.72 107.657 141.72C107.156 141.72 106.708 141.853 106.313 142.12C105.929 142.376 105.63 142.739 105.417 143.208C105.204 143.677 105.097 144.221 105.097 144.84C105.097 145.789 105.337 146.547 105.817 147.112C106.297 147.667 106.91 147.944 107.657 147.944ZM121.991 149.16C121.309 149.16 120.701 148.989 120.167 148.648C119.634 148.307 119.213 147.875 118.903 147.352V152.408H117.495V140.648H118.743V142.216C119.074 141.704 119.506 141.293 120.039 140.984C120.573 140.664 121.154 140.504 121.783 140.504C122.359 140.504 122.887 140.621 123.367 140.856C123.847 141.091 124.263 141.411 124.615 141.816C124.967 142.221 125.239 142.685 125.431 143.208C125.634 143.72 125.735 144.259 125.735 144.824C125.735 145.613 125.575 146.339 125.255 147C124.946 147.661 124.509 148.189 123.943 148.584C123.378 148.968 122.727 149.16 121.991 149.16ZM121.559 147.944C122.114 147.944 122.594 147.795 122.999 147.496C123.405 147.197 123.719 146.808 123.943 146.328C124.178 145.848 124.295 145.347 124.295 144.824C124.295 144.259 124.167 143.741 123.911 143.272C123.666 142.803 123.325 142.429 122.887 142.152C122.461 141.864 121.975 141.72 121.431 141.72C121.101 141.72 120.749 141.805 120.375 141.976C120.013 142.147 119.693 142.376 119.415 142.664C119.149 142.941 118.978 143.251 118.903 143.592V145.976C119.138 146.531 119.495 147 119.975 147.384C120.466 147.757 120.994 147.944 121.559 147.944ZM131.112 149.16C130.28 149.16 129.544 148.963 128.904 148.568C128.275 148.163 127.784 147.635 127.432 146.984C127.08 146.323 126.904 145.608 126.904 144.84C126.904 144.061 127.08 143.347 127.432 142.696C127.795 142.035 128.291 141.507 128.92 141.112C129.56 140.707 130.291 140.504 131.112 140.504C131.944 140.504 132.675 140.707 133.304 141.112C133.944 141.507 134.44 142.035 134.792 142.696C135.155 143.347 135.336 144.061 135.336 144.84C135.336 145.608 135.155 146.323 134.792 146.984C134.44 147.635 133.949 148.163 133.32 148.568C132.691 148.963 131.955 149.16 131.112 149.16ZM128.344 144.856C128.344 145.432 128.467 145.955 128.712 146.424C128.968 146.893 129.304 147.267 129.72 147.544C130.136 147.811 130.6 147.944 131.112 147.944C131.624 147.944 132.088 147.805 132.504 147.528C132.931 147.251 133.267 146.877 133.512 146.408C133.768 145.928 133.896 145.4 133.896 144.824C133.896 144.248 133.768 143.725 133.512 143.256C133.267 142.787 132.931 142.413 132.504 142.136C132.088 141.859 131.624 141.72 131.112 141.72C130.6 141.72 130.136 141.864 129.72 142.152C129.304 142.429 128.968 142.803 128.712 143.272C128.467 143.741 128.344 144.269 128.344 144.856ZM140.978 149.16C139.602 149.16 138.562 148.744 137.858 147.912C137.154 147.08 136.802 145.907 136.802 144.392C136.802 143.357 136.888 142.488 137.058 141.784C137.229 141.069 137.485 140.483 137.826 140.024C138.168 139.555 138.589 139.176 139.09 138.888C139.592 138.589 140.168 138.344 140.818 138.152L144.354 137.08L144.434 138.296L140.994 139.336C140.408 139.528 139.917 139.773 139.522 140.072C139.128 140.371 138.818 140.755 138.594 141.224C138.37 141.693 138.221 142.296 138.146 143.032C138.424 142.467 138.84 142.029 139.394 141.72C139.949 141.4 140.594 141.24 141.33 141.24C142.12 141.24 142.797 141.405 143.362 141.736C143.938 142.056 144.376 142.509 144.674 143.096C144.984 143.672 145.138 144.339 145.138 145.096C145.138 145.907 144.978 146.616 144.658 147.224C144.338 147.832 143.869 148.307 143.25 148.648C142.632 148.989 141.874 149.16 140.978 149.16ZM140.978 147.944C141.842 147.944 142.509 147.693 142.978 147.192C143.458 146.68 143.698 146.003 143.698 145.16C143.698 144.339 143.464 143.672 142.994 143.16C142.525 142.648 141.853 142.392 140.978 142.392C140.2 142.392 139.549 142.632 139.026 143.112C138.514 143.592 138.258 144.275 138.258 145.16C138.258 145.971 138.493 146.637 138.962 147.16C139.432 147.683 140.104 147.944 140.978 147.944ZM146.839 149V140.664H148.247V147.112L152.919 140.648H154.199V149H152.791V142.68L148.183 149H146.839ZM156.433 149V140.648H157.889L160.993 146.12L164.113 140.648H165.537V149H164.193V142.68L161.441 147.512H160.545L157.777 142.68V149H156.433ZM171.456 149.16C170.624 149.16 169.888 148.963 169.248 148.568C168.619 148.163 168.128 147.635 167.776 146.984C167.424 146.323 167.248 145.608 167.248 144.84C167.248 144.061 167.424 143.347 167.776 142.696C168.139 142.035 168.635 141.507 169.264 141.112C169.904 140.707 170.635 140.504 171.456 140.504C172.288 140.504 173.019 140.707 173.648 141.112C174.288 141.507 174.784 142.035 175.136 142.696C175.499 143.347 175.68 144.061 175.68 144.84C175.68 145.608 175.499 146.323 175.136 146.984C174.784 147.635 174.293 148.163 173.664 148.568C173.035 148.963 172.299 149.16 171.456 149.16ZM168.688 144.856C168.688 145.432 168.811 145.955 169.056 146.424C169.312 146.893 169.648 147.267 170.064 147.544C170.48 147.811 170.944 147.944 171.456 147.944C171.968 147.944 172.432 147.805 172.848 147.528C173.275 147.251 173.611 146.877 173.856 146.408C174.112 145.928 174.24 145.4 174.24 144.824C174.24 144.248 174.112 143.725 173.856 143.256C173.611 142.787 173.275 142.413 172.848 142.136C172.432 141.859 171.968 141.72 171.456 141.72C170.944 141.72 170.48 141.864 170.064 142.152C169.648 142.429 169.312 142.803 169.056 143.272C168.811 143.741 168.688 144.269 168.688 144.856ZM1.12 172V163.648H8.048V172H6.64V164.896H2.528V172H1.12ZM14.0195 172.16C13.1875 172.16 12.4515 171.963 11.8115 171.568C11.1715 171.173 10.6702 170.645 10.3075 169.984C9.94483 169.323 9.7635 168.603 9.7635 167.824C9.7635 167.035 9.94483 166.315 10.3075 165.664C10.6702 165.013 11.1715 164.491 11.8115 164.096C12.4622 163.701 13.2035 163.504 14.0355 163.504C14.8782 163.504 15.6088 163.707 16.2275 164.112C16.8568 164.507 17.3422 165.029 17.6835 165.68C18.0355 166.32 18.2115 167.013 18.2115 167.76C18.2115 167.995 18.2008 168.176 18.1795 168.304H11.2515C11.2942 168.848 11.4435 169.333 11.6995 169.76C11.9662 170.176 12.3075 170.507 12.7235 170.752C13.1395 170.987 13.5875 171.104 14.0675 171.104C14.5795 171.104 15.0595 170.976 15.5075 170.72C15.9662 170.464 16.2808 170.128 16.4515 169.712L17.6675 170.048C17.4008 170.667 16.9368 171.173 16.2755 171.568C15.6142 171.963 14.8622 172.16 14.0195 172.16ZM11.2035 167.328H16.8995C16.8568 166.784 16.7022 166.304 16.4355 165.888C16.1688 165.472 15.8275 165.147 15.4115 164.912C14.9955 164.677 14.5368 164.56 14.0355 164.56C13.5448 164.56 13.0915 164.677 12.6755 164.912C12.2595 165.147 11.9182 165.472 11.6515 165.888C11.3955 166.304 11.2462 166.784 11.2035 167.328ZM24.2726 172.16C23.59 172.16 22.982 171.989 22.4486 171.648C21.9153 171.307 21.494 170.875 21.1846 170.352V175.408H19.7766V163.648H21.0246V165.216C21.3553 164.704 21.7873 164.293 22.3206 163.984C22.854 163.664 23.4353 163.504 24.0646 163.504C24.6406 163.504 25.1686 163.621 25.6486 163.856C26.1286 164.091 26.5446 164.411 26.8966 164.816C27.2486 165.221 27.5206 165.685 27.7126 166.208C27.9153 166.72 28.0166 167.259 28.0166 167.824C28.0166 168.613 27.8566 169.339 27.5366 170C27.2273 170.661 26.79 171.189 26.2246 171.584C25.6593 171.968 25.0086 172.16 24.2726 172.16ZM23.8406 170.944C24.3953 170.944 24.8753 170.795 25.2806 170.496C25.686 170.197 26.0006 169.808 26.2246 169.328C26.4593 168.848 26.5766 168.347 26.5766 167.824C26.5766 167.259 26.4486 166.741 26.1926 166.272C25.9473 165.803 25.606 165.429 25.1686 165.152C24.742 164.864 24.2566 164.72 23.7126 164.72C23.382 164.72 23.03 164.805 22.6566 164.976C22.294 165.147 21.974 165.376 21.6966 165.664C21.43 165.941 21.2593 166.251 21.1846 166.592V168.976C21.4193 169.531 21.7766 170 22.2566 170.384C22.7473 170.757 23.2753 170.944 23.8406 170.944ZM33.4414 172.16C32.6094 172.16 31.8734 171.963 31.2334 171.568C30.5934 171.173 30.092 170.645 29.7294 169.984C29.3667 169.323 29.1854 168.603 29.1854 167.824C29.1854 167.035 29.3667 166.315 29.7294 165.664C30.092 165.013 30.5934 164.491 31.2334 164.096C31.884 163.701 32.6254 163.504 33.4574 163.504C34.3 163.504 35.0307 163.707 35.6494 164.112C36.2787 164.507 36.764 165.029 37.1054 165.68C37.4574 166.32 37.6334 167.013 37.6334 167.76C37.6334 167.995 37.6227 168.176 37.6014 168.304H30.6734C30.716 168.848 30.8654 169.333 31.1214 169.76C31.388 170.176 31.7294 170.507 32.1454 170.752C32.5614 170.987 33.0094 171.104 33.4894 171.104C34.0014 171.104 34.4814 170.976 34.9294 170.72C35.388 170.464 35.7027 170.128 35.8734 169.712L37.0894 170.048C36.8227 170.667 36.3587 171.173 35.6974 171.568C35.036 171.963 34.284 172.16 33.4414 172.16ZM30.6254 167.328H36.3214C36.2787 166.784 36.124 166.304 35.8574 165.888C35.5907 165.472 35.2494 165.147 34.8334 164.912C34.4174 164.677 33.9587 164.56 33.4574 164.56C32.9667 164.56 32.5134 164.677 32.0974 164.912C31.6814 165.147 31.34 165.472 31.0734 165.888C30.8174 166.304 30.668 166.784 30.6254 167.328ZM39.1825 172V163.648H43.5025C44.0038 163.648 44.4198 163.749 44.7505 163.952C45.0812 164.144 45.3265 164.395 45.4865 164.704C45.6572 165.013 45.7425 165.344 45.7425 165.696C45.7425 166.144 45.6358 166.549 45.4225 166.912C45.2092 167.264 44.8998 167.531 44.4945 167.712C44.9745 167.851 45.3638 168.101 45.6625 168.464C45.9612 168.816 46.1105 169.253 46.1105 169.776C46.1105 170.48 45.8598 171.029 45.3585 171.424C44.8678 171.808 44.2225 172 43.4225 172H39.1825ZM40.5265 167.328H43.1345C43.5078 167.328 43.8118 167.189 44.0465 166.912C44.2918 166.624 44.4145 166.299 44.4145 165.936C44.4145 165.584 44.2972 165.28 44.0625 165.024C43.8385 164.768 43.5452 164.64 43.1825 164.64H40.5265V167.328ZM40.5265 171.008H43.3905C43.7745 171.008 44.0945 170.869 44.3505 170.592C44.6172 170.315 44.7505 169.995 44.7505 169.632C44.7505 169.259 44.6225 168.939 44.3665 168.672C44.1212 168.395 43.8118 168.256 43.4385 168.256H40.5265V171.008ZM47.9016 162.08V160.32H49.3096V162.08H47.9016ZM47.9016 172V163.648H49.3096V172H47.9016ZM56.0851 172.16C55.4025 172.16 54.7945 171.989 54.2611 171.648C53.7278 171.307 53.3065 170.875 52.9971 170.352V175.408H51.5891V163.648H52.8371V165.216C53.1678 164.704 53.5998 164.293 54.1331 163.984C54.6665 163.664 55.2478 163.504 55.8771 163.504C56.4531 163.504 56.9811 163.621 57.4611 163.856C57.9411 164.091 58.3571 164.411 58.7091 164.816C59.0611 165.221 59.3331 165.685 59.5251 166.208C59.7278 166.72 59.8291 167.259 59.8291 167.824C59.8291 168.613 59.6691 169.339 59.3491 170C59.0398 170.661 58.6025 171.189 58.0371 171.584C57.4718 171.968 56.8211 172.16 56.0851 172.16ZM55.6531 170.944C56.2078 170.944 56.6878 170.795 57.0931 170.496C57.4985 170.197 57.8131 169.808 58.0371 169.328C58.2718 168.848 58.3891 168.347 58.3891 167.824C58.3891 167.259 58.2611 166.741 58.0051 166.272C57.7598 165.803 57.4185 165.429 56.9811 165.152C56.5545 164.864 56.0691 164.72 55.5251 164.72C55.1945 164.72 54.8425 164.805 54.4691 164.976C54.1065 165.147 53.7865 165.376 53.5091 165.664C53.2425 165.941 53.0718 166.251 52.9971 166.592V168.976C53.2318 169.531 53.5891 170 54.0691 170.384C54.5598 170.757 55.0878 170.944 55.6531 170.944ZM61.5419 172V163.648H62.9499V167.088H63.8779L66.5019 163.648H68.1019L64.9819 167.696L68.4699 172H66.8379L63.8779 168.384H62.9499V172H61.5419ZM70.8948 175.504C70.5428 175.504 70.1694 175.397 69.7747 175.184L70.2548 174.224C70.4361 174.331 70.6174 174.384 70.7988 174.384C71.3214 174.384 71.7801 173.899 72.1748 172.928L72.5748 171.92L68.9108 163.648H70.3988L73.2148 170.576L75.7588 163.648H77.1508L73.2468 173.36C72.9588 174.075 72.6121 174.608 72.2068 174.96C71.8014 175.323 71.3641 175.504 70.8948 175.504ZM84.2149 172V164.896H81.3349V163.648H88.5029V164.896H85.6229V172H84.2149ZM89.2613 169.584C89.2613 169.051 89.4106 168.592 89.7093 168.208C90.0186 167.813 90.4399 167.509 90.9733 167.296C91.5066 167.083 92.1253 166.976 92.8293 166.976C93.2026 166.976 93.5973 167.008 94.0133 167.072C94.4293 167.125 94.7973 167.211 95.1173 167.328V166.72C95.1173 166.08 94.9253 165.579 94.5413 165.216C94.1573 164.843 93.6133 164.656 92.9093 164.656C92.4506 164.656 92.0079 164.741 91.5813 164.912C91.1653 165.072 90.7226 165.307 90.2533 165.616L89.7413 164.624C90.2853 164.251 90.8293 163.973 91.3733 163.792C91.9173 163.6 92.4826 163.504 93.0693 163.504C94.1359 163.504 94.9786 163.803 95.5973 164.4C96.2159 164.987 96.5253 165.808 96.5253 166.864V170.4C96.5253 170.731 96.6746 170.901 96.9733 170.912V172C96.8346 172.021 96.7119 172.037 96.6053 172.048C96.5093 172.059 96.4293 172.064 96.3653 172.064C96.0346 172.064 95.7839 171.973 95.6133 171.792C95.4533 171.611 95.3626 171.419 95.3413 171.216L95.3093 170.688C94.9466 171.157 94.4719 171.52 93.8853 171.776C93.2986 172.032 92.7173 172.16 92.1413 172.16C91.5866 172.16 91.0906 172.048 90.6533 171.824C90.2159 171.589 89.8746 171.28 89.6293 170.896C89.3839 170.501 89.2613 170.064 89.2613 169.584ZM94.7013 170.176C94.8293 170.027 94.9306 169.877 95.0053 169.728C95.0799 169.568 95.1173 169.435 95.1173 169.328V168.288C94.4346 168.021 93.7306 167.888 93.0052 167.888C92.2906 167.888 91.7093 168.032 91.2613 168.32C90.8239 168.597 90.6053 168.981 90.6053 169.472C90.6053 169.739 90.6746 170 90.8133 170.256C90.9626 170.501 91.1759 170.704 91.4533 170.864C91.7413 171.024 92.0933 171.104 92.5093 171.104C92.9466 171.104 93.3626 171.019 93.7573 170.848C94.1519 170.667 94.4666 170.443 94.7013 170.176ZM102.808 172V163.648H109.736V172H108.328V164.896H104.216V172H102.808ZM112.011 162.08V160.32H113.419V162.08H112.011ZM112.011 172V163.648H113.419V172H112.011ZM114.771 173.968V170.752H114.947C115.256 170.752 115.533 170.624 115.779 170.368C116.035 170.101 116.243 169.632 116.403 168.96C116.563 168.277 116.659 167.312 116.691 166.064L116.771 163.648H122.451V170.752H123.587V173.968H122.339V172H116.019V173.968H114.771ZM116.914 170.752H121.043V164.896H118.019L117.971 166.192C117.928 167.557 117.816 168.592 117.635 169.296C117.464 170 117.224 170.485 116.914 170.752ZM125.136 172V163.648H132.064V172H130.656V164.896H126.544V172H125.136ZM134.323 172V163.664H135.731V170.112L140.403 163.648H141.683V172H140.275V165.68L135.667 172H134.323ZM147.629 172.16C146.797 172.16 146.061 171.963 145.421 171.568C144.781 171.163 144.28 170.629 143.917 169.968C143.554 169.307 143.373 168.587 143.373 167.808C143.373 167.019 143.549 166.299 143.901 165.648C144.253 164.997 144.749 164.48 145.389 164.096C146.029 163.701 146.77 163.504 147.613 163.504C148.434 163.504 149.149 163.691 149.757 164.064C150.376 164.427 150.834 164.917 151.133 165.536L149.757 165.968C149.544 165.573 149.245 165.269 148.861 165.056C148.477 164.832 148.05 164.72 147.581 164.72C147.069 164.72 146.6 164.853 146.173 165.12C145.757 165.387 145.426 165.755 145.181 166.224C144.936 166.683 144.813 167.211 144.813 167.808C144.813 168.395 144.936 168.928 145.181 169.408C145.437 169.877 145.773 170.251 146.189 170.528C146.616 170.805 147.085 170.944 147.597 170.944C147.928 170.944 148.242 170.885 148.541 170.768C148.85 170.651 149.117 170.496 149.341 170.304C149.576 170.101 149.736 169.883 149.821 169.648L151.197 170.064C150.952 170.672 150.504 171.173 149.853 171.568C149.213 171.963 148.472 172.16 147.629 172.16ZM153.692 175.504C153.34 175.504 152.966 175.397 152.572 175.184L153.052 174.224C153.233 174.331 153.414 174.384 153.596 174.384C154.118 174.384 154.577 173.899 154.972 172.928L155.372 171.92L151.708 163.648H153.196L156.012 170.576L158.556 163.648H159.948L156.044 173.36C155.756 174.075 155.409 174.608 155.004 174.96C154.598 175.323 154.161 175.504 153.692 175.504ZM164.738 172.144C164.087 172.144 163.5 172.021 162.978 171.776C162.466 171.531 162.023 171.205 161.65 170.8C161.287 170.384 161.004 169.92 160.802 169.408C160.61 168.885 160.514 168.347 160.514 167.792C160.514 167.259 160.604 166.736 160.786 166.224C160.978 165.712 161.255 165.253 161.618 164.848C161.98 164.432 162.423 164.107 162.946 163.872C163.479 163.627 164.087 163.504 164.77 163.504C165.591 163.504 166.295 163.68 166.882 164.032C167.468 164.384 167.911 164.848 168.21 165.424L167.138 165.984C166.871 165.504 166.53 165.163 166.114 164.96C165.708 164.757 165.271 164.656 164.802 164.656C164.258 164.656 163.783 164.784 163.378 165.04C162.972 165.285 162.652 165.611 162.418 166.016C162.183 166.411 162.034 166.832 161.97 167.28H165.57V168.24H161.97C162.023 168.741 162.178 169.205 162.434 169.632C162.69 170.048 163.026 170.384 163.442 170.64C163.858 170.885 164.322 171.008 164.834 171.008C165.303 171.008 165.751 170.896 166.178 170.672C166.615 170.437 166.967 170.08 167.234 169.6L168.37 170.128C168.05 170.768 167.554 171.264 166.882 171.616C166.22 171.968 165.506 172.144 164.738 172.144ZM170.042 172V163.648H171.498L174.602 169.12L177.722 163.648H179.146V172H177.802V165.68L175.05 170.512H174.154L171.386 165.68V172H170.042ZM185.065 172.16C184.233 172.16 183.497 171.963 182.857 171.568C182.228 171.163 181.737 170.635 181.385 169.984C181.033 169.323 180.857 168.608 180.857 167.84C180.857 167.061 181.033 166.347 181.385 165.696C181.748 165.035 182.244 164.507 182.873 164.112C183.513 163.707 184.244 163.504 185.065 163.504C185.897 163.504 186.628 163.707 187.257 164.112C187.897 164.507 188.393 165.035 188.745 165.696C189.108 166.347 189.289 167.061 189.289 167.84C189.289 168.608 189.108 169.323 188.745 169.984C188.393 170.635 187.903 171.163 187.273 171.568C186.644 171.963 185.908 172.16 185.065 172.16ZM182.297 167.856C182.297 168.432 182.42 168.955 182.665 169.424C182.921 169.893 183.257 170.267 183.673 170.544C184.089 170.811 184.553 170.944 185.065 170.944C185.577 170.944 186.041 170.805 186.457 170.528C186.884 170.251 187.22 169.877 187.465 169.408C187.721 168.928 187.849 168.4 187.849 167.824C187.849 167.248 187.721 166.725 187.465 166.256C187.22 165.787 186.884 165.413 186.457 165.136C186.041 164.859 185.577 164.72 185.065 164.72C184.553 164.72 184.089 164.864 183.673 165.152C183.257 165.429 182.921 165.803 182.665 166.272C182.42 166.741 182.297 167.269 182.297 167.856ZM194.386 169.584C194.386 169.051 194.536 168.592 194.834 168.208C195.144 167.813 195.565 167.509 196.098 167.296C196.632 167.083 197.25 166.976 197.954 166.976C198.328 166.976 198.722 167.008 199.138 167.072C199.554 167.125 199.922 167.211 200.242 167.328V166.72C200.242 166.08 200.05 165.579 199.666 165.216C199.282 164.843 198.738 164.656 198.034 164.656C197.576 164.656 197.133 164.741 196.706 164.912C196.29 165.072 195.848 165.307 195.378 165.616L194.866 164.624C195.41 164.251 195.954 163.973 196.498 163.792C197.042 163.6 197.608 163.504 198.194 163.504C199.261 163.504 200.104 163.803 200.722 164.4C201.341 164.987 201.65 165.808 201.65 166.864V170.4C201.65 170.731 201.8 170.901 202.098 170.912V172C201.96 172.021 201.837 172.037 201.73 172.048C201.634 172.059 201.554 172.064 201.49 172.064C201.16 172.064 200.909 171.973 200.738 171.792C200.578 171.611 200.488 171.419 200.466 171.216L200.434 170.688C200.072 171.157 199.597 171.52 199.01 171.776C198.424 172.032 197.842 172.16 197.266 172.16C196.712 172.16 196.216 172.048 195.778 171.824C195.341 171.589 195 171.28 194.754 170.896C194.509 170.501 194.386 170.064 194.386 169.584ZM199.826 170.176C199.954 170.027 200.056 169.877 200.13 169.728C200.205 169.568 200.242 169.435 200.242 169.328V168.288C199.56 168.021 198.856 167.888 198.13 167.888C197.416 167.888 196.834 168.032 196.386 168.32C195.949 168.597 195.73 168.981 195.73 169.472C195.73 169.739 195.8 170 195.938 170.256C196.088 170.501 196.301 170.704 196.578 170.864C196.866 171.024 197.218 171.104 197.634 171.104C198.072 171.104 198.488 171.019 198.882 170.848C199.277 170.667 199.592 170.443 199.826 170.176ZM203.886 172V163.648H205.294V167.088H206.222L208.846 163.648H210.446L207.326 167.696L210.814 172H209.182L206.222 168.384H205.294V172H203.886ZM214.231 172V164.896H211.351V163.648H218.519V164.896H215.639V172H214.231ZM3.744 195.112C2.93333 195.112 2.24533 194.963 1.68 194.664C1.12533 194.355 0.698667 193.928 0.4 193.384L1.552 192.872C1.744 193.213 2.016 193.48 2.368 193.672C2.73067 193.864 3.168 193.96 3.68 193.96C4.288 193.96 4.768 193.827 5.12 193.56C5.472 193.293 5.648 192.936 5.648 192.488C5.648 192.083 5.504 191.757 5.216 191.512C4.93867 191.256 4.544 191.123 4.032 191.112H3.184V190.184H4.08C4.42133 190.184 4.69867 190.067 4.912 189.832C5.136 189.587 5.248 189.283 5.248 188.92C5.248 188.547 5.11467 188.248 4.848 188.024C4.58133 187.789 4.18133 187.672 3.648 187.672C2.80533 187.672 2.20267 188.013 1.84 188.696L0.768 188.12C1.03467 187.619 1.41867 187.229 1.92 186.952C2.432 186.664 3.02933 186.52 3.712 186.52C4.53333 186.52 5.20533 186.717 5.728 187.112C6.25067 187.496 6.512 188.04 6.512 188.744C6.512 189.139 6.416 189.507 6.224 189.848C6.04267 190.179 5.77067 190.429 5.408 190.6C5.90933 190.749 6.29333 191.011 6.56 191.384C6.82667 191.747 6.96 192.179 6.96 192.68C6.96 193.448 6.656 194.045 6.048 194.472C5.45067 194.899 4.68267 195.112 3.744 195.112ZM7.99563 192.584C7.99563 192.051 8.14496 191.592 8.44363 191.208C8.75296 190.813 9.17429 190.509 9.70763 190.296C10.241 190.083 10.8596 189.976 11.5636 189.976C11.937 189.976 12.3316 190.008 12.7476 190.072C13.1636 190.125 13.5316 190.211 13.8516 190.328V189.72C13.8516 189.08 13.6596 188.579 13.2756 188.216C12.8916 187.843 12.3476 187.656 11.6436 187.656C11.185 187.656 10.7423 187.741 10.3156 187.912C9.89963 188.072 9.45696 188.307 8.98763 188.616L8.47563 187.624C9.01963 187.251 9.56363 186.973 10.1076 186.792C10.6516 186.6 11.217 186.504 11.8036 186.504C12.8703 186.504 13.713 186.803 14.3316 187.4C14.9503 187.987 15.2596 188.808 15.2596 189.864V193.4C15.2596 193.731 15.409 193.901 15.7076 193.912V195C15.569 195.021 15.4463 195.037 15.3396 195.048C15.2436 195.059 15.1636 195.064 15.0996 195.064C14.769 195.064 14.5183 194.973 14.3476 194.792C14.1876 194.611 14.097 194.419 14.0756 194.216L14.0436 193.688C13.681 194.157 13.2063 194.52 12.6196 194.776C12.033 195.032 11.4516 195.16 10.8756 195.16C10.321 195.16 9.82496 195.048 9.38763 194.824C8.95029 194.589 8.60896 194.28 8.36363 193.896C8.11829 193.501 7.99563 193.064 7.99563 192.584ZM13.4356 193.176C13.5636 193.027 13.665 192.877 13.7396 192.728C13.8143 192.568 13.8516 192.435 13.8516 192.328V191.288C13.169 191.021 12.465 190.888 11.7396 190.888C11.025 190.888 10.4436 191.032 9.99563 191.32C9.55829 191.597 9.33963 191.981 9.33963 192.472C9.33963 192.739 9.40896 193 9.54763 193.256C9.69696 193.501 9.91029 193.704 10.1876 193.864C10.4756 194.024 10.8276 194.104 11.2436 194.104C11.681 194.104 12.097 194.019 12.4916 193.848C12.8863 193.667 13.201 193.443 13.4356 193.176ZM17.495 195V186.648H18.903V190.088H19.831L22.455 186.648H24.055L20.935 190.696L24.423 195H22.791L19.831 191.384H18.903V195H17.495ZM25.8079 185.08V183.32H27.2159V185.08H25.8079ZM25.8079 195V186.648H27.2159V195H25.8079ZM29.4794 195V186.648H30.8874V190.104H35.2394V186.648H36.6474V195H35.2394V191.352H30.8874V195H29.4794ZM43.6533 195V191.656C43.0026 191.965 42.2666 192.12 41.4453 192.12C39.5893 192.12 38.6613 191.171 38.6613 189.272V186.648H40.0693V189.08C40.0693 189.752 40.2079 190.243 40.4853 190.552C40.7626 190.861 41.2053 191.016 41.8133 191.016C42.1546 191.016 42.4906 190.979 42.8213 190.904C43.1626 190.829 43.4399 190.728 43.6533 190.6V186.648H45.0773V195H43.6533ZM51.0508 195.16C50.2188 195.16 49.4828 194.963 48.8428 194.568C48.2028 194.173 47.7014 193.645 47.3388 192.984C46.9761 192.323 46.7948 191.603 46.7948 190.824C46.7948 190.035 46.9761 189.315 47.3388 188.664C47.7014 188.013 48.2028 187.491 48.8428 187.096C49.4934 186.701 50.2348 186.504 51.0668 186.504C51.9094 186.504 52.6401 186.707 53.2588 187.112C53.8881 187.507 54.3734 188.029 54.7148 188.68C55.0668 189.32 55.2428 190.013 55.2428 190.76C55.2428 190.995 55.2321 191.176 55.2108 191.304H48.2828C48.3254 191.848 48.4748 192.333 48.7308 192.76C48.9974 193.176 49.3388 193.507 49.7548 193.752C50.1708 193.987 50.6188 194.104 51.0988 194.104C51.6108 194.104 52.0908 193.976 52.5388 193.72C52.9974 193.464 53.3121 193.128 53.4828 192.712L54.6988 193.048C54.4321 193.667 53.9681 194.173 53.3068 194.568C52.6454 194.963 51.8934 195.16 51.0508 195.16ZM48.2348 190.328H53.9308C53.8881 189.784 53.7334 189.304 53.4668 188.888C53.2001 188.472 52.8588 188.147 52.4428 187.912C52.0268 187.677 51.5681 187.56 51.0668 187.56C50.5761 187.56 50.1228 187.677 49.7068 187.912C49.2908 188.147 48.9494 188.472 48.6828 188.888C48.4268 189.304 48.2774 189.784 48.2348 190.328ZM56.7919 195V186.648H58.1999V190.104H62.5519V186.648H63.9599V195H62.5519V191.352H58.1999V195H56.7919ZM66.2138 195V186.648H67.6218V190.104H71.9738V186.648H73.3818V195H71.9738V191.352H67.6218V195H66.2138ZM75.0276 195L77.3956 191.64C76.8516 191.533 76.4143 191.277 76.0836 190.872C75.753 190.456 75.5876 189.901 75.5876 189.208C75.5876 188.707 75.705 188.264 75.9396 187.88C76.1743 187.496 76.4996 187.192 76.9156 186.968C77.3423 186.744 77.8383 186.632 78.4036 186.632H81.8276V195H80.4196V191.864H78.7876L76.5796 195H75.0276ZM78.4996 190.824H80.4196V187.736H78.6596C78.1583 187.736 77.7583 187.88 77.4596 188.168C77.161 188.445 77.0116 188.803 77.0116 189.24C77.0116 189.677 77.1343 190.051 77.3796 190.36C77.6356 190.669 78.009 190.824 78.4996 190.824ZM92.6476 195.16C91.965 195.16 91.357 194.989 90.8236 194.648C90.2903 194.307 89.869 193.875 89.5596 193.352V198.408H88.1516V186.648H89.3996V188.216C89.7303 187.704 90.1623 187.293 90.6956 186.984C91.229 186.664 91.8103 186.504 92.4396 186.504C93.0156 186.504 93.5436 186.621 94.0236 186.856C94.5036 187.091 94.9196 187.411 95.2716 187.816C95.6236 188.221 95.8956 188.685 96.0876 189.208C96.2903 189.72 96.3916 190.259 96.3916 190.824C96.3916 191.613 96.2316 192.339 95.9116 193C95.6023 193.661 95.165 194.189 94.5996 194.584C94.0343 194.968 93.3836 195.16 92.6476 195.16ZM92.2156 193.944C92.7703 193.944 93.2503 193.795 93.6556 193.496C94.061 193.197 94.3756 192.808 94.5996 192.328C94.8343 191.848 94.9516 191.347 94.9516 190.824C94.9516 190.259 94.8236 189.741 94.5676 189.272C94.3223 188.803 93.981 188.429 93.5436 188.152C93.117 187.864 92.6316 187.72 92.0876 187.72C91.757 187.72 91.405 187.805 91.0316 187.976C90.669 188.147 90.349 188.376 90.0716 188.664C89.805 188.941 89.6343 189.251 89.5596 189.592V191.976C89.7943 192.531 90.1516 193 90.6316 193.384C91.1223 193.757 91.6503 193.944 92.2156 193.944ZM101.768 195.16C100.936 195.16 100.2 194.963 99.5604 194.568C98.931 194.163 98.4404 193.635 98.0884 192.984C97.7364 192.323 97.5604 191.608 97.5604 190.84C97.5604 190.061 97.7364 189.347 98.0884 188.696C98.451 188.035 98.947 187.507 99.5764 187.112C100.216 186.707 100.947 186.504 101.768 186.504C102.6 186.504 103.331 186.707 103.96 187.112C104.6 187.507 105.096 188.035 105.448 188.696C105.811 189.347 105.992 190.061 105.992 190.84C105.992 191.608 105.811 192.323 105.448 192.984C105.096 193.635 104.606 194.163 103.976 194.568C103.347 194.963 102.611 195.16 101.768 195.16ZM99.0004 190.856C99.0004 191.432 99.123 191.955 99.3684 192.424C99.6244 192.893 99.9604 193.267 100.376 193.544C100.792 193.811 101.256 193.944 101.768 193.944C102.28 193.944 102.744 193.805 103.16 193.528C103.587 193.251 103.923 192.877 104.168 192.408C104.424 191.928 104.552 191.4 104.552 190.824C104.552 190.248 104.424 189.725 104.168 189.256C103.923 188.787 103.587 188.413 103.16 188.136C102.744 187.859 102.28 187.72 101.768 187.72C101.256 187.72 100.792 187.864 100.376 188.152C99.9604 188.429 99.6244 188.803 99.3684 189.272C99.123 189.741 99.0004 190.269 99.0004 190.856ZM111.635 195.16C110.259 195.16 109.219 194.744 108.515 193.912C107.811 193.08 107.459 191.907 107.459 190.392C107.459 189.357 107.544 188.488 107.715 187.784C107.885 187.069 108.141 186.483 108.483 186.024C108.824 185.555 109.245 185.176 109.747 184.888C110.248 184.589 110.824 184.344 111.475 184.152L115.01 183.08L115.091 184.296L111.651 185.336C111.064 185.528 110.573 185.773 110.179 186.072C109.784 186.371 109.475 186.755 109.251 187.224C109.027 187.693 108.877 188.296 108.803 189.032C109.08 188.467 109.496 188.029 110.051 187.72C110.605 187.4 111.251 187.24 111.987 187.24C112.776 187.24 113.453 187.405 114.019 187.736C114.595 188.056 115.032 188.509 115.331 189.096C115.64 189.672 115.795 190.339 115.795 191.096C115.795 191.907 115.635 192.616 115.315 193.224C114.995 193.832 114.525 194.307 113.907 194.648C113.288 194.989 112.531 195.16 111.635 195.16ZM111.635 193.944C112.499 193.944 113.165 193.693 113.635 193.192C114.115 192.68 114.355 192.003 114.355 191.16C114.355 190.339 114.12 189.672 113.651 189.16C113.181 188.648 112.509 188.392 111.635 188.392C110.856 188.392 110.205 188.632 109.683 189.112C109.171 189.592 108.914 190.275 108.914 191.16C108.914 191.971 109.149 192.637 109.619 193.16C110.088 193.683 110.76 193.944 111.635 193.944ZM117.511 185.08V183.32H118.919V185.08H117.511ZM117.511 195V186.648H118.919V195H117.511ZM121.183 195V186.648H125.503C126.004 186.648 126.42 186.749 126.751 186.952C127.081 187.144 127.327 187.395 127.487 187.704C127.657 188.013 127.743 188.344 127.743 188.696C127.743 189.144 127.636 189.549 127.423 189.912C127.209 190.264 126.9 190.531 126.495 190.712C126.975 190.851 127.364 191.101 127.663 191.464C127.961 191.816 128.111 192.253 128.111 192.776C128.111 193.48 127.86 194.029 127.359 194.424C126.868 194.808 126.223 195 125.423 195H121.183ZM122.527 190.328H125.135C125.508 190.328 125.812 190.189 126.047 189.912C126.292 189.624 126.415 189.299 126.415 188.936C126.415 188.584 126.297 188.28 126.063 188.024C125.839 187.768 125.545 187.64 125.183 187.64H122.527V190.328ZM122.527 194.008H125.391C125.775 194.008 126.095 193.869 126.351 193.592C126.617 193.315 126.751 192.995 126.751 192.632C126.751 192.259 126.623 191.939 126.367 191.672C126.121 191.395 125.812 191.256 125.439 191.256H122.527V194.008ZM131.934 195V187.896H129.054V186.648H136.222V187.896H133.342V195H131.934ZM136.837 195V193.208H138.021V195H136.837Z" fill="#282B22"/>
</svg>
